<?xml version="1.0" standalone="no"?>
<!DOCTYPE svg PUBLIC "-//W3C//DTD SVG 1.1//EN" "http://www.w3.org/Graphics/SVG/1.1/DTD/svg11.dtd" >
<svg xmlns="http://www.w3.org/2000/svg" xmlns:xlink="http://www.w3.org/1999/xlink" version="1.1">
<metadata>
Created by FontForge 20170731 at Sat Feb  4 19:24:05 2012
 By Aleksey,,,
Copyright (c) Philippe BLONDEL www.philing.net,, 2012. All rights reserved.
</metadata>
<defs>
<font id="Adelyne" horiz-adv-x="721" >
  <font-face 
    font-family="Adelyne"
    font-weight="400"
    font-stretch="normal"
    units-per-em="1000"
    panose-1="0 0 0 0 0 0 0 0 0 0"
    ascent="800"
    descent="-200"
    x-height="434"
    cap-height="792"
    bbox="-271 -363 2131 836"
    underline-thickness="20"
    underline-position="-140"
    unicode-range="U+0020-E006"
  />
<missing-glyph horiz-adv-x="500" 
 />
    <glyph glyph-name=".notdef" horiz-adv-x="500" 
 />
    <glyph glyph-name=".null" unicode="&#xe004;" horiz-adv-x="0" 
 />
    <glyph glyph-name="nonmarkingreturn" unicode="&#xe002;" horiz-adv-x="500" 
 />
    <glyph glyph-name="space" unicode=" " horiz-adv-x="537" 
 />
    <glyph glyph-name="exclam" unicode="!" horiz-adv-x="443" 
d="M210 216q0 13 5 31q4 18 12 38t17 39t17.5 35.5t13.5 28.5q40 74 72 140t70 138q15 26 25.5 44t21 35.5t22.5 38.5t30 52l9 -82q-2 -34 -16.5 -80t-36 -97t-46.5 -104t-48 -101q-12 -26 -26 -53.5t-28 -53t-29.5 -46t-30.5 -30.5q-10 -7 -21 -7t-23 9q-9 7 -9 23
q-1 1 -1 2zM205 106h4q17 -3 25 -14.5t11 -20.5v-4q0 -38 -35 -75h-1q-5 -5 -16.5 -11.5t-25 -13t-26.5 -11t-21 -4.5q7 27 12 46t11 35.5t15 32t24 34.5q13 6 23 6z" />
    <glyph glyph-name="quotedbl" unicode="&#x22;" horiz-adv-x="490" 
d="M320 473q13 62 57 133q53 86 134 117q-5 -22 -10.5 -42.5t-12.5 -40.5q5 5 9.5 10t9.5 10q8 9 16 19t13 21q26 59 120 80q-40 -130 -80 -200q-56 -97 -162 -176q8 44 15 68t14 41l21 65l-15 -29v-1q-51 -94 -131 -129z" />
    <glyph glyph-name="numbersign" unicode="#" horiz-adv-x="865" 
d="M601.5 381q-18.5 -21 -39.5 -51q12 -3 23 -3q3 0 4 1h19q6 0 13 -1q17 0 43 3q10 1 19.5 1.5t18.5 0.5h8q22 -2 34 -7q8 -5 8 -14q0 -5 -3 -11q-5 -10 -20 -16t-34.5 -10t-40.5 -6.5t-36 -5.5q-31 -4 -59 -6t-41 -6q-5 -1 -11.5 -9.5t-14.5 -21t-18.5 -27.5t-23.5 -30
q-14 -17 -31 -19.5t-46 -5.5l20 56q2 6 8 14.5t14 28.5q-13 -6 -26 -8.5t-23.5 -3.5t-18.5 -3t-11 -6q-9 -12 -20 -28.5t-22 -32.5t-20.5 -28.5t-14.5 -16.5q-11 -8 -21 -8q-1 -1 -2 -1q-9 0 -16 5q-7 4 -10 14q-1 2 -1 7t3 13q7 15 15 31.5t13 24.5v1q-23 -3 -36.5 -4
t-36.5 -3q-4 -1 -11 -1q-12 0 -19 6q-10 7 -10 18q0 12 9.5 24t27.5 18l40 10l30 7.5t27.5 6.5t33.5 7q4 0 11.5 7t15.5 18.5t17.5 25.5t18.5 29l-36 -6q-28 -5 -60.5 -13t-67.5 -13q-14 0 -24 7q-9 4 -9 19v3q5 12 11 17l2 2q31 34 115 41q42 4 72 8t35 5q8 12 20 29t29 49
q7 13 12 24.5t10 19.5q4 9 9 20t8 20q36 -19 44 -36q1 -2 4 -5v-2q0 -5 -1 -9q-3 -9 -10 -29.5t-21 -60.5q10 3 25.5 5t30 3.5t25.5 3.5t12 5q2 5 10 18.5t20.5 30.5t27 36.5t28.5 35.5t26.5 26.5t20.5 11.5q10 0 10 -20q-17 -36 -29 -60l-19.5 -39t-11 -22.5t-3.5 -10.5
q1 0 18 0.5t44 1.5h52q25 -1 44.5 -4t22.5 -8l-30 -34l-193 -20q-11 -13 -29.5 -34zM490.5 339.5q3.5 5.5 8.5 12t12.5 17t19.5 27.5q-31 -4 -47.5 -7t-24 -5t-9 -3.5t-2.5 -3.5l-48 -69v-1q0 -1 3 -1q2 0 5.5 0.5t8.5 1.5q20 5 52 9l13 10q5 7 8.5 12.5z" />
    <glyph glyph-name="dollar" unicode="$" horiz-adv-x="678" 
d="M551 255q-2 -30 -20.5 -62t-44.5 -59t-56.5 -46t-57.5 -23q-11 -26 -19 -41t-15.5 -23t-14.5 -10.5t-15 -2.5q-11 0 -16 5q-9 4 -9 16q-1 1 -1 2q0 10 8 40h-39q-21 0 -23.5 -1t-3.5 -4q-7 -19 -22 -27q-11 -7 -24 -7h-3q-14 2 -21 11q-6 4 -6 15q0 3 2 11l3 11q0 1 -5 3
q-4 1 -4 3q-36 18 -61 47t-33 62q-4 12 -4 25q0 5 0.5 9t1.5 9q3 18 17.5 36t31.5 28q14 8 26 8h7q15 -3 21 -26q-17 -19 -23.5 -34.5t-6.5 -31.5q0 -7 5.5 -16.5t25.5 -36.5q1 -1 5 -3.5t8.5 -5.5l9 -6t5.5 -4q20 48 31 88.5t22 78.5l3 11q-1 0 -1 2q-8 1 -26.5 6.5
t-30.5 10.5q-29 14 -41.5 28.5t-14.5 29.5v7q0 8 1 12q5 27 31.5 45.5t78.5 43.5q46 22 77.5 30.5t33.5 13.5q2 3 6 11t9 22v-1q5 13 11.5 28.5t14 31t14 30t11.5 25.5q5 -8 10 -18.5t9 -23.5q5 -17 5 -30q0 -7 -2 -17q-2 -7 -5 -23t-8 -30q1 1 8 1h10q13 -2 51 -6
q7 7 31 48t66 104q2 -11 3.5 -23t3.5 -25v-18q0 -20 -3 -42q-2 -5 -4.5 -13.5t-4.5 -13.5q-4 -11 -8.5 -23.5t-6.5 -21.5q9 -5 20 -11.5t20.5 -14t16 -16.5t6.5 -19q-2 -16 -10 -20q-8 -5 -19 -5h-4q-14 1 -31.5 6t-35.5 11q-2 -3 -7.5 -14.5t-11.5 -24.5t-11 -25t-8 -18
q-1 -1 -1 -2q0 -2 4 -5q6 -6 19.5 -16t27.5 -31q11 -20 11 -40v-5zM300 262q-11 -26 -21.5 -56t-18.5 -56.5t-8 -35.5l12 2q16 3 28 3q11 0 16 8q6 9 17 33.5t23 52.5t21.5 53t12.5 34q0 5 -11 5q-12 0 -28 3q-6 0 -12.5 -1.5t-13.5 -10.5q-6 -8 -17 -34zM356 374
q4 -1 8 -1.5t9 -1.5q3 -1 11 -1h10q6 0 13 1q3 1 10 12.5t14.5 26t14 27.5t8.5 18q-5 2 -22 2.5t-25 0.5q-9 0 -13.5 -2.5t-9 -11t-11 -24t-18.5 -41.5q0 -4 1 -5zM473 214q17 28 17 44q0 5 -1 8q-7 11 -11.5 13t-15.5 7l-62 -143q50 34 73 71zM257 384q7 0 13 8q8 9 18 40
q-20 -4 -39.5 -15t-36.5 -23q8 -3 13.5 -5.5t13.5 -2.5l17 -2h1z" />
    <glyph glyph-name="percent" unicode="%" horiz-adv-x="783" 
d="M281.5 26.5q-16.5 0.5 -27.5 6t-17 16.5t-7 32v5q13 59 95 132q3 2 12.5 9.5t23.5 18.5q17 14 41 34.5t57 48.5q35 29 61.5 54t29.5 38q-3 3 -9 5t-14 5q-20 8 -44 11.5t-47 3.5q-19 0 -80 -70q-18 -21 -37.5 -39t-37.5 -31.5t-34.5 -21.5t-28.5 -8q-34 0 -46 14
q-12 13 -12 31q0 3 1 5q1 21 13.5 47t29.5 50.5t35 44t31 28.5q16 9 33 20t45 17q7 1 14.5 1.5t15.5 0.5h10q10 -1 18 -6t13 -11q16 -2 33 -4t37.5 -5t46 -7t58.5 -10q14 -3 27.5 -6t24.5 -12q5 -5 8 -12.5t3 -20.5q-3 -11 -16 -29.5t-31.5 -39.5t-40 -43t-41.5 -40
q-17 -15 -34.5 -29.5t-34.5 -30.5q-17 -15 -34.5 -30.5t-34.5 -29.5q-18 -16 -39 -33t-34 -30t-13 -20q0 -1 1 -2q2 -8 28 -8q29 -5 41 -12q6 -5 6 -10q0 -4 -5 -11l-54 -17q-23 0 -39.5 0.5zM492.5 4q-9.5 3 -20 8.5t-20.5 12.5t-16 15q-7 9 -11 21q-2 6 -2 11q0 3 1 4
q0 7 5 20q13 29 40.5 58t75.5 58q14 8 33 13q5 1 11 1.5t11 0.5q8 0 13 -1q18 -2 34 -8t27 -16q23 -21 23 -57q0 -5 -0.5 -12.5t-2.5 -14.5q-12 -57 -78 -91q-26 -12 -53 -19t-56 -7q-5 0 -14.5 3zM574 160q-17 -8 -36.5 -24t-27.5 -32q-3 -6 -3 -11q0 -4 3 -8q5 -9 23 -12
q3 -1 7 -1q9 0 21 5q12 4 27 14q10 8 21 20.5t13 26.5v2q0 7 -6 15q-9 9 -26 9h-2q-6 0 -14 -4zM255 377q13 7 22.5 12t16.5 10q29 20 35 49v1q-7 -4 -15.5 -10.5t-18.5 -16.5q-33 -27 -40 -45z" />
    <glyph glyph-name="ampersand" unicode="&#x26;" horiz-adv-x="548" 
d="M271 -14q-15 -12 -28 -12q-24 0 -42 34q2 8 3 17t3 17l-1 40q-1 1 -1 4q0 5 -1 6l-55 -20q-11 -3 -21 -3q-21 0 -37 12q-26 17 -36 43q-9 19 -9 42v8q0 4 1 8q5 32 29 52q8 6 25.5 22.5t49.5 31.5q1 5 12 16v7q0 6 3 19.5t9 41.5q4 15 9.5 34t14.5 42t24 52t38 65
q10 15 25 33t44 44q17 16 35.5 28t37.5 22q28 14 58 14q6 0 12 -0.5t12 -1.5q15 -3 25 -11.5t14 -25.5q1 -5 1 -18q0 -6 -0.5 -12.5t-1.5 -13.5q-4 -26 -18 -67q-18 -34 -36.5 -62.5t-41.5 -54.5q-5 -8 -23.5 -26.5t-43.5 -41t-53.5 -45.5t-53.5 -39q-6 -6 -13 -12t-13 -14
q2 -7 5.5 -23t4.5 -24q36 24 62.5 42t43.5 28q26 14 46 15h8q14 0 22 -5q7 -4 7 -15v-7q-4 -16 -27 -37q-22 -16 -36.5 -26t-26 -17.5t-22 -13t-22.5 -11.5q-3 -4 -7.5 -9t-7.5 -9l-2 2v-2q0 -2 0.5 -4l1.5 -6q3 -17 7 -43t5 -55v-3q0 -27 -10 -43zM234 351q3 0 17.5 12
t32.5 29t36 34.5t29 28.5q7 8 24 30.5t35 49t32 51.5t15 39v3q0 8 -8 8h-2q-6 -1 -12 -1.5t-13 -2.5q-19 -3 -47.5 -30.5t-74.5 -99.5q-34 -45 -49 -85t-15 -63v-3zM146 152l6 -2l7 2l3 1q4 0 7 1q5 5 7 7.5t3 3.5q-1 3 -2 8t-1 7q-2 5 -4 11.5t-8 24.5q-6 -4 -11.5 -8
t-10.5 -7q-3 -4 -6.5 -9.5t-4.5 -11.5q-1 -1 -1 -4t2 -9q3 -8 12 -15h2z" />
    <glyph glyph-name="quotesingle" unicode="'" horiz-adv-x="291" 
d="M360 607q-9 -12 -19 -26q-17 -26 -31.5 -53.5t-33.5 -39.5q-8 -5 -16 -5q-6 0 -12 3q-20 14 -20 36q0 5 1 8q2 20 13.5 45t27 50.5t32 49.5t30.5 43q3 4 9 11t12.5 15.5t13 16t10.5 12.5q4 -9 5.5 -12.5t3.5 -8t5 -14t10 -30.5l-1 -2q-3 -19 -8 -35.5t-13 -32.5
q-10 -19 -19 -31z" />
    <glyph glyph-name="parenleft" unicode="(" horiz-adv-x="547" 
d="M109.5 94q3.5 -25 13.5 -48q41 -85 172 -98q-45 -20 -74 -30.5t-49 -10.5q-8 0 -9 1h2q-84 9 -126 123q-8 20 -12 46t-4 64q2 42 7 78t16.5 72.5t31.5 76.5t52 88q19 28 43.5 62t53 67t60.5 62t66 47q33 17 59 23q5 1 10 1h11q20 0 46 -6q-33 -34 -57.5 -56t-45.5 -39
q-23 -20 -44.5 -37t-32.5 -29q-71 -84 -120 -164.5t-63 -144.5q-5 -20 -7.5 -45.5t-2.5 -51.5t3.5 -51z" />
    <glyph glyph-name="parenright" unicode=")" horiz-adv-x="490" 
d="M125.5 -85q-22.5 -13 -31.5 -13q-6 0 -8 5q-4 7 -4 19q0 1 1.5 7t9.5 32q64 51 114 96.5t86 87.5q38 43 62.5 91.5t35.5 96.5q5 20 6.5 40t1.5 38q0 25 -3 49.5t-11 47.5q-5 19 -19.5 37t-33 33.5t-40 28.5t-40.5 23q-34 19 -34 36q0 3 1 5q6 17 54 17h5
q25 -5 54.5 -17.5t56 -32.5t47.5 -47.5t29 -61.5q9 -34 12.5 -65t3.5 -60q0 -24 -2 -46.5t-6 -44.5q-6 -46 -28.5 -90t-50 -79t-55.5 -62.5t-45.5 -41.5t-18.5 -15l-82 -71q-45 -30 -67.5 -43z" />
    <glyph glyph-name="asterisk" unicode="*" horiz-adv-x="680" 
d="M321 268q-2 -6 -4 -11v-7q-1 -7 -3.5 -20.5t-3.5 -19.5q-6 -2 -8 -2q-7 0 -12 8q-8 11 -11.5 31t-3.5 46v100q0 11 -0.5 19.5t-1.5 13.5q-8 -6 -17 -12.5t-18 -13.5q-57 -54 -102 -85.5t-64 -39.5l23 64q22 44 83 102h-1q10 11 19 19.5t16 14.5l1 1q-9 5 -15.5 9.5
t-10.5 6.5q-7 4 -11.5 6.5t-6.5 3.5q-51 34 -51 87l126 -35q-2 3 -8.5 11t-14 17t-13.5 16.5t-7 10.5q-17 27 -21 49q-1 1 -1 8q1 13 2 20t3.5 13t7 12.5t13.5 18.5q46 -26 72 -66q15 -23 24 -38t15 -24l9 -13.5t6 -6.5q6 10 14 25.5t16 32.5q6 11 16.5 26.5t23 30.5t25 27
t23.5 17q6 2 9 2q2 0 8 -2q6 -6 6 -25q-6 -10 -14 -31.5t-16 -37.5q-5 -11 -9.5 -22.5t-9.5 -24.5l-7 -40q1 -1 12 -1q39 -5 76 -7.5t69 -15.5q-40 -26 -76.5 -40.5t-81.5 -23.5q5 -4 12 -9t15 -10q77 -54 93 -79q9 -17 9 -29q0 -17 -10.5 -24t-19.5 -7q-2 0 -8.5 1.5
t-17.5 3.5l-16 8t-20.5 10.5t-20 10.5t-15.5 8q5 -33 10 -69.5t10 -65.5h-6q-15 0 -29 8q-25 14 -42.5 40t-23.5 46q-2 -6 -4.5 -14.5t-5.5 -18.5q-2 -8 -4 -14z" />
    <glyph glyph-name="plus" unicode="+" horiz-adv-x="568" 
d="M301.5 215q-5.5 -10 -10.5 -32q-10 -29 -17.5 -49t-14.5 -31q-11 -23 -36 -47.5t-61 -50.5q1 7 4 20.5t6.5 28t7 27.5t5.5 19q1 1 1 4q0 4 1 5q12 42 18.5 65t6.5 25q5 15 18 35q-6 0 -7 1q-27 0 -51.5 -7t-48.5 -12q-14 -3 -26 -3h-8q-22 0 -22 3q-13 7 -15 19v3
q0 10 4 17q5 9 12.5 17.5t10.5 11.5q42 9 86 14t87 5q2 0 3 1q14 26 23 43.5t16 28.5q13 24 35 51.5t52 57.5q8 -2 12 -4q4 -3 4 -15v-4q-1 -17 -12 -51.5t-38 -97.5q0 -5 -1 -5q4 -4 36 -4q3 0 11.5 1t24.5 3.5t42 8t65 14.5l-44 -56q-14 -12 -33 -21.5t-54 -17.5
q-9 -3 -21 -5t-24.5 -3.5t-23.5 -2t-16 -0.5q-2 0 -7.5 -10z" />
    <glyph glyph-name="comma" unicode="," horiz-adv-x="325" 
d="M58 -201q28 71 73 119q21 23 33.5 36.5t17.5 21.5h-1q11 20 23 42.5t24 48.5q12 18 19.5 27.5t13.5 14.5t12 7.5t15 5.5q3 1 8 1q10 0 16 -7q7 -10 7 -16v-2q-4 -39 -16 -71.5t-27 -58t-30 -43.5t-26 -30q-50 -59 -162 -96z" />
    <glyph glyph-name="minus" unicode="-" horiz-adv-x="501" 
d="M236.5 182.5q-7.5 -1.5 -18.5 -3.5h-43q-18 0 -31.5 0.5t-25.5 0.5h-25v1l2 5q3 8 11 23t19 29q53 16 83 20t47 4q25 0 49 3q22 3 46 3q18 0 36 -1t38 -5l8 -54q-19 -6 -43 -11t-52 -8q-27 -2 -49 -3.5t-39 -1.5q-5 0 -12.5 -1.5z" />
    <glyph glyph-name="period" unicode="." horiz-adv-x="256" 
d="M157 1q-6 0 -9 1q-13 11 -21 20.5t-9 18.5l-2 23q1 1 4.5 8.5t8 17t6.5 11.5l87 34q16 -33 16 -53v-5q-2 -32 -22 -50t-42 -23q-11 -3 -17 -3z" />
    <glyph glyph-name="slash" unicode="/" horiz-adv-x="576" 
d="M214.5 154.5q-16.5 -21.5 -34.5 -44.5q-21 -28 -41.5 -52.5t-34.5 -38.5q-14 -15 -26 -15q-23 0 -29 12q-3 4 -3 13q0 6 3 17q6 18 20 40t29.5 43.5t29.5 39.5t20 27q8 12 16.5 25t17.5 23q32 31 55.5 59.5t49.5 66.5q63 91 104.5 137.5t52.5 58.5q10 11 20 19.5t20 14.5
q12 8 33 11.5t47 3.5q-14 -32 -34 -61t-45 -59q-15 -19 -33 -41.5t-37 -48.5q-26 -35 -46.5 -62t-40 -52t-39 -48.5t-43.5 -50.5q-15 -16 -31.5 -37.5z" />
    <glyph glyph-name="zero" unicode="0" horiz-adv-x="527" 
d="M455 256q-41 -56 -93 -108q-34 -34 -62.5 -57.5t-57 -40t-59 -27t-68.5 -17.5q-12 -2 -22.5 -3.5t-19.5 -1.5q-15 0 -27.5 4.5t-21.5 10.5q-30 24 -30 83v6q0 7 1 16t4 20h-1q5 32 22 65t43 75q28 41 62 80t86 93q24 25 49.5 46t50 37.5t46.5 28t39 17.5q17 5 31 5
q16 0 29 -4q30 -9 47 -32q29 -44 29 -105q0 -8 -1.5 -18t-3.5 -23q-2 -8 -3.5 -17t-5.5 -19q-22 -58 -63 -114zM403 526q-32 -6 -113 -93h1q-42 -45 -78 -88t-69 -94q-22 -33 -43.5 -69.5t-26.5 -64.5q-1 -3 -1 -7q0 -14 10 -24q9 -10 19 -10q3 0 5.5 0.5t8.5 0.5
q24 7 53.5 23.5t55.5 32.5q22 13 39.5 26.5t31.5 27t26 28t25 30.5q16 21 31 39.5t29 40t28 48t28 64.5q3 7 3 20v7q-2 37 -26 57q-10 8 -22 8q-5 0 -8 -1z" />
    <glyph glyph-name="one" unicode="1" horiz-adv-x="349" 
d="M177 179q-27 -52 -53 -107q-4 -7 -11 -18t-12 -16q-12 -12 -30 -19.5t-57 -18.5h-2q-2 0 -2 3v4q2 10 3 14q6 26 26.5 62.5t52.5 93.5q14 25 27.5 48t27.5 46.5t29.5 49t33.5 55.5q-12 -4 -24.5 -6t-23.5 -4q-4 -1 -13 -3.5t-18.5 -5t-18 -4.5t-12.5 -2q-21 2 -28 6.5
t-7 17.5q0 4 1 7.5t6 8.5q7 6 26.5 17.5t43.5 24.5t48 25t40 19q11 8 26.5 14.5t30.5 19.5q9 6 17.5 15t20.5 20t28.5 23.5t41.5 26.5q21 -14 21 -29q0 -9 -1 -10l-89 -153q-18 -28 -40 -58.5t-42 -59.5q-40 -55 -67 -107z" />
    <glyph glyph-name="two" unicode="2" horiz-adv-x="584" 
d="M513 584q56 -5 72 -34q12 -24 12 -56v-11q0 -5 -1 -10q-3 -23 -23.5 -56t-54.5 -68q-12 -12 -33 -33.5t-45.5 -46t-49.5 -48.5t-44 -41q1 -12 9 -33v1l8 -26t6 -22q1 -5 3.5 -11.5t6.5 -14.5q2 -5 13 -8t19 -5h4q4 0 5 1q21 13 44.5 20.5t40.5 8.5h1q15 0 20 -9
q1 -1 1 -5q0 -9 -12 -24t-21 -23.5t-18 -14t-19.5 -9t-23.5 -7.5q-8 -2 -14 -4t-13 -3h-16q-5 1 -10.5 1.5t-12.5 2.5q-40 18 -59 58v-1q-14 29 -26.5 51t-14.5 22q-5 0 -25.5 -15t-52.5 -41q-70 -58 -114 -58q-40 0 -58 40q-11 30 -11 47q0 7 1 14.5t2 12.5q6 29 27.5 54.5
t57.5 42.5q22 9 46 17.5t62 11.5h13q18 0 41 -3q9 -1 17.5 -3t16.5 -7q7 6 14.5 12.5t17.5 14.5q16 13 32 26.5t32 29.5l18.5 18.5t16.5 15.5q16 15 28 27.5t26 30.5q23 29 30.5 50.5t10.5 33.5q0 2 1 3q-1 1 -11 1q-19 0 -53.5 -2t-72.5 -11t-73 -28.5t-55 -55.5
q-8 -11 -12 -15l-8 -2h1q-2 0 -12 -1t-18 -1q-1 -1 -3 -1q-3 0 -4 1l-8 4l-1 20q15 40 41 68.5t57.5 48t65.5 31t65 17.5t57 7.5t40 1.5zM176 177q-32 0 -55.5 -19t-31.5 -58q-1 -1 -1 -4q0 -2 -1 -3q17 4 61 34q33 25 54 48q-5 1 -8 1.5t-4 0.5h-14z" />
    <glyph glyph-name="three" unicode="3" horiz-adv-x="525" 
d="M471 398.5q-15 -12.5 -29 -21.5q17 -14 24 -29q10 -19 10 -42q0 -7 -1 -14.5t-2 -12.5q-12 -54 -48 -103.5t-93 -91.5q-116 -84 -224 -84q-57 0 -86 32q-19 22 -19 57q0 8 1 16.5t4 19.5h-1q6 29 29 44q10 6 21 6q18 0 46 -28q-5 -9 -11.5 -20t-6.5 -25q-1 -1 -1 -2
q0 -7 5 -19q2 -6 13.5 -8t29.5 -2q76 0 156 63h-1q80 65 98 142q3 18 3 27q0 1 -0.5 3.5l-1.5 7.5q-2 6 -15 6q-14 0 -36 -7.5t-55 -20.5q-31 -11 -53 -11q-15 1 -23 4t-13 11q-2 3 -3 8.5t-1 10.5q2 5 6.5 11.5t8.5 10.5q8 7 19 11t26 9q51 12 92 31t70 40.5t45.5 43
t18.5 38.5v3q0 21 -27 27q-2 1 -8 1t-11 -1q-7 -1 -13.5 -3t-13.5 -4q-11 -1 -22.5 -3.5t-29.5 -7.5q-10 -2 -24 -10t-31 -17q-17 -10 -42 -20.5t-70 -23.5q15 19 38.5 44t49.5 48.5t53 41.5t49 23q25 7 54 8q4 1 8 1h8q12 0 24 -1.5t24 -3.5q27 -5 47.5 -25t28.5 -62
q-2 -32 -20.5 -57.5t-44.5 -45.5q-14 -11 -29 -23.5z" />
    <glyph glyph-name="four" unicode="4" horiz-adv-x="543" 
d="M400.5 344q-0.5 -1 -0.5 -2q20 -5 37.5 -7t28.5 -8q15 -8 23 -18t8 -24q-3 -6 -9.5 -10.5t-22 -8t-44 -5.5t-75.5 -3l-86 -156q-47 -81 -116 -103l2 67v2q0 10 7 24q8 20 24 48.5t31.5 54.5t27.5 45.5t12 21.5l-43 1h-2q-1 -1 -8 -1h-45q-11 0 -13 1q-61 0 -91 13t-30 43
q7 28 32.5 68t59.5 79.5t70.5 72.5t65.5 47h4q3 0 11 -2q16 -6 21 -26v-4q0 -10 -6 -22q-9 -23 -28 -45.5t-45 -51.5q-9 -11 -17.5 -21.5t-16.5 -18.5q-8 -10 -15 -19.5t-15 -18.5q-2 -3 -5.5 -7t-4.5 -6q26 -5 45 -7.5t43 -2.5q8 0 19 1t23 2t23 2.5t20 2.5q8 6 14.5 19.5
t14.5 25.5l10 17q10 17 18.5 31t26.5 40q24 42 42.5 65.5t47.5 39.5q9 6 18 6h4q10 -2 21 -15q-9 -28 -24 -60t-35 -69q-3 -6 -6.5 -12t-10 -16t-16 -26t-24.5 -42q0 -1 -0.5 -2z" />
    <glyph glyph-name="five" unicode="5" horiz-adv-x="635" 
d="M317 432q-7 0 -13 0.5t-12 1.5l-61 -78q6 1 10.5 2t12.5 3q22 5 36.5 6.5t35.5 2.5q1 -1 4 -1q108 0 157 -40q20 -17 31.5 -43t11.5 -58q0 -60 -21 -103t-58.5 -70.5t-88 -41t-108.5 -13.5q-60 0 -143 23q-100 34 -100 89q2 17 7.5 27.5t15.5 18.5q5 4 16.5 9t40.5 15
q-3 -14 -5 -26.5t-2 -14.5q0 -24 18.5 -38.5t44 -22.5t53 -10.5t45.5 -2.5q70 0 150 41q23 10 43 37t20 75q0 33 -32 56q-34 25 -93 25h-16q-8 0 -20 -2.5t-41 -11.5q-93 -26 -125 -26l-42 2q8 36 25 68t46 58q48 47 57 92q6 22 6 55h88q5 -1 9 -1h20q7 1 15 1t17 1
q64 1 148 18q43 8 98.5 13.5t121.5 5.5q-99 -63 -212 -92q-33 -9 -58 -16.5t-52 -15.5q-15 -6 -40.5 -11t-51.5 -7h-9z" />
    <glyph glyph-name="six" unicode="6" horiz-adv-x="509" 
d="M184 2q-47 0 -84 12q-67 19 -88 65q-7 13 -7 34q0 6 1 13.5t1 13.5q7 24 21 55q12 24 23 42.5t26 40t37 48.5t57 68q69 78 127.5 130t118.5 83q32 -26 38 -76h-26q-5 0 -11 -1t-11 -2q-45 -42 -87.5 -89t-88.5 -104q-29 -35 -48 -59.5t-32.5 -43t-22 -34t-16.5 -31.5
q-2 -5 -4 -9t-4 -9q53 50 114 82q73 35 130 35q14 0 27.5 -1.5t27.5 -6.5q44 -14 60 -43q4 -8 5 -14t1 -14v-16q-3 -18 -14 -35v1q-41 -86 -163 -120q-56 -15 -108 -15zM394 176q0 7 -5 12q-8 8 -26 8q-8 0 -12 -1q-20 -2 -47 -9.5t-60 -24.5q-30 -16 -58.5 -35t-47.5 -36
q2 -2 5.5 -2.5t6.5 -1.5q16 -6 40 -6q35 0 80 12q51 15 80.5 34t39.5 36q4 7 4 14z" />
    <glyph glyph-name="seven" unicode="7" horiz-adv-x="532" 
d="M352.5 241.5q-5.5 -0.5 -11.5 -0.5q-23 -25 -45 -48.5t-45 -46.5q-60 -61 -105.5 -96.5t-73.5 -46.5q1 22 4 42t11 40t23 40.5t40 43.5q16 15 33.5 31t35.5 33q-31 2 -41 8.5t-12 17.5q0 2 -6 11.5t-8 21.5q27 8 47.5 12.5t38 7t32.5 3.5t31 1q20 23 60.5 68.5
t103.5 117.5h-10q-5 0 -9 1h-6q-10 0 -15 -1q-14 -1 -37 -3.5t-63 -8.5q-18 -3 -35.5 -5.5t-43.5 -6.5q-9 -1 -17 -2t-18.5 -3t-24.5 -5t-34 -8q-5 -3 -15 -3q-2 0 -3 1q-20 0 -42.5 8.5t-24.5 20.5q-1 4 -1 12q0 16 7 29q7 18 34 24l151 3q17 0 38 1.5t44 5.5q22 3 32.5 4
t18.5 1t18 1t31 4q13 2 25.5 3.5t25.5 3.5q48 6 90 6h38q-15 -34 -51 -82t-93 -114q-15 -18 -30 -34.5t-30 -33.5q8 -1 17 -2t19 -3l8 -54q-19 -6 -43 -11t-52 -8q-6 -1 -11.5 -1.5z" />
    <glyph glyph-name="eight" unicode="8" horiz-adv-x="643" 
d="M573 349q-32 -34 -82 -65q12 -18 19 -38.5t7 -41.5q0 -5 -1.5 -14.5t-8.5 -33.5v1q-19 -45 -70.5 -78.5t-132.5 -54.5q-35 -8 -71 -14t-89 -7q-21 0 -39.5 1.5t-35.5 3.5q-22 6 -38.5 12.5t-27.5 16.5q-9 9 -14 18q-5 8 -5 18v6q4 48 42 88t101 82q17 9 28.5 15t20 10
t15 7.5t12.5 7.5q-1 3 -4.5 9.5t-5.5 17.5q-1 4 -1.5 7.5t-0.5 8.5v9q2 15 9 34q15 35 53 70t95 66q48 25 89.5 38t74.5 13q8 0 15.5 -0.5t13.5 -1.5q25 -1 42.5 -10t28 -22t15 -29t4.5 -31q0 -7 -1 -12.5t-5 -21.5q-20 -51 -52 -85zM441 211q0 5 -3 10h1q-5 11 -39 17
q-3 1 -6.5 1.5t-6.5 1.5q-2 1 -4 1t-3 1h-51q-29 0 -65 -10t-79 -33q-18 -9 -36 -20t-33.5 -22t-27 -22.5t-16.5 -21.5q-4 -5 -4 -12q0 -6 5 -11q5 -3 12.5 -5t15.5 -5q14 -2 29 -3.5t29 -1.5q67 0 125 16q63 14 100.5 37.5t50.5 53.5q1 4 2 8.5t2 8.5v1zM556.5 455.5
q0.5 2.5 0.5 3.5q0 7 -0.5 13t-4.5 10.5t-12 7t-24 2.5q-47 0 -129 -42q-37 -18 -69 -44t-43 -47q-4 -7 -4 -12q0 -6 4 -10q3 -2 8 -8t16 -8l99 2q43 7 88 39q27 19 45.5 39t23.5 47z" />
    <glyph glyph-name="nine" unicode="9" horiz-adv-x="441" 
d="M269.5 175.5q-43.5 -54.5 -94.5 -114.5q-15 -19 -29 -32t-27.5 -22t-28.5 -14.5t-31 -10.5q2 25 4.5 40.5t5.5 24.5t7 14.5t9 11.5q13 13 27 29.5t28 30.5q10 13 23.5 27t31.5 34.5t41.5 50.5t53.5 75q-7 -2 -21 -8t-22 -9q-34 -15 -62 -23.5t-59 -10.5q-26 0 -42 10
q-22 13 -22 39v2q2 43 32 85t84 93q50 46 86 63t74 19q29 0 53 -15.5t36 -44.5q6 -18 6 -38v-6q-1 -5 -3 -12t-8.5 -22.5t-19 -43.5t-34.5 -75l-10 -16t-10 -17q-35 -60 -78.5 -114.5zM343 487q0 6 -3 14q-5 8 -10 8q-19 -4 -47.5 -21.5t-58.5 -40.5q-29 -25 -48 -47.5
t-25 -39.5q-3 -5 -3 -7q0 -1 2 -3q4 -3 11 -3q1 -1 4 -1q6 0 9 1l5 2q48 4 101 42h-1q19 19 32.5 35t21.5 29q10 16 10 32z" />
    <glyph glyph-name="colon" unicode=":" horiz-adv-x="412" 
d="M391 367.5q-5 -15.5 -17 -36.5q-5 -6 -21.5 -19t-37 -27.5t-41.5 -27.5t-36 -19q-1 5 -1 28q0 15 1.5 35t5 40t10 38.5t15.5 30.5q11 14 28.5 27t39.5 15h2q13 0 27 -8l21 -12q3 -8 6 -17t3 -21q0 -11 -5 -26.5zM145 5q-24 -5 -46 -5q7 31 11 53.5t10.5 41t18.5 37
t36 42.5q11 6 24.5 12t22.5 9h7l23 -8q8 -9 12 -28q1 -5 1.5 -8.5t0.5 -7.5q0 -8 -3 -14q-21 -44 -38 -64.5t-37 -34.5q-1 -1 -3 -2.5t-4 -3.5q-12 -14 -36 -19z" />
    <glyph glyph-name="semicolon" unicode=";" horiz-adv-x="339" 
d="M-23 -179q30 33 78 76q16 15 29.5 29.5t25.5 33.5t22 44.5t20 63.5q8 22 19.5 34t34.5 18q3 1 7 1.5t12 0.5q4 -2 10 -7.5t9 -18.5q1 -5 1 -17v-10q0 -5 -1 -11q-3 -25 -15 -62q-20 -71 -96 -144q-89 -83 -200 -83q14 19 44 52zM240 220q-10 -5 -36 -27q-3 24 -4.5 38
t-2.5 21.5t-1 9.5v4q-1 4 -1 13q0 40 29 75q32 39 95 59q4 -1 4 -10v-6q-2 -9 -5 -21t-6 -23t-5 -21t-2 -14q0 -17 -1 -24.5t-3 -13.5l-3 -12t-3 -11q-8 -14 -18.5 -19.5t-21.5 -10.5q-5 -2 -15 -7z" />
    <glyph glyph-name="less" unicode="&#x3c;" horiz-adv-x="670" 
d="M23 275q0 15 11 26q6 5 13.5 11t15.5 11l206 128q21 10 48.5 24.5t56.5 29.5t57 27t50 17q19 4 37 9q6 1 12 1.5t13 0.5h7q16 -1 33.5 -8t43.5 -24q-34 -20 -77.5 -38t-100.5 -35q-23 -7 -53 -21t-62 -30.5t-62.5 -34t-54.5 -32.5q-22 -16 -34 -27t-20 -19l-15 -16
q14 -22 37 -37t58 -29l1 -1q8 -2 45 -12t98 -26q88 -23 95 -78q-23 -6 -43.5 -8.5t-39.5 -2.5q-65 0 -210 63l-84 41q-45 30 -63 51t-19 37v2z" />
    <glyph glyph-name="equal" unicode="=" horiz-adv-x="614" 
d="M38 174q10 -1 31 -2.5t31 -1.5q81 0 179 22q19 4 49.5 9.5t58.5 8.5q6 1 11 1h11q7 0 13.5 -0.5t11.5 -1.5q15 -3 15 -12q0 -3 -1 -4q1 -2 2.5 -6.5t3.5 -9.5v-6q0 -9 -7 -16q-3 -3 -13.5 -7t-23.5 -7t-26.5 -5t-21.5 -3q-12 -2 -22 -4.5t-20 -4.5q-78 -14 -129 -21.5
t-77 -7.5h-10q-54 3 -66 79zM104.5 308q3.5 6 9.5 10q2 2 4.5 4t7.5 6.5t13 12t20 20.5q42 0 81 0.5t62 2.5q4 0 21.5 2t40 5t46 7t40.5 8q7 0 18.5 -10t14.5 -26v-4q0 -9 -7 -19q-32 -8 -54.5 -13.5t-45.5 -10.5q-56 -8 -109.5 -14.5t-98.5 -9.5q-11 -1 -21 -1h-34
q-12 7 -12 20q0 4 3.5 10z" />
    <glyph glyph-name="greater" unicode="&#x3e;" horiz-adv-x="658" 
d="M599 343q40 28 46 58v8q0 48 -133 72q-54 8 -97.5 31.5t-86.5 49.5l-9 6q-84 55 -84 77v40q-23 -15 -37.5 -26.5t-18.5 -19.5q-2 -2 -3 -6q-3 -8 -3 -14q0 -41 80 -106q39 -31 103.5 -67.5t157.5 -58.5q-21 -14 -52 -30.5t-69 -34.5h1q-85 -40 -132.5 -63t-59.5 -29
q-9 -6 -19 -11t-18 -10q-35 -18 -58.5 -34.5t-29.5 -45.5l10 -59q53 6 100 46q22 16 39 30l-2 -1q52 26 106 53.5t106 54.5l53 26.5t53 27.5q17 9 31.5 18.5t25.5 17.5z" />
    <glyph glyph-name="question" unicode="?" horiz-adv-x="715" 
d="M318 382.5q-23 -8.5 -33 -17.5q0 -5 -2.5 -13t-4.5 -15q-2 -11 -5.5 -20t-5.5 -17q-7 -17 -9.5 -23.5t-6 -13t-11 -17.5t-23.5 -36q-44 13 -51 30q-2 4 -4 7t-4 7q-1 1 -1 5q0 2 2 8q19 31 27.5 54t13 41t9.5 31.5t18 25t36.5 22t66.5 22.5q48 14 91.5 27t88.5 27
t64.5 30t24.5 27q1 3 1 8q0 6 -3 14q-6 11 -37 18q-47 9 -86 9q-44 0 -78 -10q-71 -20 -123 -60q-20 -12 -27 -14q-8 -2 -10 -2h-12l-4 2t-7 3q-22 13 -24 34q0 1 0.5 2.5t0.5 3.5q12 24 35 43t53 33.5t64.5 24.5t69.5 15q21 2 40.5 3.5t38.5 1.5h19q6 0 13 -0.5t15 -1.5
q10 -2 18.5 -3t16.5 -2q76 -10 100 -45q15 -23 15 -54q0 -18 -4 -34q-14 -32 -43.5 -58.5t-81.5 -49.5q-23 -10 -66 -23t-107 -29q-45 -12 -68 -20.5zM56 75q12 34 51 58q8 5 23.5 14t31.5 13q4 1 11 1q10 0 17 -4q11 -8 11 -34q-6 -17 -19 -34.5t-32 -35.5
q-21 -20 -45.5 -32.5t-54.5 -16.5z" />
    <glyph glyph-name="at" unicode="@" horiz-adv-x="971" 
d="M913 164q0 -2 -2 -12q-2 -3 -3 -7t-6 -12q-27 -26 -69.5 -48.5t-93.5 -41t-107.5 -33.5t-111.5 -25t-105.5 -15.5t-89.5 -5.5q-43 0 -81 4.5t-67.5 20t-47.5 45t-21 78.5q0 8 0.5 16t1.5 13q5 25 22 56.5t44.5 66.5t66 71t86.5 69q106 73 197 102t175 29q24 -5 45.5 -15
t38 -25.5t26.5 -38t11 -52.5q0 -6 -1 -14t-3 -16q-2 -9 -5.5 -18.5t-7.5 -20.5h1q-8 -20 -23 -42.5t-35 -47.5q-32 -35 -73 -56.5t-82.5 -34t-78.5 -17t-60 -4.5q-9 0 -20.5 -1.5t-30.5 -6.5q-27 -6 -48 -6q-27 0 -45 8t-18 40q13 82 121 145q29 18 58 34t63 19
q10 0 20 -2.5t23 -13.5q3 -3 8 -10.5t5 -23.5q0 -15 -8.5 -39t-33.5 -58q5 0 11 3q9 2 18 5.5t14 7.5q18 8 38.5 19.5t40 26.5t37 33t28.5 40q10 20 10 43q0 5 -0.5 9.5t-1.5 9.5q-4 20 -22 33t-48 13q-19 0 -48.5 -5.5t-66.5 -17.5t-79 -31.5t-85 -47.5q-46 -29 -80 -59
t-57.5 -57.5t-36.5 -51.5t-17 -41q-3 -9 -3 -21q0 -2 1 -3q0 -21 8 -39t22 -26q20 -10 44 -14t50 -4q57 0 122.5 7.5t134.5 20.5q39 9 79 24t76.5 31.5t67.5 33t52 29.5q12 4 23 4q19 0 28 -13q5 -8 5 -16zM436 208.5q18 9.5 33 26.5q8 10 15 20t12 20q-13 -8 -24.5 -16.5
t-22.5 -16.5q-16 -12 -27.5 -23t-22.5 -22q19 2 37 11.5z" />
    <glyph glyph-name="A" unicode="A" 
d="M548.5 39q-2.5 12 -3.5 26q-1 11 -1.5 22t-0.5 22v18q-1 4 -1 14q0 13 3 33q1 10 1.5 21t0.5 25v16q0 8 -1 17l-163 9q-26 2 -49.5 5.5t-33.5 5.5h-2q-7 0 -21 -14q-12 -12 -27.5 -29.5t-32 -37t-33.5 -38.5t-32 -33q-27 -30 -56 -57t-56 -38q-9 -3 -17 -3q-9 0 -16 3
q-2 10 -2 15t1 8q1 5 3 13t5 19q3 9 9.5 18.5t16.5 20.5t24 26t32 36q6 4 11 9l10 10q9 9 22.5 24.5t27 32t25 30.5t16.5 19q-20 19 -32 35.5t-18.5 30.5t-8.5 27t-2 26q0 12 11 12h4q14 -2 44 -30q13 -10 29.5 -24t26.5 -20q2 -2 3 -2q37 39 69 73t63 66.5t62.5 64.5
t67.5 68q22 22 48.5 47t53 47t51.5 37.5t44 18.5q-2 -5 -8 -28.5t-13.5 -57.5t-16.5 -74t-17 -78t-14.5 -70t-9.5 -49q-6 -32 -8 -61t-4 -55q5 -4 17 -8t41 -16q3 -1 8.5 -5.5t9.5 -10.5q3 -5 3 -10v-1q-2 -6 -11 -9q-47 -8 -57 -14q-6 -2 -10.5 -10t-9.5 -34q-1 -8 -1 -15
v-28q0 -6 1 -12q3 -26 3 -54q0 -18 -3 -39q-1 -8 -3 -16.5t-5.5 -16.5t-10 -13t-17.5 -5q-22 0 -33 24q-4 9 -6.5 21zM560 378l8 46t9.5 50t14 60.5t21.5 78.5q-13 -10 -33 -28.5t-33 -30.5q-30 -29 -61.5 -62.5t-59 -64t-48 -54.5t-27.5 -34q48 -11 98.5 -13.5t98.5 -2.5
q4 0 5 -1z" />
    <glyph glyph-name="B" unicode="B" horiz-adv-x="632" 
d="M207.5 0q-29.5 1 -71.5 14q-24 7 -41 16.5t-28.5 18.5t-18 15.5t-9.5 8.5q-11 10 -17 26t-9 33t-4 33t-1 25q0 4 3 4l6 -2q9 -7 29 -15q5 -2 10 -4.5t10 -4.5l9 -5l1 -4q20 26 50 78t64 122v-1q36 69 74 141t85.5 130.5t107 96t138.5 37.5q39 0 68.5 -24t41.5 -59
q6 -18 6 -37q0 -9 -1 -14q-3 -24 -18.5 -56t-37 -63.5t-47 -59t-49.5 -43.5q14 -11 31.5 -44t20.5 -89v-11q0 -35 -10 -72q-13 -51 -51.5 -90t-98.5 -66q-96 -36 -201 -36q-12 0 -41.5 1zM532.5 273q0.5 9 0.5 18v7q-1 21 -7 38t-19 24q-16 0 -41.5 -9.5t-52.5 -20.5
q-34 -12 -60.5 -20t-58.5 -13q-15 -1 -23 -2.5t-15 -3.5q-12 -5 -30.5 -29t-36 -53.5t-30.5 -58t-13 -43.5q0 -9 6 -13t14 -9q25 -14 57 -18q10 -1 19.5 -1.5t19.5 -0.5h12q6 0 13 1q33 2 64.5 10t57.5 17q52 20 79.5 52t36.5 67q3 19 6 42q1 10 1.5 19zM494.5 677.5
q-37.5 -22.5 -66.5 -53.5q-14 -14 -34 -43.5t-40 -64t-36.5 -69.5t-24.5 -60l13 3q36 8 62 16.5t44 15.5q16 5 40 18.5t49 30t48 34.5t37 32q12 12 27 33.5t24 44.5q8 21 8 38v6q-2 20 -23 29q-4 5 -21.5 8.5t-34.5 3.5q-34 0 -71.5 -22.5z" />
    <glyph glyph-name="C" unicode="C" horiz-adv-x="614" 
d="M641 677q0 10 -4 14q-7 5 -17 5h-7q-44 -3 -96 -30.5t-102 -67t-94 -84.5t-72 -82q-24 -31 -51 -73.5t-50 -85t-39 -79t-18 -54.5q-3 -9 -3 -15q0 -4 1 -5q1 -19 17 -33q13 -5 27 -8q10 -3 24 -3h7q4 0 9 1q37 3 68 9t61 17t61.5 27t69.5 39q15 9 35 22t41 26t40 22t33 9
q12 -9 16 -18q1 -3 1 -9q0 -5 -5 -17q-40 -42 -96 -76.5t-125 -63.5q-67 -28 -125.5 -44t-110.5 -20h-12q-54 0 -84 24q-16 14 -25.5 30.5t-11.5 37.5v23q0 4 1 8q7 43 30.5 101.5t58.5 120.5t79 122.5t93 109.5q33 33 73.5 62.5t82.5 54t82 43t72 28.5q33 9 53 9q9 0 13 -1
q6 -2 15.5 -4t19.5 -7.5t18.5 -15.5t13.5 -28q1 -5 1.5 -10t0.5 -11q0 -9 -1.5 -19.5t-3.5 -22.5v1q-6 -28 -13.5 -47.5t-13.5 -32.5v-1q-7 -13 -16 -21t-22 -15t-30 -13.5t-40 -16.5q6 16 14.5 36t17.5 40.5t18.5 40.5t17.5 36q2 10 2 15z" />
    <glyph glyph-name="D" unicode="D" horiz-adv-x="793" 
d="M177 3q-30 0 -49 4q-16 3 -31.5 8.5t-28 17.5t-20.5 32t-9 52q7 -4 22 -11.5t32.5 -15t33 -13t22.5 -6.5v6q0 39 13 81q7 23 14.5 44.5t17.5 42.5q10 22 27.5 57t34.5 72q9 16 19 38.5t19 45.5t16.5 42.5t11.5 28.5q17 37 28 64.5t15 46.5v2q-15 10 -40 17t-60 20
q-16 4 -34 12t-19 20v4q0 17 15 25q8 4 18 5.5t21 2.5h5q20 0 40 -3q11 -2 19 -3.5t13 -2.5q18 -4 32.5 -6.5t43.5 -10.5q41 -12 84.5 -30t83 -38t73.5 -40t56 -36q36 -27 58 -49.5t34 -46.5t17 -51.5t6 -63.5v-6q0 -65 -41 -118q-43 -55 -123 -103q-54 -32 -122 -58
t-146 -46q-51 -14 -109 -23t-105 -9q-3 -1 -8 -1zM252.5 78q47.5 10 110.5 28q66 19 128 44t113 52q36 19 61 35.5t40.5 34t23 36.5t7.5 42q0 27 -7 55.5t-20.5 55t-32.5 49t-43 37.5q-8 5 -23 13.5t-33.5 18t-39 19t-39.5 16.5q-14 5 -25 8t-21 8q-11 -20 -26.5 -55
t-34.5 -84q-15 -38 -36 -88.5t-41 -97.5t-36 -83t-21 -45l-37 -65l-64 -43l22 -1q27 0 74.5 10z" />
    <glyph glyph-name="E" unicode="E" horiz-adv-x="596" 
d="M352 579q-4 -7 -15.5 -28.5t-25 -48t-25.5 -52t-17 -39.5q59 5 98.5 8.5t69.5 6t54.5 4.5t53.5 3q18 -4 23 -21q1 -2 1 -4t1 -3v-3q-3 -14 -14.5 -22.5t-28.5 -13.5t-38 -8.5t-43 -7.5q-23 -5 -51 -9.5t-59 -9.5q-17 -2 -30.5 -4t-24.5 -4q-20 -2 -31 -3t-17 -2t-8 -2.5
t-3 -3.5q-9 -14 -22.5 -36.5t-27 -48.5t-24.5 -52t-14 -47q-2 -10 -2 -14q0 -13 4 -20q6 -14 27 -14q51 0 171 15q31 5 58.5 11t49.5 12q6 2 14 4t18 4q15 4 31 4h6q16 -1 25 -12q3 -5 3 -14q0 -8 -5 -25l-16 -13q-100 -33 -197 -48.5t-194 -15.5q-35 0 -62 3.5t-39 26.5
q-6 10 -6 31v10q1 6 9 32.5t22 62t34 75.5t44 73q-11 11 -22.5 23t-19.5 20q21 22 41.5 33t56.5 13l3 5q7 16 22 47t31.5 64.5t32.5 64.5t25 48q34 66 95 66q32 0 79.5 3.5t113.5 10.5q25 2 39.5 3.5t25 2.5t19.5 1.5t23 0.5q22 0 37.5 -9t36.5 -41q-35 -8 -59.5 -13t-50 -9
t-57 -7t-79.5 -7q-26 -2 -52.5 -4.5t-54.5 -4.5q-35 -3 -63 -49v1z" />
    <glyph glyph-name="F" unicode="F" horiz-adv-x="615" 
d="M433 620q-10 -11 -18.5 -26t-15 -32.5t-12.5 -32.5q-7 -15 -12 -25t-9 -19.5t-9 -19.5t-12 -25q1 1 5 1q29 3 49 4.5t36 3t29.5 2.5t30.5 3q26 3 53.5 6.5t50.5 3.5t37.5 -5.5t14.5 -21.5q0 -17 -8 -27t-21.5 -15.5t-31.5 -8.5t-37 -6q-29 -5 -72 -8t-83.5 -6.5t-69 -8.5
t-28.5 -13q-4 -6 -12.5 -23t-20 -39.5t-24 -49.5t-24 -53t-22 -49.5t-16.5 -38.5q-14 -34 -29.5 -59.5t-38.5 -31.5h-9q-11 0 -24 5q-8 3 -8 15v5q1 12 6 27t11.5 31t13.5 30.5t12 24.5q2 4 10 22t19 42.5t23.5 52.5t23.5 52t19.5 41.5t11.5 21.5q36 72 59 124.5t38 89.5
t26 60t23 37t28.5 20.5t43.5 10.5q2 1 18 2.5t40 4t53.5 4.5t58.5 4.5t54 5t40 4.5q37 7 73 9h48q9 0 18 -1q-13 -25 -25 -40t-24 -23.5t-25 -11.5t-28 -5q-6 0 -29.5 -1.5t-61 -5t-87 -9.5t-106.5 -15q-14 -3 -24 -14z" />
    <glyph glyph-name="G" unicode="G" horiz-adv-x="841" 
d="M576.5 33.5q-54.5 -16.5 -121.5 -23.5q-37 -4 -69.5 -5.5t-62.5 -1.5q-38 0 -83.5 7.5t-84.5 25.5t-65 48.5t-26 76.5q0 35 11 66.5t30.5 63.5t46 65t57.5 71q27 28 60.5 59.5t69.5 61.5t72.5 57t69.5 46q73 42 137 64.5t115 22.5q59 0 99 -22t48 -80q1 -5 1 -16
q0 -19 -4 -38q-3 -16 -6.5 -33t-7.5 -36q-6 -31 -22.5 -49.5t-51.5 -18.5q-16 10 -19.5 26.5t-6.5 36.5q1 34 14 58t26 49q4 4 4 11q0 5 -1 8q-3 11 -17 24q-39 11 -62 11q-77 0 -202 -74q-32 -19 -65 -43.5t-64.5 -51t-61 -54t-53.5 -51.5q-51 -51 -81 -98.5t-40 -86.5
q-2 -11 -3.5 -20t-1.5 -17q0 -21 11 -38q17 -26 51 -41.5t79 -15.5h93q61 2 109.5 12t90.5 21q97 25 113 73q2 6 3 7q0 3 -2 5q-8 7 -24 9q-7 1 -16.5 1.5t-17.5 0.5q-28 0 -73 -4.5t-88 -4.5q-10 0 -11 1q-18 1 -32 2t-22 2q-29 5 -51 12.5t-28 24.5q-2 6 -2 11q0 8 3 17
q2 15 14 25.5t28.5 18t36 12.5t36.5 8q2 1 11 1h10q10 -1 24 -2t28 -2.5t26 -2.5t20 -2q18 -2 51 -9t99 -23q8 29 16.5 37t18.5 10q11 0 17.5 -5.5t8.5 -25.5v-4q0 -16 -4 -33h11q8 0 22.5 -3t49.5 -9q-18 -15 -35 -26t-30.5 -19t-22 -14t-9.5 -12l-13 -38q-16 -37 -35 -54
t-47 -28l1 1q-43 -19 -97.5 -35.5zM476 271q-17 -2 -24 -9q-7 -4 -7 -8q0 -3 7 -4q12 -4 39 -4q25 0 53.5 1.5t44.5 2.5q8 1 20.5 2.5t18.5 3.5l-128 17q-7 0 -24 -2z" />
    <glyph glyph-name="H" unicode="H" horiz-adv-x="641" 
d="M653 334.5q-12 -0.5 -22 -1.5t-20 -1.5t-24 -2.5q-2 0 -3 -1q-2 -1 -3.5 -2.5l-2.5 -2.5q-8 -13 -20.5 -40t-26 -57t-26.5 -58.5t-21 -44.5q-9 -16 -17.5 -33t-17 -32.5t-17.5 -28.5t-18 -21q-4 -4 -15 -7q-3 -1 -10 -1q-5 0 -11 2q-11 3 -15 15q-2 6 -2 14q0 9 3 23
l5 10l115 253q-3 0 -24 -2t-49 -4.5t-55.5 -5t-42.5 -3.5l-13 -2q-4 -8 -14 -25.5t-24 -41t-30 -52t-31 -58.5q-17 -31 -30.5 -53t-29.5 -37t-36.5 -23t-51.5 -10q4 19 16 46.5t28.5 58t35 62.5t35.5 60q15 23 25.5 40t17.5 29q-1 1 -18 1q-19 0 -53 -3q-8 0 -21.5 0.5
t-18.5 0.5q-22 0 -30.5 12.5t-10.5 29.5q2 11 12 20.5t21 12.5q15 5 36 8.5t44 6t46 4t44 3.5l53 82q4 9 12 22.5t17 28.5t17.5 29.5t13.5 23.5q19 36 42.5 68.5t46.5 43.5q7 3 13 3q9 0 17 -6q5 -5 5 -17q0 -4 -0.5 -9t-1.5 -10q-5 -20 -14.5 -45t-21 -49.5t-22.5 -46
t-20 -34.5q-19 -29 -33 -50.5t-19 -31.5q15 2 33.5 3.5t37.5 3t37 2.5t31 2q8 0 13 7.5t18 27.5q35 69 63 121.5t54.5 88.5t52.5 54t57 18q-3 -7 -12.5 -26t-23 -47.5t-31 -64t-36.5 -75.5q-6 -14 -14.5 -34t-22.5 -59q-1 -1 -1 -7q16 -2 32 -3t46 -1l49 -26l-67 -42
q-18 -2 -30 -2.5z" />
    <glyph glyph-name="I" unicode="I" horiz-adv-x="373" 
d="M389 560q0 -5 -7 -18.5t-17.5 -33t-23 -42.5t-22.5 -46q-16 -34 -24.5 -51.5t-13 -27t-6.5 -14t-5.5 -12t-10 -22.5t-19.5 -44q-7 -17 -16.5 -40t-20 -47.5t-20 -48t-15.5 -39.5q-9 -35 -23 -52t-31 -22h-9q-7 0 -10 1q-14 6 -20.5 18.5t-8.5 19.5l13 52q3 15 7.5 33.5
t13.5 44.5t22.5 61t34.5 82q32 72 63 125t51 88q12 22 19 34t12 19t9 11.5t10 11.5q7 2 23 8.5t40 13.5zM483 767v-4q-1 -5 -1 -11v-12q0 -6 -2 -17t-5 -16q-8 -17 -20.5 -30t-35.5 -13q-8 0 -18 4.5t-13 18.5q-3 13 -3 23v4q2 11 13 27q10 17 29.5 28.5t51.5 22.5
q4 -13 4 -25z" />
    <glyph glyph-name="J" unicode="J" horiz-adv-x="516" 
d="M382 56q-39 -40 -82 -50q-15 -4 -45 -4q-1 -1 -3 -1q-27 0 -60 11q-34 10 -66.5 36.5t-55.5 77.5q-11 31 -16.5 53.5t-7.5 40.5q-1 7 -1.5 13t-0.5 12v10q1 15 3 38q13 26 25 33t27 8q5 0 8.5 -0.5t8.5 -1.5q5 -2 11.5 -7t9.5 -13q1 -1 1 -12q0 -30 1 -51t2.5 -36.5
t4.5 -27.5t7 -24q4 -15 14.5 -27.5t24 -21t29 -14t29.5 -6.5q5 -1 14 -1q8 0 18 2q2 0 3 -1h4q26 6 46.5 33.5t49.5 89.5q5 13 13 32t21 48.5t30 70t40 96.5q11 36 20.5 64.5t18.5 54.5t18.5 51.5t21.5 57.5l78 76l6 -84q-5 -20 -8 -30.5t-8 -20.5l-173 -445
q-42 -90 -81 -130z" />
    <glyph glyph-name="K" unicode="K" horiz-adv-x="599" 
d="M357.5 99q-23.5 25 -40.5 51q-14 18 -24 35t-18 28q-6 9 -6 11l-9 19q-6 -11 -18.5 -34.5t-29 -54t-35 -64.5t-36.5 -66q-1 -2 -9 -9t-19 -11q-8 -3 -15 -3q-5 0 -8 1q-11 1 -22 17l-3 25q3 13 6.5 24t9 22.5t12 24.5t15.5 30v-1q25 48 39 72.5t17 29.5q14 30 29 70.5
t32 89.5q13 35 22.5 63.5t17.5 51.5q3 11 16 49t34 96q5 14 35.5 44.5t78.5 61.5q-2 -14 -13.5 -52.5t-27 -83.5t-30.5 -88t-24 -66q-11 -30 -19.5 -57t-14.5 -50q17 14 35.5 30.5t39.5 34.5q30 26 61 51t61 51q11 10 27 24t34.5 28t37.5 27t36 20q15 7 29 7h2q12 -1 20 -12
q3 -5 3 -9q0 -8 -7 -18q-8 -12 -21.5 -26.5t-30 -30t-33.5 -31t-32 -30.5t-36 -33t-43.5 -36l-45 -36t-41.5 -34q-40 -32 -57 -44.5t-19 -16.5q2 -5 5.5 -10.5t8.5 -8.5q9 -14 22.5 -33t29 -39t31.5 -37.5t30 -27.5q13 -11 21.5 -18t20.5 -13.5t31 -14.5t53 -21
q12 -12 14 -26v-2q0 -12 -4 -19q-5 -9 -12 -14.5t-10 -6.5q-42 6 -82 20t-78 40q-20 14 -43.5 39z" />
    <glyph glyph-name="L" unicode="L" horiz-adv-x="540" 
d="M493 4q-10 0 -25 4q-17 3 -38.5 8.5t-44.5 12t-44 13.5t-36 13q-14 5 -39.5 12t-51.5 10q-5 1 -10 1h-10q-8 0 -14.5 -0.5t-12.5 -1.5q-22 -4 -28 -22v1q-17 -24 -27.5 -38.5t-25.5 -16.5h-3q-7 0 -22 5q-11 5 -11 20q-1 1 -1 2q0 18 7 36q6 22 17 47.5t23 49t22.5 43
t15.5 28.5l28 52q17 29 31 56t32.5 68t46 102.5t70.5 159.5q1 0 6 11t11 26t12 30.5t11 25.5q6 14 8 14l37 -61q1 -1 1 -6q0 -7 -3 -22q-4 -16 -10.5 -38t-14 -44.5t-15.5 -43.5t-15 -35q-21 -47 -41.5 -91l-41 -88t-42.5 -89t-46 -94q6 3 17 3h6q13 -1 38 -3q43 -9 68 -18
t48.5 -18.5t53 -20.5t80.5 -24q15 -4 23 -15q7 -10 7 -21v-2q-1 -12 -8 -22.5t-19 -13.5l-15 -4q-1 -1 -5 -1z" />
    <glyph glyph-name="M" unicode="M" horiz-adv-x="758" 
d="M703.5 212.5q-23.5 -74.5 -35.5 -143.5q-14 -65 -33 -87q-15 -18 -32 -18q-3 0 -11 2q-13 5 -17 14q-4 7 -4 20q0 6 1 11q2 21 10 56.5t21 89.5q5 23 12 50.5t15.5 56t17 55.5t15.5 49q-9 -12 -17.5 -23t-16.5 -22q-17 -23 -37.5 -50t-39 -52t-33.5 -44t-21 -26h1
q-75 -93 -96 -93q-41 0 -46 59q-1 6 -1.5 13t-0.5 14q0 23 8 63.5t19.5 82.5t24 79.5t21.5 54.5q-29 -36 -59 -76t-60 -83q-38 -54 -73 -105.5t-73 -105.5q-17 -23 -45 -37t-67 -14q7 29 37 84.5t75 121.5q37 53 86 119t102 131.5t105 122t96 91.5q16 13 29 13q3 0 9 -2
q14 -6 19 -23q-3 -15 -13.5 -39.5t-23 -52.5t-25.5 -54.5t-21 -45.5q-12 -30 -23.5 -56t-21.5 -52.5t-16.5 -54t-7.5 -60.5q0 -5 -1 -5q0 -4 1 -5q25 26 49 54.5t47 58.5q33 42 67.5 94.5t70.5 108t74.5 109.5t78.5 99q5 6 25 13t49 7q-6 -14 -17 -40t-22.5 -54t-22.5 -54
t-17 -40l-94 -240q-18 -65 -41.5 -139.5z" />
    <glyph glyph-name="N" unicode="N" horiz-adv-x="757" 
d="M421 9.5q-20 8.5 -37.5 26.5t-31 45.5t-18.5 65.5l-2 18t-1.5 22.5t-1.5 36t-2 58.5q-14 -20 -30.5 -43t-33.5 -49q-5 -7 -9.5 -14l-13.5 -21t-24 -37t-40 -61q-6 -9 -14.5 -18t-18.5 -17.5t-21 -14.5t-22 -7q-3 -1 -8 -1q-9 0 -19 5q-7 4 -7 16q0 6 1 9q2 12 9.5 28.5
t17 34t20.5 35.5t21 34q31 45 53.5 77.5t40 58.5t32.5 48t31 46t35 53.5t45 69.5q2 3 13 9.5t25.5 14t31 15t29.5 13.5q-10 -27 -20 -62.5t-18.5 -74.5t-14 -77.5t-5.5 -70.5q0 -28 3 -58q3 -23 7.5 -46t11 -42t17 -31.5t25.5 -13.5h5q13 0 30 9q26 16 54 53t51 83
q28 56 55 112t54.5 115t56 122t60.5 133q1 4 11.5 9.5t26.5 12.5t34 15t35 17q-18 -45 -45.5 -108.5t-60 -134t-66 -142t-63 -131t-52 -102t-32.5 -55.5v-1q-25 -35 -51.5 -54.5t-50 -28.5t-42.5 -11t-28 -2q-18 0 -38 8.5z" />
    <glyph glyph-name="O" unicode="O" horiz-adv-x="789" 
d="M103 33q-37 25 -52 61q-14 34 -14 71v6q1 41 15 86t36 89t49 85.5t54 76.5q60 70 112.5 110t104.5 68q26 11 53.5 19.5t56.5 15.5q43 9 86 9h15q7 0 15 -1q57 -5 106.5 -30.5t79.5 -77.5q7 -13 12 -27.5t7 -31.5q1 -11 1.5 -21.5t0.5 -21.5v-24q-3 -35 -12 -68t-21 -58
q-38 -87 -101.5 -155.5t-140 -116t-159.5 -72.5t-159 -25q-97 0 -145 33zM759.5 510q0.5 6 0.5 12q0 27 -10 51q-15 30 -44.5 47t-64.5 23q-21 3 -43 3h-14q-6 0 -13 -1q-17 -2 -32.5 -5.5t-29.5 -8.5q-21 -12 -33.5 -19.5t-21.5 -16.5t-16 -22t-17 -37q-3 -8 -12.5 -37.5
t-19.5 -98.5q-20 24 -31.5 36t-17.5 22.5t-7.5 24.5t-1.5 43q-17 -11 -45.5 -40t-58 -68.5t-55 -84.5t-36.5 -88q-8 -29 -8 -51q0 -15 3 -28q8 -36 43 -57q41 -23 90 -25q3 -1 9 -1q45 0 88 13q49 14 97 40t93 58q41 30 71 54t52 49.5t38 55.5t29 72q5 18 9 36t8 37
q1 6 1.5 12z" />
    <glyph glyph-name="P" unicode="P" horiz-adv-x="510" 
d="M740 513v-5q-5 -46 -26.5 -79.5t-55 -55t-76.5 -32t-92 -11.5h-9q-64 0 -125 13q-12 -2 -24 -5t-17 -8q-17 -13 -29 -31.5t-20 -34.5q-11 -20 -24.5 -44.5t-27.5 -49.5t-27 -48t-22 -38q-5 -13 -15.5 -25t-19.5 -16l-101 -43l384 695q10 19 23.5 40t33.5 22q8 0 16.5 -1
t14.5 -6q10 -9 12 -29v-2q0 -19 -11 -35l-1 -2q16 2 29.5 4t24.5 4q7 1 13 1h30q19 -2 37.5 -10t40.5 -24q29 -23 47 -60q17 -36 17 -84zM485 412h10q6 0 11 1q60 5 96.5 27.5t50.5 55.5q9 19 9 39q0 12 -4 23q-9 28 -42 45q-24 11 -53 11q-18 0 -37 -3q-23 -3 -35 -5.5
t-19 -6t-10.5 -9t-8.5 -14.5q-7 -8 -19 -27t-24 -40t-22 -39.5t-14 -27.5l-7 -9q66 -21 118 -21z" />
    <glyph glyph-name="Q" unicode="Q" horiz-adv-x="694" 
d="M559 13q-7 4 -18.5 15t-28 29.5t-40.5 47.5q-9 -4 -22 -9.5t-33 -16.5q-20 -12 -47.5 -24.5t-56 -22t-55.5 -16t-47 -6.5q-62 0 -95 29t-39 77q-1 5 -1 10v10q0 23 6 49q7 32 24.5 72.5t41.5 84t54 88.5t61.5 85.5t64 74.5t61.5 57q60 46 112 72.5t100 26.5
q56 0 89.5 -35.5t47.5 -90.5q7 -32 7 -71v-9q-1 -53 -16.5 -105t-42.5 -101.5t-64 -94.5t-81 -84q7 -8 21 -26t32.5 -39t39 -41t40.5 -33q-21 -6 -34 -9t-22 -4q-10 -2 -12 -2t-3 1q-10 0 -15 1l-16 6q-6 0 -13 4zM590 674h-8q-4 0 -8 -1q-28 -6 -58.5 -24.5t-61.5 -41.5
q-26 -18 -52.5 -44.5t-51.5 -55.5t-46.5 -57.5t-37.5 -50.5q-35 -51 -60.5 -103.5t-37.5 -104.5q-6 -26 -6 -44q0 -23 8 -37q6 -14 22 -20.5t39 -6.5q8 0 25.5 4.5t39 12t45.5 16.5t45 17q21 9 31.5 14.5t12.5 14.5q1 1 1 4q0 6 -5 18q-3 7 -7.5 16.5t-11.5 22.5
q-8 11 -8 26q-1 1 -1 2q0 14 6 26q6 14 16 21q5 4 14 4q7 0 10 -1q14 -5 29.5 -23.5t31.5 -57.5l25 32q25 29 50 67t45 78.5t33 79t13 68.5q0 40 -10 70v-1q-15 39 -37 52q-18 8 -34 8z" />
    <glyph glyph-name="R" unicode="R" horiz-adv-x="556" 
d="M583 737q40 -19 61 -50t26 -68q1 -8 1 -16v-16q0 -20 -3 -39q-9 -38 -35 -71t-61.5 -60t-78 -48.5t-84.5 -36.5q3 -15 6 -26.5t7.5 -25.5t11 -33t15.5 -48q7 -21 16 -44.5t16.5 -46t13 -43t6.5 -36.5v-2q0 -20 -13 -27q-11 -4 -22 -4q-14 0 -27 8q-20 14 -40 71
q-24 75 -37.5 119t-20.5 67t-10 29.5t-6 6.5q-11 0 -26 -2.5t-30.5 -7t-30.5 -11t-27 -15.5l-41 -69q-28 -47 -44 -73.5t-27 -45t-20 -34t-22 -39.5l-11 129q0 3 2 11t7.5 23t15.5 37.5t26 54.5q32 60 61.5 113t64.5 116q16 29 28 53.5t22 42.5q12 27 34.5 57t51 55t59 42
t59.5 18q5 1 11 1h11q51 0 84 -16zM598 599q0 22 -13 38q-28 30 -56 37q-5 1 -10.5 1.5t-10.5 0.5q-18 0 -34 -6q-27 -11 -52.5 -35.5t-48.5 -55.5t-43 -66t-35 -67q-14 -30 -24.5 -47t-10.5 -16q0 -14 19 -14l1 1q16 0 40.5 7t53.5 19t59.5 27.5t56.5 32t45 32.5t26 30
q31 40 36 70q1 4 1 11z" />
    <glyph glyph-name="S" unicode="S" horiz-adv-x="719" 
d="M97 30q-35 20 -53 45q-16 22 -16 59v8q3 15 10 24t17 13.5t21 6.5t22 3q0 -69 33 -91q32 -19 72 -22q7 -1 13 -1.5t13 -0.5q14 0 27.5 1.5t27.5 3.5q42 7 84.5 22.5t81.5 35.5q33 16 62.5 36.5t51 44.5t34 50.5t12.5 54.5q0 6 -2.5 14.5t-10.5 17.5t-23 17.5t-39 13.5
q-10 2 -22.5 3t-27.5 1h-18q-9 0 -19 -1q-8 -1 -16 -1h-33q-9 0 -18 1q-37 2 -67 17t-46 48q-9 19 -9 49q0 10 1 21t3 23q6 31 21 60.5t42.5 55t68.5 45t98 31.5q25 5 46 5q8 0 16 -0.5t16 -1.5q57 -9 107 -37t83 -64l-119 -14q-18 8 -37 14.5t-39 12.5q-20 4 -44 4
q-12 0 -24 -1t-23 -3q-45 -9 -92 -45q-11 -9 -20.5 -18.5t-15.5 -22.5q-2 -5 -3 -10t-3 -11q-1 -4 -2 -9t-2 -12q-1 -4 -1.5 -7t-0.5 -7t0.5 -7t1.5 -7q2 -15 12 -26t31 -12q32 -2 65.5 -2.5t64.5 -2t57.5 -4.5t44.5 -10q88 -31 88 -112q0 -41 -14.5 -76.5t-41 -66.5
t-62.5 -58.5t-78 -52.5q-139 -73 -279 -73q-71 0 -128 28z" />
    <glyph glyph-name="T" unicode="T" horiz-adv-x="462" 
d="M481 588q-19 -42 -51 -103q-1 -3 -10 -22t-23.5 -49t-33 -68t-38 -78.5t-39 -80t-35.5 -72.5q-7 -14 -19.5 -39.5t-41.5 -51.5l-85 -24q57 128 127.5 263.5t136.5 268.5q14 29 26 52t17 41q-39 -8 -58 -13t-31 -8t-24.5 -5t-39.5 -5h-5q-7 0 -10 1q-20 5 -27 20
q-4 5 -4 14v4q0 11 6.5 19t22.5 15t43.5 13.5t69.5 14.5l190 35q26 4 49 8t46.5 8t50 8.5t58.5 9.5q3 0 13.5 -0.5t15.5 -0.5l-44 -70q-38 -10 -59.5 -15.5t-36 -8.5t-25.5 -5t-29 -5l-66 -15q-18 -14 -37 -56z" />
    <glyph glyph-name="U" unicode="U" horiz-adv-x="637" 
d="M81 70q-17 30 -18 72q-1 5 -1 9v8q0 33 7 57q10 45 35 102.5t63 121.5q18 28 43.5 60t53 61t54 51t46.5 30q4 1 7 1.5t6 0.5q8 0 12 -4q11 -9 13 -21v-2q0 -10 -5 -22q-6 -12 -15.5 -23t-18.5 -18q-47 -35 -84 -84.5t-64 -100t-43 -94.5t-21 -67q-5 -25 -5 -42
q0 -34 16 -56q25 -36 95 -36q90 0 169 85q18 18 38 42.5t39.5 53t37.5 59.5t32 62q11 24 20.5 55.5t17.5 69.5q12 64 12 141v30l66 99q3 -14 5 -36t3 -45.5t1.5 -46t0.5 -36.5q-1 -45 -12 -92q-10 -43 -26.5 -94t-38 -101t-47.5 -95.5t-55 -77.5q-66 -76 -139.5 -111.5
t-173.5 -35.5q-89 0 -126 70z" />
    <glyph glyph-name="V" unicode="V" horiz-adv-x="452" 
d="M257.5 196q-13.5 -20 -26.5 -46q-20 -42 -36 -71.5t-28 -49.5q-8 -12 -20 -20.5t-26 -8.5q-50 0 -50 108v30q0 10 1 11q2 33 9.5 96.5t19.5 148.5q10 72 18 127.5t11 78.5q3 20 9 41.5t26 32.5q7 4 19 4q6 0 16 -2q9 -2 17.5 -12.5t11.5 -33.5q1 -4 1 -14
q0 -5 -0.5 -11.5t-1.5 -13.5q-2 -16 -4.5 -35.5t-5.5 -39t-6.5 -37.5t-6.5 -31q-9 -40 -22 -92.5t-19 -101.5q-2 -12 -3 -23t-1 -21v-9q0 -4 1 -8q26 37 54.5 82.5t54.5 81.5q17 23 35.5 49t49.5 68.5t80.5 107.5t128.5 166q1 2 15.5 7.5t35 12t44 13t43.5 10.5
q-15 -15 -44.5 -50t-67.5 -81.5t-81 -102t-84.5 -112.5t-78.5 -112t-63 -101q-12 -16 -25.5 -36z" />
    <glyph glyph-name="W" unicode="W" horiz-adv-x="631" 
d="M646.5 461.5q-16.5 -33.5 -30 -62.5t-26 -55.5t-26.5 -55.5t-31 -63t-40 -77q-26 -50 -44 -86t-33 -53q-8 -9 -17 -9h-3q-12 2 -22 17.5t-18 39.5t-14.5 54t-11.5 62q-2 20 -3.5 33.5t-2.5 25.5t-2.5 26t-3.5 35q-16 -20 -29.5 -38t-27.5 -38q-22 -30 -40.5 -58
t-34.5 -56q-6 -13 -16.5 -30t-22.5 -32.5t-24.5 -27t-22.5 -13.5h-6q-15 0 -23 17q-10 18 -13 51q-1 10 -1.5 20t-0.5 21v10q0 6 1 11q1 16 1 28v23q1 33 7 71.5t12.5 81t13.5 88t12 93.5q3 34 3 69q0 14 -0.5 29t-1.5 29q-1 2 -1 5q0 7 7 14q8 8 23 10h2q14 0 27 -10
q14 -11 20 -41q8 -34 8 -61v-9q0 -4 -1 -8q-2 -29 -8 -60t-13 -71t-13 -93t-8 -125q13 18 35 50.5t46 68.5q6 10 19 29t29 40t33.5 40.5t33.5 30.5q13 9 26 9h3q13 -1 19 -22q5 -12 7.5 -45t5 -70t6 -69t9.5 -44q1 -6 6 -6q2 0 7 6q20 32 38 65.5t37 68.5q9 18 24 46.5
t32.5 61t34 64.5t28.5 57q19 39 33 67t24.5 46t18 28t12.5 14l103 51l-132 -243q-22 -42 -38.5 -75.5z" />
    <glyph glyph-name="X" unicode="X" horiz-adv-x="528" 
d="M412.5 312q-13.5 -14 -23.5 -24q-19 -19 -19 -27v-1q13 -45 27.5 -80.5t27.5 -62.5t23 -46.5t13 -33.5q1 -3 1 -7q0 -14 -13 -21q-17 -9 -31 -9q-8 0 -12 1q-21 6 -45 45q-15 25 -34.5 66.5t-32.5 80.5q-24 -23 -61.5 -56.5t-85.5 -82.5q-20 -18 -30.5 -32.5t-23.5 -19.5
q-8 -2 -15 -2h-5q-15 3 -20 12q-4 5 -4 15q0 5 1 8q4 27 37.5 65t81.5 86q30 29 53 49t34 35q5 8 5 15v4q-17 84 -28.5 149t-17.5 124q-1 4 -1 12q0 12 4 19q4 10 11 14t14 4h16q16 0 23 -7q7 -8 12.5 -22.5t10.5 -39t11 -60t16 -84.5q3 -14 5 -24.5t6 -16.5q0 -2 3 -3
q18 21 41.5 48t47.5 54.5t46.5 53t39.5 43.5q43 45 94 98.5t108 107.5l-8 -85q-2 -14 -6 -26t-15 -23q-10 -11 -28 -31.5t-41 -47t-48.5 -56t-50 -57t-46.5 -51.5t-37 -39q-17 -17 -30.5 -31z" />
    <glyph glyph-name="Y" unicode="Y" horiz-adv-x="458" 
d="M126 -98q-9 -4 -19 -4q-9 0 -16 4q-14 6 -19 23q-2 6 -2 8q0 14 12 34q29 48 64 96.5t61 102.5q2 2 2.5 4t1.5 4q-45 52 -67 98t-28 100q-3 25 -3 55q0 7 1 10q0 25 2.5 49t7.5 45t12 36.5t17 23.5q8 8 17 9h19q15 -1 17 -26v-9q0 -11 -0.5 -24t-1.5 -29q-3 -32 -3 -68
q0 -9 1 -14q0 -45 15 -87q4 -28 18.5 -51.5t29.5 -36.5q34 47 68 102t66 112.5t61.5 113.5t53.5 106q10 6 23 15t26 18.5t24 18t19 13.5t9 5v-1q-16 -45 -41.5 -104t-65.5 -149q-19 -36 -46 -83.5t-57.5 -100t-64 -107.5t-66 -106.5t-61.5 -97t-52 -79.5q-15 -23 -35 -29z
" />
    <glyph glyph-name="Z" unicode="Z" horiz-adv-x="613" 
d="M592.5 472q-31.5 -22 -57.5 -39l11 -4q7 1 30.5 4t55.5 8q12 -1 18.5 -6.5t9.5 -13t3.5 -15t0.5 -13.5q-2 -8 -6.5 -15t-12.5 -12q-14 -7 -39 -12.5t-55 -8.5q-48 -5 -78 -7.5l-48 -4t-27.5 -2.5t-16.5 -2l-105 -90q-68 -53 -108 -96q-40 -40 -40 -69v-3q2 -11 18 -11
q3 0 5 1q14 1 35.5 6t44 12.5t43.5 15.5t35 14q111 52 176 52l86 -10q-34 -24 -95.5 -53t-139.5 -54q-72 -26 -123.5 -37.5t-71.5 -14.5q-6 -1 -12 -1.5t-11 -0.5q-15 0 -28 5q-20 6 -34 20q-15 15 -15 41q0 46 41.5 98t110.5 112q14 12 32.5 28t29.5 27h-20q-6 0 -15 1
t-18 3t-16.5 4.5t-10.5 6.5l-54 64q30 -5 69.5 -6.5t71.5 -1.5h20q10 0 18 1h7q5 0 9 0.5t9 1.5q11 1 18 5q19 10 45.5 29t54.5 39l150 101q15 13 31.5 27.5t31.5 28.5t26 26t15 20q2 4 2 5q0 4 -7 4h-2q-24 -2 -66 -10t-96 -25q-14 -5 -30.5 -10t-33.5 -11
q-23 -8 -55 -16.5t-59 -10.5q-4 -1 -12 -1q-20 0 -30 7q-8 5 -8 15q0 8 6 22q14 15 45.5 29.5t71.5 27t86 22.5t89 17.5t79.5 11.5t58.5 4q30 0 44 -12q8 -5 12 -14t4 -26v-1q-1 -3 -2 -8l1 1q-15 -70 -148 -179q-23 -19 -54.5 -41z" />
    <glyph glyph-name="bracketleft" unicode="[" horiz-adv-x="424" 
d="M78 -90q-17 2 -34 6q-12 2 -17 14t-5 26q0 7 2 17q5 15 12.5 35.5t19.5 43.5q28 58 51 105t44 90.5t41.5 89t43.5 101.5q10 27 19 60.5t17 63t15 50t13 22.5q18 6 42.5 10t50.5 6t50.5 3t42.5 1q33 0 60 -13q-35 -59 -114 -68q-53 -6 -69 -31q-3 -5 -11 -23.5t-19 -44
t-23.5 -55.5t-24 -58t-21 -51t-14.5 -34l-105 -273l4 -3q6 -2 13 -4t19.5 -3t33.5 -1.5t55 -0.5q14 -2 37 -4t44 -2q-69 -60 -166 -73q-19 -2 -37.5 -3t-35.5 -1t-34 2z" />
    <glyph glyph-name="backslash" unicode="\" horiz-adv-x="354" 
d="M184 118.5q-8 31.5 -16 63.5t-16.5 63t-15.5 57q-17 61 -26 114t-24 95q-2 10 -5.5 21.5t-6.5 25.5q-1 0 -1 1l2 5q3 15 14 26t48 25q5 -12 14.5 -43.5t19.5 -63.5q5 -16 10.5 -34.5t11.5 -38.5q18 -61 33 -111.5t23 -84.5q6 -26 12.5 -55t12.5 -56.5t9.5 -51t3.5 -38.5
l-6 -57q-40 9 -59 29.5t-24 50.5q-6 26 -14 57.5z" />
    <glyph glyph-name="bracketright" unicode="]" horiz-adv-x="602" 
d="M414 17.5q-4 -13.5 -9 -21.5q-17 -32 -40 -40.5t-55 -8.5q-5 0 -26 -3t-47 -8t-52 -11t-41 -12q-17 -7 -35.5 -10.5t-32.5 -3.5l-39 24q12 25 53 44.5t95 30.5q13 2 36.5 6t48.5 12.5t45.5 23t26.5 37.5q12 43 34 107.5t45 132.5t42 129t25 97q2 8 2 11q0 5 -3 8
q-4 4 -14 4q-4 0 -7 -1q-25 -2 -50 -3t-50 -3q-26 0 -44 -1t-33 -2.5t-29.5 -3t-32.5 -2.5q-12 0 -19 4t-9 20q0 24 19.5 34.5t38.5 10.5q30 0 77 4t96.5 9t96 10.5t75.5 8.5q-8 -32 -22 -79.5t-31 -98.5l-127 -431q-4 -11 -8 -24.5z" />
    <glyph glyph-name="asciicircum" unicode="^" horiz-adv-x="575" 
d="M368 610.5q-15 17.5 -39 55.5q-23 -23 -45 -47t-42.5 -46.5t-38.5 -41.5t-31 -31q-12 -12 -20.5 -19t-16.5 -12.5t-16.5 -9t-19.5 -7.5q-3 -1 -9 -1q-11 0 -18 7q-12 12 -13 18v4q0 11 9 25q7 11 17.5 22.5t20.5 21.5t18.5 17.5t11.5 11.5q60 63 103 115q13 18 27 33
q16 20 33.5 42t43.5 66q15 -36 33 -69.5t37.5 -67l39 -67t37.5 -68.5q7 -15 12 -27q3 -11 3 -19v-3q-2 -20 -37 -24q-14 0 -32 26.5t-45 66.5q-8 11 -23 28.5z" />
    <glyph glyph-name=".0095" unicode="_" horiz-adv-x="670" 
d="M63.5 -44.5q16.5 -0.5 34.5 -0.5h54q5 0 8 1q9 0 19 0.5t18 0.5h34q2 1 11 1h51q28 -1 56 -1.5t59 -3.5q10 -1 21.5 -1.5t25.5 -0.5h42q12 0 15 1h54q25 -2 42 -3q9 -2 13 -3.5t6 -2.5q3 -4 5 -6t7 -14q-2 -4 -3.5 -7.5t-3.5 -7.5q2 -2 4 -3.5l6 -4.5q-58 -31 -121 -31
h-25q-7 0 -9 1q-1 1 -6 1h-11l-27 -3q-6 -1 -13.5 -1.5t-12.5 -0.5q-1 -1 -9 -1h-21q-36 7 -65 9h-14q-28 0 -62 -3q-26 -2 -49 -3t-43 -1h-7l-1 -1q-3 0 -5 2q-48 0 -77.5 2.5t-41.5 4.5q-2 0 -3 0.5t-2 0.5q-23 0 -42 13h2q-24 11 -35 35l11 25q12 5 27 6.5t32 1.5h21
q14 -1 30.5 -1.5z" />
    <glyph glyph-name="grave" unicode="`" horiz-adv-x="336" 
d="M151.5 723.5q7.5 8.5 24.5 8.5q8 0 12.5 -3.5t10 -11.5t13.5 -22t23 -35q24 -35 38 -55.5t21.5 -36t9.5 -30t2 -38.5q-25 7 -50 20t-46 29t-36 32t-21 29q-8 19 -11.5 36.5t-3.5 34.5q6 34 13.5 42.5z" />
    <glyph glyph-name="a" unicode="a" horiz-adv-x="600" 
d="M610 28q-24 -21 -53.5 -24t-58.5 -4q-26 0 -43 3.5t-38 10.5q-23 10 -39 18t-30 19q-2 2 -4 3.5t-4 3.5q-20 -12 -53 -22.5t-68.5 -18t-69 -12t-54.5 -4.5q-26 0 -42.5 7.5t-30.5 15.5q-6 4 -10 13.5t-6 21.5q-1 5 -1.5 10t-0.5 10q0 4 1 6q0 13 3 25q6 35 25 74t47 77
t64 73.5t76 63.5t82.5 47t84.5 25q7 1 13.5 1.5t13.5 0.5q35 0 69 -14q21 -9 41 -34t22 -67v-6q0 -30 -9 -57q-17 -47 -44 -83.5t-49 -62.5q-5 -12 -6 -28q-1 -2 -1 -6q0 -12 10 -19q26 -17 51 -27.5t63 -10.5q11 0 24 3.5t24 6.5q15 -5 15 -15q0 -1 -2 -7zM336 146
q15 10 36.5 29t42 45.5t37 59.5t21.5 71v3q0 10 -4 18q-9 14 -25 25t-30 11q-22 0 -53.5 -11.5t-63.5 -28.5t-67 -48.5t-66 -68.5t-53 -73.5t-27 -62.5q-2 -8 -2 -12q0 -12 8 -20q13 -13 40 -13h8q23 1 50 8.5t51.5 16.5t45 19t30.5 17z" />
    <glyph glyph-name="b" unicode="b" horiz-adv-x="491" 
d="M98 42h1q-6 5 -15.5 8.5t-14.5 8.5q-43 -33 -62 -39q-8 -3 -14 -3q-7 0 -8 4q-3 3 -3 8t4 12q4 12 10 18l15 24q5 8 10.5 16t13.5 19q10 19 31 62.5t55 109.5q7 12 21.5 40t33.5 66t41.5 82t44 87.5t41.5 83t35 68.5q4 6 8 11.5t12 11.5t23 12.5t41 14.5q4 2 5 3v-1
l-1 -3q-2 -6 -8.5 -22t-18.5 -49q-1 -2 -11 -23.5t-25 -54.5t-34 -73t-38 -79t-36.5 -73t-29.5 -54q23 26 40.5 40t34.5 29q57 36 101 36q6 0 11.5 -0.5t10.5 -1.5q52 -12 68 -69q0 -2 2.5 -19t2.5 -37q0 -7 -0.5 -12.5t-1.5 -10.5q-2 -17 -8.5 -41.5t-19.5 -52.5t-33 -58
t-50 -58q-26 -26 -47.5 -42t-42.5 -25t-42.5 -12t-47.5 -3q-49 0 -105 41zM396.5 372.5q-3.5 0.5 -8.5 0.5q-7 0 -11 -1q-14 -3 -32 -14q-48 -29 -80 -63.5t-54 -60.5q-23 -28 -43 -58t-31 -68q13 -1 26 -8q19 -10 36 -16.5t30 -6.5q28 1 60 17t56 48q32 36 57.5 79.5
t28.5 100.5q0 19 -7.5 31.5t-19.5 17.5q-4 1 -7.5 1.5z" />
    <glyph glyph-name="c" unicode="c" horiz-adv-x="511" 
d="M430.5 6.5q-35.5 -5.5 -77.5 -6.5h-55q-13 0 -27 1q-20 1 -38 3t-33 4q-79 12 -131 57q-31 26 -41 67q-7 24 -7 49q0 16 3 33q10 49 38 88.5t66 69.5t83 50t90 30q54 12 101 12h13q32 -2 53 -14.5t32 -40.5q9 -20 9 -49q0 -21 -3.5 -43.5t-10.5 -42.5t-16 -36t-21 -24
q-22 -16 -39 -19q-10 -2 -14 -2q-6 0 -12 2q-11 3 -12 12q-1 1 -1 5q0 6 3 12t7.5 16t9.5 21q5 13 9 21t8 15q7 17 10 29t4 18q5 13 5 22v2q-2 17 -9.5 25.5t-14.5 8.5q-5 1 -10.5 1.5t-12.5 0.5q-26 0 -62 -9q-54 -14 -121 -56q-38 -23 -65 -60q-24 -35 -30 -63
q-3 -14 -3 -28q0 -9 1 -18.5t3 -19.5q4 -29 27 -43q38 -26 115 -39q23 -2 41 -4t30 -3q8 -1 16 -1.5t16 -0.5h12q42 2 76.5 4.5t54.5 7.5q4 1 7.5 1.5t8.5 1.5h2q6 0 11 -3q4 -1 4 -7v-3q-1 -6 -15 -20l-31 -19q-21 -10 -56.5 -15.5z" />
    <glyph glyph-name="d" unicode="d" horiz-adv-x="611" 
d="M699 517q-12 -23 -29 -53t-34.5 -61.5t-33 -60.5t-25.5 -50q-5 -11 -12.5 -26.5t-17.5 -35.5l-8 -18t-9 -20q-5 -9 -17 -34t-26.5 -53.5t-29.5 -54.5t-26 -37q-3 -4 -6.5 -7t-7.5 -6h-14q-13 0 -22 3q-13 6 -13 25l15 33q0 1 0.5 2t0.5 2l-4 -4q-14 -11 -28.5 -21
t-30.5 -15q-22 -7 -56 -13.5t-72 -8.5q-6 -1 -12 -1h-11q-13 0 -26 1t-26 3q-37 4 -64.5 18.5t-40.5 41.5q-9 16 -9 38q0 16 4 31q14 57 53.5 116t99.5 107q51 39 109.5 67t116.5 28q15 0 31 -3.5t31.5 -10t29.5 -15t23 -18.5q7 -11 12.5 -23t10.5 -24q8 14 18 29.5t20 32.5
q14 25 27 48t21 39q25 51 48.5 91t45.5 69v-1q59 87 143 121q-17 -42 -31.5 -73t-31.5 -56zM349.5 383.5q-17.5 -4.5 -38.5 -14.5t-46 -26t-58 -39q-63 -45 -88 -89.5t-33 -90.5q0 -15 9.5 -25.5t26 -17t38.5 -9.5t46 -3q3 0 23 0.5t47 6t56.5 17.5t51.5 35q10 10 16.5 16
t20.5 26q26 29 40 89q7 18 7 45q0 26 -9 46q-9 19 -29.5 28.5t-45.5 9.5q-17 0 -34.5 -4.5z" />
    <glyph glyph-name="e" unicode="e" horiz-adv-x="528" 
d="M194 199q-20 0 -39.5 1.5t-36.5 5.5q-11 -8 -21.5 -27.5t-16.5 -44.5l-1.5 -7.5t-0.5 -3.5q0 -25 34 -41q17 -8 40.5 -13t46.5 -5q31 0 69 6t76 17q15 3 26.5 6t24 7.5t30 11t44.5 16.5q31 9 43 9h3q2 -2 2 -3q0 -6 -17 -23q-11 -11 -17.5 -17t-11.5 -10.5t-10.5 -8
t-14.5 -9.5q-17 -8 -37.5 -19.5t-43.5 -19.5q-40 -14 -78.5 -20.5t-76.5 -6.5q-90 0 -133 15q-73 25 -73 87v3q0 63 41 127q42 64 126 129q58 46 116 62t119 16q34 0 60.5 -10t35.5 -38q1 -5 1.5 -9.5t0.5 -9.5q0 -13 -4 -28q-11 -36 -42.5 -62.5t-73 -44.5t-88 -27.5
t-86.5 -10.5h-16zM333 366q-37 -12 -85 -38q-17 -9 -27.5 -15.5t-18 -12t-12 -10.5t-9.5 -11h30q18 0 43 2t51.5 7.5t52.5 15t46 24.5l18 18q7 6 7 17q0 3 -2 11q0 1 -1 2h1q-8 3 -27 3q-30 -1 -67 -13z" />
    <glyph glyph-name="f" unicode="f" horiz-adv-x="467" 
d="M705 606q-5 -17 -14 -33t-20 -30q-18 -14 -42.5 -25t-38.5 -13h-3q-7 0 -7 6q6 13 14 27.5t15.5 27.5t14 24t8.5 17q1 5 1.5 10t0.5 10q0 11 -3 22q-12 37 -51 45q-10 2 -16 2q-13 0 -25 -4q-21 -5 -37.5 -15t-32 -29t-32.5 -48.5t-39 -73.5v1q-28 -54 -50.5 -103
t-43.5 -97q7 -1 13 -1.5t13 -0.5h28q33 -2 52.5 -3t30 -2.5t15 -3t6.5 -3.5q2 -5 3.5 -9.5t1.5 -15.5q-4 -10 -15.5 -21t-22.5 -16q-9 0 -24 0.5t-30 0.5q-1 1 -8 1q-24 0 -40 -0.5t-25.5 -1t-14 -1t-7.5 -0.5q-22 -51 -39 -88.5t-28 -66.5q-20 -51 -36.5 -72t-35.5 -21
q-12 0 -22.5 6t-15.5 16q-2 5 -3 10.5t-1 9.5q0 16 1 17q4 16 10 32.5t17 36.5q21 42 35.5 72.5t17.5 41.5q-18 1 -30 2t-22 2t-20.5 1.5t-25.5 0.5h-33q-1 -1 -3 -1q-12 0 -16 4q-9 7 -14.5 10.5t-5.5 14.5q0 14 6.5 23t23.5 19q5 1 12 1h15q18 0 37 -0.5t38 -0.5
q27 1 41 1.5t21 2t9.5 6t7.5 14.5q16 33 26.5 55t18 38t13.5 28l12 24q29 58 55.5 104t49.5 78q75 105 180 105h12q6 0 12 -1q36 -6 62 -27.5t40 -61.5q7 -24 7 -48q0 -20 -4 -32z" />
    <glyph glyph-name="g" unicode="g" horiz-adv-x="565" 
d="M551 324.5q-3 -13.5 -6.5 -29.5t-9.5 -33.5t-15 -33.5q-4 -7 -8 -13.5t-9 -15.5t-13 -22t-20 -34q-11 -17 -34 -49.5t-51 -87.5q-40 -81 -77.5 -143t-72.5 -92q-52 -45 -116 -58q-37 -8 -69 -8q-30 0 -61 6q-18 4 -41 11t-45.5 17t-41 23.5t-28.5 31.5q-9 15 -9 33
q0 3 1 5q2 23 20 47q2 3 7.5 11t13 17.5t15.5 19t16 14.5l-1 -72q0 -18 8.5 -32t23 -24.5t33 -17t39.5 -9.5t43 -3h11q45 1 73.5 8.5t54 30.5t53.5 68t72 121q14 25 29.5 49t25.5 54q-12 -6 -26.5 -12.5t-31.5 -14.5q-7 -3 -22.5 -7.5t-36.5 -9t-45.5 -7.5t-49.5 -3t-48 4
t-41 14.5t-29.5 27t-12.5 42.5q3 23 16 52.5t35.5 61.5t54 64t71.5 60q39 26 72 41t61 22.5t52 9.5t45 2q55 0 93 -23q19 -14 30 -33q8 -18 8 -46v-12q-3 -9 -6 -22.5zM325 378q-36 -14 -90 -51q-22 -17 -43 -37.5t-38.5 -42t-30 -41.5t-17.5 -36q-3 -8 -3 -14q0 -11 8 -17
q16 -11 44 -11q1 -1 5 -1q27 0 57 6q32 6 63.5 16t51.5 20q15 7 23 15q10 8 28.5 28.5t37.5 45.5t35 49.5t22 40.5q2 8 2 10q0 4 -3 6q-2 20 -19.5 25t-64.5 5q-32 -2 -68 -16z" />
    <glyph glyph-name="h" unicode="h" horiz-adv-x="484" 
d="M351.5 -7.5q-15.5 -11.5 -35.5 -13.5q-17 7 -24 17t-8 21v6q0 6 2 16q1 10 5 19q5 14 17.5 44t30.5 62q3 5 6 10.5t6 11.5q7 13 15 27.5t15.5 27.5t12.5 24t6 17q1 7 1.5 11t0.5 6q0 4 -1 5h-1q-1 -1 -2 -1q-12 0 -29.5 -9t-36.5 -22.5t-38.5 -29.5t-34.5 -29
q-11 -10 -37.5 -38.5t-68.5 -74.5q-65 -73 -126 -98q-5 -1 -8.5 -1.5t-7.5 -0.5q-7 0 -11 3q-6 4 -6 15q0 3 1 4q1 13 8.5 31t18 36.5t21.5 37t19 32.5q6 10 30.5 53.5t66.5 112.5q5 9 9.5 20.5t9.5 19.5q9 16 18 31t20.5 36t27.5 51.5t39 77.5q8 18 23.5 44t36.5 57
q7 10 22.5 27.5t32.5 35.5t34 33t27 21l1 1v-4q-2 -8 -7 -30t-13 -46q-19 -61 -52 -118.5t-65 -125.5q-29 -49 -54.5 -95.5t-43.5 -84.5q-1 -2 -2 -3.5t-2 -3.5q17 14 32.5 27.5t27.5 24.5q8 8 13.5 13t15.5 11q79 46 123 46q42 0 57 -36q4 -8 4.5 -15.5t0.5 -15.5
q-17 -47 -27.5 -74.5t-16.5 -42.5t-9 -21t-4 -9l-1 -1q-23 -48 -35.5 -75t-18 -40t-6.5 -16.5t-1 -5.5q-9 -35 -24.5 -46.5z" />
    <glyph glyph-name="i" unicode="i" horiz-adv-x="268" 
d="M202 406q6 5 12 8t13 4t19 2q1 -4 1 -13q0 -5 -0.5 -10t-1.5 -10q-3 -15 -11 -40q-12 -36 -27 -69t-22 -48q-2 -6 -7 -20.5t-21 -55.5q-6 -10 -13.5 -27.5t-17 -37.5t-20 -39.5t-22.5 -32.5q-15 -17 -32 -17h-3q-19 1 -21 23q-1 2 -1 7q0 21 7 43q7 28 19.5 57.5
t21.5 47.5q9 22 23 53t29.5 62t31 58t27.5 41q10 9 16 14zM346 589v-4q-1 -5 -1 -11v-12q0 -6 -2 -17t-5 -16q-8 -17 -20.5 -30t-35.5 -13q-8 0 -18 4.5t-13 18.5q-3 13 -3 23v4q2 11 13 27q10 17 29.5 28.5t51.5 22.5q4 -13 4 -25z" />
    <glyph glyph-name="j" unicode="j" horiz-adv-x="292" 
d="M-84 -335.5q-31 -17.5 -69 -24.5q-11 -3 -22 -3q-18 0 -33 9q-24 12 -38.5 35.5t-20.5 52.5q-4 15 -4 34q0 5 0.5 10.5t1.5 10.5q6 51 22 93.5t35 63.5q3 3 10 8.5t15 8.5q6 2 9 2q4 0 6 -1q6 -1 11 -14q-8 -39 -19.5 -79t-16.5 -85q-1 -5 -1 -13q0 -4 1 -5q0 -7 2 -13
q9 -12 26 -19q10 -5 20 -5q12 0 24 4q25 8 55.5 39t62.5 99q10 23 25 57t32.5 73t36.5 80.5t35.5 79.5t30.5 70t22 53q1 1 5 12t12 28q14 38 28 59.5t41 38.5h1q2 0 4 -5q5 -15 5 -39v-18q-3 -41 -20.5 -93.5t-41 -109t-49 -113t-44.5 -105.5q-29 -61 -51.5 -100.5
t-40.5 -65.5t-31.5 -41t-23.5 -27q-22 -25 -53 -42.5zM359 553q0 -6 -2 -17t-5 -16q-8 -18 -21 -32t-45 -14q-8 0 -18 4.5t-13 18.5q-3 10 -3 22q0 7 1 11q1 15 14 32q10 17 29.5 28.5t51.5 22.5q11 -38 11 -60z" />
    <glyph glyph-name="k" unicode="k" horiz-adv-x="468" 
d="M358 314.5q-17 -13.5 -34 -28.5q2 -12 6 -27.5t8.5 -32t9.5 -31t9 -23.5q14 -34 25.5 -59t19.5 -41q15 -32 15 -45v-2q-10 -19 -29 -25q-8 -2 -11 -2q-14 0 -31 14q-1 7 -11.5 27.5t-25.5 52t-32 73.5t-32 91q-3 -3 -11 -13.5t-16.5 -24t-16.5 -27.5t-12 -26
q-8 -10 -14.5 -18t-11.5 -16q-27 -39 -43 -63.5t-26.5 -39t-18.5 -20.5t-18 -8h-6q-3 0 -11 2q-8 3 -10 20v2q0 16 11 47q10 31 45 87q22 35 40 65t34 57t29.5 53t26.5 53q7 13 14 28t16 33q23 45 42.5 85t41.5 77.5t49 73t65 71.5l1 1q1 0 3 -9q1 -6 1 -13q0 -6 1 -14v-29
q-1 -7 -1 -11v-5q-6 -26 -19 -55.5t-28.5 -58t-31 -55t-25.5 -46.5l-59 -107q23 17 58 48.5t72.5 63.5t72.5 57t58 28q-1 -5 -1 -9v-8q0 -12 -3 -26t-14 -37q-9 -13 -26.5 -29t-38 -33.5t-40 -34t-32.5 -29.5q-17 -15 -34 -28.5z" />
    <glyph glyph-name="l" unicode="l" horiz-adv-x="282" 
d="M65 -1h-5q-26 0 -33 9q-8 8 -8 19q0 5 1 8q3 18 15 39.5t26.5 43t28 40.5t19.5 32q10 19 26 46t32 55t30 54.5t20 44.5q35 86 54.5 139t33 82t27 39t37.5 11l-4 -114q-17 -48 -40 -104t-47 -110t-46.5 -101t-38.5 -77q-80 -137 -128 -156z" />
    <glyph glyph-name="m" unicode="m" horiz-adv-x="571" 
d="M421 23q-38 -43 -73 -63q-6 18 -8 29t-2 13q5 32 28.5 77t62.5 111q6 10 14 27t16.5 36t15 36.5t8.5 28.5q1 2 1 6q0 6 -4 6q-1 0 -5 -2q-35 -25 -65 -52.5t-55 -56.5q-13 -14 -33.5 -43t-48.5 -74q-41 -66 -95 -101q-6 21 -9 34t-4 18q3 33 15.5 60t33.5 62
q20 29 31.5 54.5t16.5 59.5q-18 -15 -36.5 -35.5t-35.5 -46.5q-8 -11 -27.5 -40.5t-48.5 -80.5q-22 -36 -43 -59t-44 -29q-7 17 -8.5 26l-2.5 15q4 33 8 51t11 35q8 20 20.5 48t27.5 59q31 69 53 112.5t33 59.5q18 21 28 30t15 11q1 1 4 1q2 0 3 -1q1 -2 1 -6
q0 -23 -1.5 -50t-1.5 -41q0 -7 2 -7l1 1q11 9 27 22.5t32.5 25.5t32.5 20.5t27 9.5h1q15 0 15 -21q0 -2 -0.5 -14t-0.5 -14q-2 -14 -3 -26t-2 -25q-1 -1 -1 -5q8 8 19 18.5t39 33.5q71 59 112 62h8q23 0 34 -15q9 -15 9 -43v-10q-10 -45 -26.5 -98t-45.5 -119
q-38 -78 -76 -121z" />
    <glyph glyph-name="n" unicode="n" horiz-adv-x="429" 
d="M429 352q-9 -47 -28.5 -99.5t-42.5 -100.5q-15 -34 -28 -60.5t-29 -47t-36 -34.5t-49 -24l-5 12.5t-5 15.5q-3 7 -3 13q0 10 5 20q11 24 31 58.5t48 94.5q6 13 16.5 31t21 37t19 35.5t10.5 26.5q4 12 4 22q0 5 -2 11q-4 10 -17 10q-12 0 -29 -8t-35 -21t-34.5 -29.5
t-27.5 -33.5q-21 -31 -42 -69.5t-49 -87.5q-12 -20 -25.5 -44.5t-24.5 -44.5q-8 -14 -27 -25.5t-36 -22.5q-9 14 -10 19t-1 13v6q0 4 -1 9v5q0 16 10 45q9 23 22 50t25.5 51.5t22 42.5t11.5 23q7 16 17 37.5t21.5 44.5t22.5 45.5t20 40.5q8 15 24 30.5t30 15.5q11 0 15 -13
q5 -15 5 -27q0 -9 -1 -13q-2 -10 -4.5 -19.5t-5.5 -20.5q29 25 61.5 43.5t59.5 26.5q13 3 22.5 4.5t17.5 2.5h4q10 0 18 -3q7 -5 10 -14t6 -24q1 -5 1 -9v-9q0 -19 -3 -38z" />
    <glyph glyph-name="o" unicode="o" horiz-adv-x="535" 
d="M21.5 51q-9.5 18 -11.5 41v10q0 23 7 47q12 48 49 105t95 112q40 37 76.5 57.5t67.5 30.5t55.5 12.5t40.5 2.5q22 0 45.5 -12t42.5 -37t31 -62t12 -87q0 -57 -43.5 -105.5t-109.5 -90.5q-122 -74 -232 -74q-56 0 -96 18q-20 14 -29.5 32zM167 267q-24 -27 -42 -53
t-29.5 -50t-12.5 -43v-4q0 -23 19 -35q16 -10 48 -10q45 0 90 10.5t91 39.5q38 26 72 52.5t51 64.5q9 22 9 51v6q-1 13 -3 29t-9 29q-10 19 -26 29.5t-36 10.5q-33 0 -75 -15.5t-96 -59.5q-27 -25 -51 -52z" />
    <glyph glyph-name="p" unicode="p" horiz-adv-x="500" 
d="M131.5 267.5q9.5 13.5 24.5 32t36 39.5t46 41q25 19 50.5 33t51.5 22q27 9 55 9q24 0 53 -8q34 -15 57 -62q10 -21 10 -46v-2q-2 -38 -18 -76t-44 -73q-55 -81 -126.5 -120.5t-147.5 -52.5h-3q-56 0 -79 32q-5 7 -8 14.5t-5 16.5q-20 -29 -32.5 -52.5t-20.5 -40.5
q-15 -28 -34 -62t-38.5 -70t-38 -72t-33.5 -66q-13 -19 -22 -32t-25 -13q-5 -1 -12 -1h-4q-8 2 -20 17q3 26 9.5 50t23.5 57.5t47.5 83.5t80.5 128q3 6 16 28.5t33.5 56.5t47.5 78t58 93q2 4 11.5 17.5zM433 261.5q6 12.5 10 26.5q1 5 1.5 11t0.5 12v7q-2 16 -10 33
q-12 22 -31 28q-5 1 -9.5 1.5t-9.5 0.5q-11 0 -23 -3q-23 -7 -47 -21.5t-46 -31t-39 -33t-25 -26.5q-5 -7 -9 -13t-9 -12q-4 -7 -7 -13t-6 -11q-5 -8 -8.5 -15.5t-8.5 -16.5q0 -1 -1 -1q-3 -11 -4.5 -22t-2.5 -21v-26q0 -6 1 -13q2 -14 13 -21q11 -8 26 -8h4q28 2 62 19
t73 49q19 15 32 25.5t23.5 20.5t19 22t18.5 29v1q6 10 12 22.5z" />
    <glyph glyph-name="q" unicode="q" horiz-adv-x="458" 
d="M183.5 1.5q9.5 17.5 17.5 36.5q-27 -7 -53 -12.5t-47 -5.5h-5q-28 0 -44 9q-20 10 -30.5 27.5t-12.5 40.5q-1 5 -1 9v9q0 8 0.5 15t1.5 15q3 22 11 47.5t21.5 51t31.5 49.5t42 45q50 45 101.5 75t106.5 33h9q29 0 62 -11q33 -16 53 -66q7 -15 7 -34q0 -8 -1 -12
q-5 -35 -24.5 -71t-45.5 -76q-6 -9 -11 -17.5t-11.5 -19.5t-17.5 -27t-29 -40q-32 -43 -54.5 -75t-33.5 -55q-17 -27 -38 -60t-43 -67.5t-42.5 -69t-36.5 -63.5q-14 -19 -23.5 -31.5t-25.5 -12.5q-10 0 -15 1.5t-18 17.5q5 26 12.5 49.5t25.5 56.5t50.5 81t87.5 123
q13 17 22.5 34.5zM348 248q10 16 22 31.5t14 38.5v3q0 15 -7 30q-11 22 -30 30q-11 3 -23 3q-5 0 -9.5 -0.5t-9.5 -1.5q-23 -5 -47.5 -18t-47 -29t-40.5 -31.5t-27 -24.5q-23 -24 -36 -45.5t-19.5 -41.5t-8 -38t-1.5 -36q0 -13 11 -21.5t30 -8.5q56 0 139 59q20 14 32.5 25
t22 22.5t17 23.5t18.5 29v1z" />
    <glyph glyph-name="r" unicode="r" horiz-adv-x="417" 
d="M48 3q-9 -3 -16 -3q-10 0 -18 6q-12 18 -13 31q-1 4 -1 12q0 5 0.5 9t1.5 9q3 15 10.5 31.5t17.5 35.5q17 31 27.5 50t17 31.5t10.5 21.5t8.5 19.5t10.5 25t17 39.5q10 22 18 39.5t16 33.5q8 13 15.5 25.5t16.5 24t21 20.5t30 16q3 -8 3 -20q0 -11 -1 -21t-1 -17
q-1 -1 -1 -4q0 -2 1 -2q10 10 32.5 15t38.5 5q10 0 18 -2q22 -8 40 -16t31.5 -19.5t23 -27.5t15.5 -40q1 -2 1 -11q0 -7 -2 -15.5t-8 -14.5q-5 -5 -14 -5h-3q-20 3 -30 7.5t-17 11t-14.5 14t-21.5 16.5q-23 13 -50 13h-3q-29 -2 -54 -22q-12 -26 -21.5 -45.5t-19 -37.5
t-20 -37.5t-23.5 -45.5t-30 -61t-40 -84q-11 -8 -20 -11z" />
    <glyph glyph-name="s" unicode="s" horiz-adv-x="549" 
d="M3 83q-1 4 -1.5 7t-0.5 7q0 16 9 31q11 22 36.5 39t59.5 23q-3 -15 -14 -31t-14 -31v-6q0 -8 4 -15q12 -14 43.5 -21.5t71.5 -7.5t83 6.5t79 18.5t59.5 29.5t24.5 40.5q-1 7 -24.5 14t-54.5 14t-61.5 14t-45.5 14q-34 14 -52.5 27.5t-26.5 28.5q-8 14 -8 27q0 1 1 2
q0 15 4 30q1 19 25 36t60 29t79.5 19.5t83.5 8.5h7q14 0 27.5 -1t25.5 -3q33 -7 47 -31q9 -15 9 -39q0 -14 -3 -30q-23 11 -38.5 17.5t-23.5 8.5q-23 5 -46 5q-26 0 -54 -3q-9 -2 -23.5 -5.5t-30 -8.5t-29 -11t-19.5 -12q-4 -4 -4 -8q0 -5 9 -11q77 -24 122 -37.5t69 -20.5
t33.5 -11.5t14.5 -10.5q4 -5 7.5 -10.5t6.5 -12.5q4 -8 4 -18q0 -3 -0.5 -6t-1.5 -7q-5 -41 -38 -72.5t-81.5 -53.5t-105.5 -33t-110 -11q-41 0 -78 8q-28 6 -49 14t-35 17q-28 20 -32 43z" />
    <glyph glyph-name="t" unicode="t" horiz-adv-x="392" 
d="M574.5 464q-13.5 -3 -29.5 -5q-15 -2 -50 -2.5t-73 -0.5q-37 0 -67.5 -0.5t-37.5 -1.5q-7 -14 -21.5 -44.5t-40.5 -85.5q-4 -9 -13 -29t-21 -44.5t-25 -51t-24 -50.5t-20 -42l-12 -24q-12 -23 -31.5 -49t-42.5 -34q-8 -3 -13 -3q-10 0 -18 4q-10 7 -10 20q0 4 1 7
q3 18 13 39q5 12 16.5 41t33.5 74q13 26 32 62.5t38.5 75t37.5 74.5t29 60q-15 3 -30 3h-5q-3 -1 -7 -1q-7 0 -13.5 0.5t-11.5 1.5q-14 2 -23.5 9.5t-12.5 26.5q1 15 13 23t32 12.5t47.5 6t60.5 3.5q19 44 33 75.5t26 54.5t23.5 41.5t25.5 36.5l66 43h1q3 0 4 -4
q4 -11 4 -31q0 -10 -1 -13l-93 -201v-1q0 -3 7 -3q5 0 8 1q5 1 11 1h23q18 0 39.5 -0.5t43.5 -2.5t42 -5.5t34 -10.5q18 -9 18 -24v-2l-1 -18q-2 -9 -15.5 -12z" />
    <glyph glyph-name="u" unicode="u" horiz-adv-x="501" 
d="M517 434q5 -10 6 -31.5t1 -38.5v-16q-2 -9 -9.5 -29t-16 -41.5t-17 -40t-12.5 -25.5q-17 -30 -28.5 -50t-23 -35t-24.5 -28.5t-33 -30.5q-49 -42 -101 -54t-109 -12q-52 0 -89.5 28t-42.5 90q-1 5 -1 14q0 36 14 84q21 55 54 101q27 36 43.5 56t29.5 31t25.5 16t31.5 10
l3 -12v-8q0 -14 -8 -54q-6 -11 -9.5 -16t-9 -11.5t-15 -18.5t-27.5 -37q-23 -29 -38.5 -61.5t-15.5 -67.5q0 -28 7 -42q13 -24 48 -24q33 0 61.5 5t57.5 18q29 12 56 41.5t52 70t48.5 89t45.5 98.5q4 4 14.5 12t31.5 20zM473 406l-2 -4q1 1 1 2t1 2z" />
    <glyph glyph-name="v" unicode="v" horiz-adv-x="391" 
d="M466 427q-1 -11 -8 -21.5t-18 -20.5t-25 -20.5t-27 -21.5q-6 -5 -10 -8.5t-12 -8.5q-31 -20 -63.5 -56t-61 -77t-51 -81.5t-33.5 -68.5q-17 -32 -33 -42q-11 -6 -22 -6q-3 0 -11 2q-14 1 -20.5 20.5t-10.5 65.5t-7 123t-11 194q2 20 16 34t31 26q14 -23 22 -35.5
t12 -18.5t5 -8t1 -4q0 -22 0.5 -49.5t1 -56t1.5 -56t2 -49.5q8 10 18.5 21.5t21.5 24.5l47.5 52.5t61 63.5t66 59.5t60.5 41.5q19 9 33 9h5q19 -13 19 -27v-1z" />
    <glyph glyph-name="w" unicode="w" horiz-adv-x="636" 
d="M467.5 39q-19.5 -16 -38 -24.5t-34.5 -11t-26 -2.5q-22 0 -37.5 15t-26 39t-16 53.5t-7.5 58.5l-45 -58q-26 -30 -52 -57.5t-46 -41.5q-14 -9 -22 -9h-2q-31 2 -47.5 20.5t-22.5 48.5q-2 12 -3.5 25.5t-1.5 27.5q0 9 1 14q1 27 4.5 56.5t9 58t11 55t10.5 49.5
q6 33 21.5 52.5t55.5 35.5q5 -24 6.5 -40t1.5 -27q0 -16 -1 -30t-3.5 -31t-8 -40t-14.5 -57q-7 -30 -9.5 -49.5t-4.5 -24.5q-1 -5 -1.5 -8.5t-0.5 -6.5q0 -7 3 -10q4 -3 8 -3q2 0 8 2q10 3 21 12t17 17q14 19 30 37.5t27 39.5q21 37 37 61t29.5 40t26 25.5t26.5 17.5
q5 -25 8 -67t5 -102q1 -37 6.5 -65t17.5 -50q5 -4 12 -4q8 0 18 7q19 16 42 55t44 86t39 93.5t28 77.5q16 51 29.5 79.5t24.5 38.5q14 13 27 14q3 1 8 1q6 0 14 -3q9 -4 14.5 -11.5t5.5 -12.5q0 -40 -15.5 -81.5t-40.5 -95.5q-14 -30 -31.5 -64.5t-35.5 -68.5t-35.5 -64
t-30.5 -50q-18 -27 -37.5 -43z" />
    <glyph glyph-name="x" unicode="x" horiz-adv-x="399" 
d="M301 6q-11 -6 -23 -6h-10q-20 0 -33 14.5t-25 60.5q-2 7 -3 11.5t-2.5 10t-4 13.5t-7.5 23q-29 -29 -46.5 -38.5t-25.5 -17.5q-5 -6 -33 -20q-20 -11 -33.5 -18t-24.5 -12t-22.5 -8t-26.5 -6q-17 0 -19.5 8.5t-3.5 14.5q26 15 51.5 31.5t48.5 39.5q17 16 31.5 30
t27.5 28.5t25 30.5t25 36q-3 21 -7.5 43.5t-9.5 44t-10.5 40.5t-9.5 34q-11 34 -17 49.5t-8 24.5h11q8 0 15.5 -0.5t13.5 -1.5q23 -5 35 -20.5t23 -42.5q5 -14 13 -42.5t18 -60.5q16 13 34.5 31.5t37 40t36 44.5t31.5 44q7 11 18.5 23t37.5 20q4 -26 5.5 -44t1.5 -37
q0 -5 -9.5 -22t-34.5 -50q-12 -16 -28.5 -35.5t-34 -39t-34.5 -38t-30 -33.5q9 -45 22.5 -86t27.5 -67l2 -16q-1 -19 -16 -29z" />
    <glyph glyph-name="y" unicode="y" horiz-adv-x="499" 
d="M238 -99q-24 -43 -48 -84t-48 -76t-47 -57q-24 -27 -57 -34h-5q-12 0 -17 8q-6 11 -7 32q4 22 18.5 50t34 58.5t41 61t38.5 56.5q15 20 32 43.5t33.5 46t30 43t21.5 34.5q-8 -6 -18.5 -14t-19.5 -14q-73 -52 -121 -55h-19q-11 0 -22 3t-22 10t-19 20q-9 13 -9 38v10
q2 11 5.5 30.5t20.5 56.5q8 18 16.5 35t20 35t27 38.5t37.5 44.5q9 10 23 27.5t29 36t29.5 33t23.5 18.5q6 2 18 4h5q5 0 15 -2q8 -3 13 -12v-5q0 -10 -7 -23q-4 -9 -15.5 -24t-28.5 -37.5t-40 -54t-50 -74.5q-18 -21 -31 -45t-19 -43q-4 -12 -4 -23q0 -6 1 -9q1 -9 11 -9
q4 0 6 1q76 28 157 106q19 19 55.5 60.5t87.5 107.5h-1q78 96 145 118l-6 -41q-3 -21 -85 -165q-13 -23 -31.5 -51t-39.5 -60q-26 -38 -54.5 -81t-56.5 -92q-23 -38 -47 -81z" />
    <glyph glyph-name="z" unicode="z" horiz-adv-x="592" 
d="M21.5 120.5q11.5 13.5 27.5 26t32.5 23t27.5 16.5q7 4 9 5.5t3.5 2.5t4 2.5t11.5 5.5q-17 5 -33 10.5t-33 13.5q-21 11 -29 18q-7 6 -7 13v3l-6 52l15 -5t18.5 -6t17.5 -5.5t13 -3.5q26 -9 60 -17t60 -11q8 -1 16.5 -1.5t17.5 -0.5q13 0 27 1.5t29 3.5q48 7 88.5 20
t64.5 28q16 10 16 19q0 3 -2 5q-18 17 -44.5 24.5t-53.5 9.5h-23q-6 0 -11 -1q-62 -3 -91 -9q-13 -4 -28 -4q-2 -1 -6 -1q-5 0 -11 0.5t-13 1.5q-12 3 -27 12t-36 24q15 11 37 20t49 15.5t57.5 10t61.5 4.5h7q19 0 37.5 -1.5t37.5 -3.5q40 -6 75 -18t59 -31q21 -21 25 -38
q1 -4 1 -11q0 -12 -6 -24q-10 -17 -32.5 -33.5t-56.5 -34.5q-14 -7 -30.5 -14t-32.5 -13h1q12 -3 23.5 -5t19.5 -4q17 -12 20 -26v-8q0 -11 -4 -18q-7 -11 -18 -19q-10 -5 -19 -5h-5q-71 14 -110 19t-59 6h-6q-16 0 -23 -3q-4 -2 -8 -3t-8 -3q-12 -4 -28 -9t-31.5 -11
t-28.5 -11.5t-20 -10.5q-6 -5 -6 -8t3 -6v-1q6 -6 17.5 -11t25 -9.5t27 -7t24.5 -2.5h20q7 0 15 1q27 2 64 8t73 13.5t65 16t39 16.5q19 11 32.5 14.5t31.5 5.5l-3 -29q-17 -39 -66.5 -61.5t-136.5 -39.5h-1q-26 -4 -47.5 -7t-42.5 -4q-5 -1 -11 -1h-22q-6 0 -12 1
q-11 1 -24.5 2.5t-28.5 4.5q-66 15 -101.5 32.5t-35.5 52.5q0 13 11.5 26.5z" />
    <glyph glyph-name="braceleft" unicode="{" horiz-adv-x="513" 
d="M357 798q6 0 12 -0.5t12 -1.5q22 -4 42.5 -11t39.5 -17q25 -16 38 -35q10 -14 10 -38q0 -7 -1 -11q-1 -3 -2 -12.5t-1 -11.5q-38 12 -58 20t-32 13t-21.5 7.5t-25.5 4.5h-9q-22 0 -40 -12q-32 -24 -48 -71t-18 -99q0 -28 12 -51t29 -42q-8 -17 -23.5 -28.5t-35.5 -21.5
q-2 -2 -8 -4.5t-11 -4.5q10 -23 21 -51q10 -24 10 -46v-3q0 -9 -1 -10q-2 -5 -18.5 -32.5t-58.5 -78.5q-23 -30 -42 -69t-25 -77q1 -12 19.5 -17.5t44.5 -6.5q8 -1 15 -1h38q14 1 25 1h22q23 -2 37 -15t23 -40q-26 -6 -63.5 -11t-75.5 -7h-13q-35 0 -62 9q-67 23 -77 84
q-1 5 -1.5 9.5t-0.5 9.5q0 22 8 49q9 31 25.5 57t34.5 50t35 48t27 52q-5 33 -25.5 50t-54.5 34q14 27 34.5 47t63.5 44l-6 15q-2 7 -4.5 19.5t-7.5 32.5q4 42 12 82.5t22.5 75.5t37.5 62.5t58 45.5q31 15 62 15z" />
    <glyph glyph-name="braceright" unicode="}" horiz-adv-x="566" 
d="M349 -145q-8 -1 -15.5 -1.5t-15.5 -0.5q-20 0 -36 3q-30 5 -55 10.5t-44 13.5q-28 13 -43 31q-14 17 -14 45v4q0 3 0.5 12.5t0.5 11.5q40 -9 70 -16t53 -12t41.5 -7.5t35.5 -2.5q22 0 39 10t29 27t20 39.5t12 48.5q4 23 4 50v10q0 5 -1 10q-2 29 -16.5 51t-34.5 40
q7 17 22.5 30t35.5 25q2 2 8 5t11 5q-13 23 -27 50t-14 49q0 9 1 10q1 5 16 35t53 84q21 34 38 76t20 80q-1 12 -22 17q-17 3 -37 3h-10q-27 -1 -55.5 -4.5t-49.5 -5.5q-24 0 -39.5 12t-27.5 39q26 8 65 16.5t77 13.5q19 3 37 3q21 0 43 -5q71 -17 89 -78q4 -13 4 -32
q0 -16 -5 -38q-7 -34 -22 -62t-32 -53.5t-33 -51t-24 -55.5q8 -33 32 -48.5t60 -29.5q-6 -15 -13.5 -27t-18 -23t-26 -23.5t-36.5 -27.5l7 -15q3 -6 6 -18.5t10 -32.5q0 -44 -4.5 -85.5t-16.5 -77.5t-34 -66.5t-56 -51.5q-24 -14 -62 -19z" />
    <glyph glyph-name="asciitilde" unicode="~" horiz-adv-x="736" 
d="M665 342q-7 -5 -20.5 -12t-27.5 -14q-42 -20 -78 -36.5t-73 -16.5q-66 0 -89 68q-9 20 -18 32t-20 12q-40 0 -95 -36q-66 -41 -124 -46q20 32 47 64.5t59 58t67.5 41.5t72.5 16q28 0 42 -20t23.5 -44t19 -44t27.5 -20q26 0 60 19q110 56 124 57q3 0 7 -0.5t9 -2.5
q6 -2 13 -8t13 -27q-2 -5 -4 -9t-5 -8q-9 -9 -30 -24z" />
    <glyph glyph-name=".0142" horiz-adv-x="680" 
d="M651 744v-1q20 14 41 20q18 5 31 5h22q5 0 10 -1q8 -1 13.5 -1.5t7.5 -0.5h5q-12 -9 -27.5 -21t-30.5 -23t-27 -19.5t-17 -11.5q-25 -20 -35.5 -33t-21.5 -19q15 1 28.5 1.5t26.5 1.5h29q7 0 12 -1q30 -1 42 -13q8 -6 11 -14q1 -4 1.5 -8t0.5 -9v-8q0 -1 -1 -3t-2 -6l1 1
q-10 -32 -48 -72t-107 -88q-24 -16 -43 -26t-46 -24l10 -4q7 0 30 1t55 4q18 -3 23 -13.5t5 -21.5v-13q-3 -8 -7.5 -13.5t-12.5 -9.5q-14 -6 -39 -9.5t-54 -4.5q-48 -2 -77 -2.5t-47 -0.5h-27q-11 0 -16 -1l-75 -55q-69 -45 -112 -83t-43 -66q0 -11 21 -11q15 0 36.5 4t44 9
t43 11t34.5 11q102 38 161 38q9 0 14 -1l82 -14q-34 -21 -95.5 -45t-139.5 -42q-72 -20 -122.5 -28t-70.5 -9h-12q-22 0 -38 6q-21 8 -31 21q-12 15 -12 33v7q2 44 47 91.5t114 98.5l10.5 7.5t6 4.5t5.5 4.5l9 7.5l-10 1l-9 1q-6 0 -15 1.5t-17.5 3.5t-15.5 5.5t-10 6.5
l-49 64q20 -4 44 -7t48 -5t46 -3.5t37 -2.5q4 -1 11 -1q8 0 13 1q6 1 10.5 2t7.5 2q19 8 46 24.5t56 33.5l127 68q16 11 33 24t32 25t26.5 22.5t16.5 17.5l2 6q0 4 -8 4q-24 -1 -65.5 -5.5t-95.5 -17.5q-14 -5 -30 -8t-33 -8q-11 -3 -25 -6t-29.5 -6t-31 -4.5t-28.5 -1.5
q-1 -1 -4 -1q-17 0 -26 4q-12 5 -15 14q-1 2 -1 6q0 8 7 21q14 13 44.5 24t70 20t84.5 16t87 11q-18 8 -38 32t-43 52q-15 13 -24 28q-4 7 -4 14q0 6 3 12q9 9 18 10h6q4 0 7 -0.5t7 -1.5q19 -7 44 -26t44 -43z" />
    <glyph glyph-name=".0158" horiz-adv-x="592" 
d="M444 553v-1q20 14 41 20q18 5 31 5h22q5 0 10 -1q8 -1 13.5 -1.5t7.5 -0.5h5q-12 -9 -27.5 -21t-30.5 -23t-27 -19.5t-17 -11.5q-17 -13 -26.5 -23t-16.5 -17.5t-13.5 -12t-16.5 -5.5q45 -5 83.5 -17t64.5 -32q21 -21 25 -38q1 -4 1 -11q0 -12 -6 -24
q-10 -17 -32.5 -33.5t-56.5 -34.5q-14 -7 -30.5 -14t-32.5 -13h1q12 -3 23.5 -5t19.5 -4q17 -12 20 -26v-8q0 -11 -4 -18q-7 -11 -18 -19q-10 -5 -19 -5h-5q-71 14 -110 19t-59 6h-6q-16 0 -23 -3q-4 -2 -8 -3t-8 -3q-12 -4 -28 -9t-31.5 -11t-28.5 -11.5t-20 -10.5
q-6 -5 -6 -8t3 -6v-1q6 -6 17.5 -11t25 -9.5t27 -7t24.5 -2.5h20q7 0 15 1q27 2 64 8t73 13.5t65 16t39 16.5q19 11 32.5 14.5t31.5 5.5l-3 -29q-17 -39 -66.5 -61.5t-136.5 -39.5h-1q-26 -4 -47.5 -7t-42.5 -4q-5 -1 -11 -1h-22q-6 0 -12 1q-11 1 -24.5 2.5t-28.5 4.5
q-66 15 -101.5 32.5t-35.5 52.5q0 13 11.5 26.5t27.5 26t32.5 23t27.5 16.5q7 4 9 5.5t3.5 2.5t4 2.5t11.5 5.5q-17 5 -33 10.5t-33 13.5q-21 11 -29 18q-7 6 -7 13v3l-6 52l15 -5t18.5 -6t17.5 -5.5t13 -3.5q26 -9 60 -17t60 -11q8 -1 16.5 -1.5t17.5 -0.5q13 0 27 1.5
t29 3.5q48 7 88.5 20t64.5 28q16 10 16 19q0 3 -2 5q-18 17 -44.5 24.5t-53.5 9.5h-23q-6 0 -11 -1q-62 -3 -91 -9q-13 -4 -28 -4q-2 -1 -6 -1q-5 0 -11 0.5t-13 1.5q-12 3 -27 12t-36 24q28 20 73 32.5t99 15.5q8 1 17 1h36q9 0 18 -1q-17 8 -36.5 32t-42.5 51
q-15 13 -24 28q-4 7 -4 14q0 6 3 12q9 9 18 10h6q4 0 7 -0.5t7 -1.5q19 -7 44 -26t44 -43z" />
    <glyph glyph-name=".0163" unicode="&#xa3;" horiz-adv-x="727" 
d="M580 72q-7 -5 -18 -10q-7 -5 -20 -11t-27 -11q-21 -8 -40.5 -15.5t-37.5 -13.5q-33 -11 -62 -11h-10q-66 3 -84 66q-8 20 -15.5 31t-18.5 12h-7q-38 0 -87 -28q-34 -16 -65 -25t-60 -10q20 27 47 53.5t58 48.5q0 2 1 2q5 16 12 30.5t18 32.5q24 38 39 64.5t19 37.5
q-30 4 -49 5t-31 1h-17q-5 0 -7 2q-4 4 -7.5 6t-5.5 4q-5 3 -5 11v3q1 27 32 36q26 -1 45 -1h32q21 0 31 1.5t15 4t7 6.5t6 10l35 59.5t29 47.5t29 42t34 42q73 87 171 87q8 0 16.5 -0.5t16.5 -1.5q35 -8 59.5 -29t35.5 -59q5 -22 5 -38q0 -20 -6 -35q-12 -30 -38 -56
q-18 -12 -42.5 -21.5t-38.5 -9.5q-9 0 -9 7q14 24 32 48.5t24 36.5q4 13 4 28q0 23 -14 40q-15 17 -46 17q-13 0 -29 -3q-35 -7 -63.5 -33.5t-51 -60.5t-40.5 -69t-32 -60h39q8 0 16 -1q34 0 54.5 -1t31 -3t14 -4.5t4.5 -5.5q2 -6 3 -8q1 -1 1 -6t-1 -9q-5 -9 -16.5 -18.5
t-22.5 -13.5q-7 1 -24 1.5t-37 1t-41 0.5h-33q-17 0 -17 -1q-20 -37 -36 -66t-28 -52q8 0 11 1h3q5 0 8 -1q28 -1 40.5 -20t20.5 -41.5t15.5 -41.5t25.5 -20h5q22 0 55 14q55 22 85.5 33.5t38.5 12.5q3 -1 7 -1.5t9 -2.5q5 -3 11 -8.5t11 -25.5q-2 -5 -4 -8.5t-6 -6.5
q-5 -4 -12 -9z" />
    <glyph glyph-name=".0165" unicode="&#xa5;" horiz-adv-x="765" 
d="M299 92h-14q-8 0 -13 1q-13 -29 -29 -58.5t-36 -46.5q-10 -10 -22 -10h-4q-14 2 -18 13q-4 7 -4 19q0 6 1 9q1 17 8 37t15 40h-2q-24 3 -41.5 5t-31 3.5t-25 2.5t-23.5 3v1l2 5q3 7 13 20.5t21 25.5q24 4 43 6.5t33 3.5h34q6 0 11 -1l6 14t7 15q-20 2 -34.5 3.5t-26 3
t-22 3t-21.5 3.5v1l2 5q3 7 13 20.5t21 25.5q38 6 63.5 8t42.5 2q5 11 11 21t12 19q-21 9 -37.5 25t-24.5 40t-8 53q0 3 1 4q0 34 13 74q11 26 24 49.5t29 46.5q27 34 43 53t29 29.5t25.5 15.5t30.5 10l3 -12v-7q0 -15 -8 -52q-6 -10 -9.5 -14.5t-8.5 -11t-14.5 -18
t-27.5 -35.5q-22 -27 -37.5 -58t-15.5 -65q0 -26 7 -40q14 -23 47 -23q32 0 60 5t57 17q28 12 55 40t52 66.5t48 84.5t44 94q4 4 14.5 11.5t30.5 19.5q5 -10 6 -31t1 -36v-15q-2 -9 -9.5 -28t-16 -39.5t-16.5 -38t-12 -24.5q-17 -29 -28 -47.5t-22.5 -33t-24.5 -27.5
t-32 -29q-46 -39 -94.5 -50.5t-102.5 -12.5q-3 -9 -6.5 -17.5t-6.5 -16.5q5 -1 9 -1h19q5 0 10 -1q38 -3 70 -13l3 -52q-39 -7 -95 -9q-7 1 -14 1h-25q-6 0 -11 1v-1l-4 -10t-7 -19q5 0 8.5 -0.5t8.5 -0.5q18 -2 36 -5t35 -8l3 -52q-41 -8 -96 -9zM670 690l-2 -4q1 1 1 2
t1 2z" />
    <glyph glyph-name="section" unicode="&#xa7;" horiz-adv-x="771" 
d="M16 85q-1 4 -1.5 7t-0.5 7q0 16 9 31q11 22 36.5 39t59.5 23q-3 -15 -14 -31t-14 -31v-6q0 -8 4 -15q12 -15 43.5 -22t71.5 -7t83 6.5t79 18.5t59.5 29.5t24.5 40.5q-1 5 -17 11t-44 14t-67 18.5t-86 25.5q-23 12 -35.5 24t-17.5 25q-5 12 -5 22v4q1 7 1.5 13.5t2.5 13.5
q2 19 25.5 35.5t59.5 29.5q-13 4 -18.5 7t-9.5 8q-10 12 -15 23q-5 10 -5 20q0 7 1 10q4 41 35.5 74t79 57t103.5 37.5t109 16.5h15q34 0 64 -6q56 -10 85 -27q27 -17 35 -41q1 -5 1.5 -9t0.5 -9q0 -15 -7 -28q-11 -23 -36 -41t-58 -25q2 15 12 32t13 33v4q0 7 -5 15
q-14 14 -44 20q-28 5 -56 5h-16q-40 -2 -82.5 -10t-78 -22t-58.5 -32.5t-23 -41.5q1 -7 25.5 -13t57 -12.5t66 -13t53.5 -14.5q45 -18 60.5 -37t15.5 -41q0 -14 -3 -29q-1 -22 -29 -41t-70 -33q18 -6 25.5 -10.5t12.5 -9.5q4 -5 7.5 -10.5t6.5 -12.5q4 -8 4 -18
q0 -3 -0.5 -6t-1.5 -7q-5 -41 -38 -72.5t-81.5 -53.5t-105.5 -33t-110 -11q-41 0 -78 8q-28 6 -49 14t-35 17q-28 20 -32 43zM440 366h-20l-33 -3q-9 -2 -23.5 -5.5t-30 -8.5t-29 -11t-19.5 -12q-4 -4 -4 -8q0 -5 9 -11q14 -5 27 -8.5t25 -7.5q11 0 23.5 1.5t26.5 3.5
q9 1 23.5 5.5t29.5 10.5t28.5 12.5t19.5 13.5q3 4 3 7q0 6 -9 11q-10 2 -19 4.5t-18 4.5q-5 1 -10 1z" />
    <glyph glyph-name="dieresis" unicode="&#xa8;" horiz-adv-x="508" 
d="M460 745.5q3 -12.5 3 -23.5q0 -5 -2 -14t-4 -14q-5 -13 -17 -28q-11 -12 -33 -12h-4q-7 0 -15.5 4t-10.5 16q-3 10 -3 20q0 5 1 8q2 16 11 28q8 14 25 24t43 21q3 -17 6 -29.5zM288 749.5q3 -12.5 3 -23.5q0 -5 -2 -14.5t-4 -14.5q-6 -16 -16 -27q-11 -12 -34 -12h-4
q-7 0 -15.5 4t-10.5 15q-3 10 -3 21q0 5 1 8q2 15 12 28q8 14 24.5 24t42.5 20q3 -16 6 -28.5z" />
    <glyph glyph-name=".0169" unicode="&#xa9;" horiz-adv-x="2189" 
d="M636 57.5q7 -0.5 15 -1.5h5q13 0 20 7q1 1 2 5t2 8.5l2 9t1 5.5q4 11 15 35t26 53t32.5 60t36 56t36 41.5t31.5 16.5q7 0 23.5 -2t33.5 -5.5t30 -9t13 -11.5q0 -11 -8.5 -13t-17.5 -2h-10q-11 0 -20.5 0.5t-20.5 7.5q-26 -63 -63.5 -112.5t-88.5 -94.5q-5 -9 -9.5 -20
t-4.5 -22t8 -12.5t17 -1.5q16 0 24 8t12 20t7 25.5t9 25.5t17.5 20t33.5 8q0 -15 -4.5 -27.5t-9.5 -25t-9.5 -25t-4.5 -26.5q4 0 9.5 -0.5t13.5 -1.5h5q10 0 17 7q12 15 17 40t11.5 49t18.5 42t38 18q0 -16 -4.5 -30.5t-10.5 -28.5t-10.5 -28.5t-4.5 -30.5v-3q28 20 54.5 46
t48.5 50q1 0 3.5 0.5t3.5 0.5q11 0 13 -6.5t2 -15.5q0 -12 -3.5 -24t-7.5 -23.5t-7.5 -23.5t-3.5 -25v-14q6 0 13 -0.5t13.5 -2.5t11 -6.5t4.5 -11.5q0 -3 -1 -8t-6 -5h-55q-3 0 -6.5 3.5t-6.5 8t-5.5 9t-2.5 6.5v10q0 10 1.5 22.5t1.5 15.5h-10q-3 -4 -13 -14l-21 -21
t-21 -20.5t-14 -12.5q-2 -2 -6.5 -4.5t-6.5 -2.5h-200l-7 7h-7l-14 -7h-75q-5 0 -6.5 8t-1.5 13v6q0 19 3.5 39t12 36.5t23 27t35.5 10.5q0 -15 -4.5 -27.5t-10 -25t-10 -25t-4.5 -26.5q5 0 12 -0.5zM1860.5 157.5q0.5 -11.5 0.5 -15.5q0 -37 -20 -59t-57 -34v-7
q35 3 66 16.5t54 36t36.5 53t13.5 66.5h-53q-2 0 -4.5 5.5t-2.5 8.5q3 11 14 16t24.5 8t26 6.5t18.5 11.5q10 10 12 23.5t4 25.5t8 20.5t24 8.5v-81h19q4 0 9 1h24q8 0 12 -1q17 -2 29.5 -9.5t12.5 -25.5h-106q-11 0 -19 -16t-14.5 -40.5t-12 -52.5t-11.5 -52.5t-13 -40.5
t-16 -16t-13 6t-5 15q-1 2 -1 10v6q1 3 1 7t1 5q-34 -33 -66.5 -44.5t-79.5 -11.5q-26 0 -47 13t-21 42q0 22 8.5 44.5t23 40.5t34.5 29.5t43 11.5q12 0 23.5 -2t19.5 -13q0 -4 0.5 -15.5zM1103 35q-6 7 -7 11.5t-1 12.5q0 24 10.5 45t27.5 36.5t38.5 25t44.5 9.5
q0 -21 -12.5 -32t-27 -19.5t-27 -19t-12.5 -31.5v-3q23 9 38.5 21t28.5 25.5t26 28t31 28.5l2 1h2q9 0 10 -8.5t1 -14.5q0 -11 -6 -23t-14.5 -24.5t-16.5 -24.5t-12 -23q-1 -2 -4 -11.5t-6.5 -20t-6.5 -19t-4 -9.5q-3 -3 -11.5 -18t-18.5 -33.5t-19 -36t-13 -24.5
q-2 -3 -7.5 -11.5t-12 -18.5t-12.5 -19t-9 -13q-10 -14 -14 -17.5t-16 -3.5q-25 0 -25 28v117q0 19 13 33t32 23.5t40.5 16t38.5 10.5l7 13q-15 -6 -26 -6.5t-26 -0.5h-24zM211.5 182q6.5 6 14 12t15 10.5t15.5 4.5v-36q34 -12 52 -29.5t18 -52.5q0 -71 -72 -71
q-13 0 -22.5 2.5t-18.5 5.5t-18 7t-21 7q-4 -11 -14 -24.5t-20.5 -27t-20.5 -27t-14 -24.5q-2 -2 -7.5 -10t-6.5 -10q-2 -4 -10 -18t-17 -30t-17.5 -30.5t-10.5 -18.5q-4 -7 -9 -8t-13 -1q0 31 12 61t29 57.5t34.5 52t29.5 45.5v3q0 12 -7.5 23.5t-7.5 24.5q0 19 11 33
t26 24.5t31.5 19t28.5 16.5q4 3 10.5 9zM447 243q4 12 8.5 26.5t8.5 26.5t6 15q1 3 5.5 13.5t9.5 22.5t10.5 23.5t8.5 16.5q8 14 21 29.5t31 15.5q0 -15 -2.5 -24.5t-6.5 -18t-9.5 -18.5t-12.5 -26q-2 -5 -10 -26.5t-17.5 -45.5t-17.5 -45.5t-10 -26.5t-7 -15.5t-10.5 -22.5
t-10.5 -23t-7 -15v-7q20 14 43.5 34.5t39.5 34.5h25q0 -15 -4 -28.5t-9 -26t-9 -25.5t-4 -27q0 -12 8 -16t17 -5.5t17 -4.5t8 -14q0 -3 -0.5 -10.5t-7.5 -7.5h-69l-7 7q-10 13 -10 28q0 3 1 4q1 15 3 36q-2 0 -7 -2.5l-7 -3.5q-5 -3 -17 -13t-25.5 -21t-25 -21t-15.5 -14
q-1 0 -3 -0.5t-4 -0.5q-10 0 -12 6t-2 15q0 2 0.5 7t0.5 7q5 10 16.5 34.5t24.5 51.5t24.5 51.5t16.5 34.5zM1574 212q0 -16 -5 -30.5t-10.5 -28.5t-10.5 -28.5t-5 -30.5v-3q28 20 54.5 46t49.5 50l3 1h4q10 0 12 -6.5t2 -15.5q0 -12 -3.5 -24t-7.5 -23.5t-7.5 -23.5
t-3.5 -25q0 -2 0.5 -7t0.5 -7q5 0 12.5 -0.5t14 -2.5t11 -6.5t4.5 -11.5q0 -3 -1 -8t-7 -5h-55q-2 0 -5.5 3.5t-7 8t-6 9t-2.5 6.5q0 3 0.5 10t1 14.5t1 14.5t0.5 9h-9q-4 -4 -13.5 -14t-20.5 -21t-21 -20.5t-14 -12.5q-7 -6 -12 -7t-12 -1q-12 0 -15 5t-3 16v14q3 7 9 24.5
t12 37.5t12 37.5t9 24.5q11 32 44 32zM1086.5 -138.5q3.5 4.5 8 11.5t8.5 13.5t7 11.5q4 7 10 18t12 23l11.5 23l9.5 19l5 11q-31 0 -48 -11.5t-25.5 -30t-10 -43t-1.5 -50.5h9q1 0 4.5 4.5zM274.5 121.5q-16.5 11.5 -34.5 11.5h-6l-5 -1l-35 -55q13 -11 23 -13t24 -2
q6 0 15 1t16.5 4t13 8.5t5.5 14.5q0 20 -16.5 31.5zM1774.5 89q11.5 3 18.5 6l5 2q4 3 10 8t11.5 10.5t9.5 10t4 6.5v22q-14 0 -28.5 -6t-27 -15.5t-20.5 -22.5t-8 -27q1 0 4 0.5t4 0.5q6 2 17.5 5zM731 310q-22 0 -33 7t-11 30q5 0 18 -0.5t27 -3t24.5 -7t10.5 -11.5
q0 -11 -8.5 -13t-17.5 -2h-10zM1393.5 19.5q-5.5 4.5 -8 11.5t-3 15t-0.5 15q14 0 29.5 -7.5t15.5 -24.5q0 -14 -18 -14q-10 0 -15.5 4.5zM153 85.5q9 14.5 14 25.5q-14 -8 -21.5 -16t-7.5 -22q0 -1 0.5 -5t0.5 -5q5 8 14 22.5z" />
    <glyph glyph-name="guillemotleft" unicode="&#xab;" horiz-adv-x="969" 
d="M503.5 117q-9.5 7 -19.5 14h1q-38 28 -72.5 58.5t-46.5 58.5q-5 10 -5 17q0 9 4 14q3 8 10 16t15 15q14 13 33.5 25.5t43.5 26.5q40 21 66 36.5t48.5 32t47.5 37.5t63 53q15 12 27.5 23t26 22t28.5 23.5t35 27.5q10 8 36.5 12.5t77.5 7.5q-24 -30 -61.5 -67.5
t-85.5 -75.5q-42 -35 -87 -69t-91 -68q-35 -26 -68 -47.5t-54 -35.5l-2 -4q-1 -1 -1 -3q0 -1 1 -2q10 -20 23 -33.5t41 -31.5q1 -2 15 -12q14 -12 41 -32.5t72 -42.5q76 -36 76 -95h-26q-13 0 -26.5 1t-29.5 3q-28 5 -61 26.5t-78 55.5q-8 6 -17.5 13zM430 58q-19 0 -46 13
q-32 6 -78.5 31.5t-109.5 68.5q-34 25 -56 33t-36 13q-15 2 -21 8q-13 10 -13 33q3 10 10.5 19t14.5 17q14 11 33.5 24.5t45.5 27.5q30 15 50 26.5t28 17.5q31 22 66.5 50t80.5 66q20 17 35 29.5t26 22.5q4 4 14 11.5t20.5 15.5t18.5 14t10 8q7 6 32.5 8.5t74.5 5.5
q-26 -32 -62 -68t-84 -76q-43 -35 -86.5 -68t-91.5 -67q-45 -31 -71 -51t-48 -31q5 -2 11 -5l10 -5q9 -3 21 -8t30 -14q8 -5 42 -22t89 -43q35 -17 55.5 -37t21.5 -40q-8 -20 -26 -26q-6 -2 -11 -2z" />
    <glyph glyph-name=".0174" unicode="&#xae;" horiz-adv-x="2189" 
d="M636 57.5q7 -0.5 15 -1.5h5q13 0 20 7q1 1 2 5t2 8.5l2 9t1 5.5q4 11 15 35t26 53t32.5 60t36 56t36 41.5t31.5 16.5q7 0 23.5 -2t33.5 -5.5t30 -9t13 -11.5q0 -11 -8.5 -13t-17.5 -2h-10q-11 0 -20.5 0.5t-20.5 7.5q-26 -63 -63.5 -112.5t-88.5 -94.5q-5 -9 -9.5 -20
t-4.5 -22t8 -12.5t17 -1.5q16 0 24 8t12 20t7 25.5t9 25.5t17.5 20t33.5 8q0 -15 -4.5 -27.5t-9.5 -25t-9.5 -25t-4.5 -26.5q4 0 9.5 -0.5t13.5 -1.5h5q10 0 17 7q12 15 17 40t11.5 49t18.5 42t38 18q0 -16 -4.5 -30.5t-10.5 -28.5t-10.5 -28.5t-4.5 -30.5v-3q28 20 54.5 46
t48.5 50q1 0 3.5 0.5t3.5 0.5q11 0 13 -6.5t2 -15.5q0 -12 -3.5 -24t-7.5 -23.5t-7.5 -23.5t-3.5 -25v-14q6 0 13 -0.5t13.5 -2.5t11 -6.5t4.5 -11.5q0 -3 -1 -8t-6 -5h-55q-3 0 -6.5 3.5t-6.5 8t-5.5 9t-2.5 6.5v10q0 10 1.5 22.5t1.5 15.5h-10q-3 -4 -13 -14l-21 -21
t-21 -20.5t-14 -12.5q-2 -2 -6.5 -4.5t-6.5 -2.5h-200l-7 7h-7l-14 -7h-75q-5 0 -6.5 8t-1.5 13v6q0 19 3.5 39t12 36.5t23 27t35.5 10.5q0 -15 -4.5 -27.5t-10 -25t-10 -25t-4.5 -26.5q5 0 12 -0.5zM1860.5 157.5q0.5 -11.5 0.5 -15.5q0 -37 -20 -59t-57 -34v-7
q35 3 66 16.5t54 36t36.5 53t13.5 66.5h-53q-2 0 -4.5 5.5t-2.5 8.5q3 11 14 16t24.5 8t26 6.5t18.5 11.5q10 10 12 23.5t4 25.5t8 20.5t24 8.5v-81h19q4 0 9 1h24q8 0 12 -1q17 -2 29.5 -9.5t12.5 -25.5h-106q-11 0 -19 -16t-14.5 -40.5t-12 -52.5t-11.5 -52.5t-13 -40.5
t-16 -16t-13 6t-5 15q-1 2 -1 10v6q1 3 1 7t1 5q-34 -33 -66.5 -44.5t-79.5 -11.5q-26 0 -47 13t-21 42q0 22 8.5 44.5t23 40.5t34.5 29.5t43 11.5q12 0 23.5 -2t19.5 -13q0 -4 0.5 -15.5zM1103 35q-6 7 -7 11.5t-1 12.5q0 24 10.5 45t27.5 36.5t38.5 25t44.5 9.5
q0 -21 -12.5 -32t-27 -19.5t-27 -19t-12.5 -31.5v-3q23 9 38.5 21t28.5 25.5t26 28t31 28.5l2 1h2q9 0 10 -8.5t1 -14.5q0 -11 -6 -23t-14.5 -24.5t-16.5 -24.5t-12 -23q-1 -2 -4 -11.5t-6.5 -20t-6.5 -19t-4 -9.5q-3 -3 -11.5 -18t-18.5 -33.5t-19 -36t-13 -24.5
q-2 -3 -7.5 -11.5t-12 -18.5t-12.5 -19t-9 -13q-10 -14 -14 -17.5t-16 -3.5q-25 0 -25 28v117q0 19 13 33t32 23.5t40.5 16t38.5 10.5l7 13q-15 -6 -26 -6.5t-26 -0.5h-24zM211.5 182q6.5 6 14 12t15 10.5t15.5 4.5v-36q34 -12 52 -29.5t18 -52.5q0 -71 -72 -71
q-13 0 -22.5 2.5t-18.5 5.5t-18 7t-21 7q-4 -11 -14 -24.5t-20.5 -27t-20.5 -27t-14 -24.5q-2 -2 -7.5 -10t-6.5 -10q-2 -4 -10 -18t-17 -30t-17.5 -30.5t-10.5 -18.5q-4 -7 -9 -8t-13 -1q0 31 12 61t29 57.5t34.5 52t29.5 45.5v3q0 12 -7.5 23.5t-7.5 24.5q0 19 11 33
t26 24.5t31.5 19t28.5 16.5q4 3 10.5 9zM447 243q4 12 8.5 26.5t8.5 26.5t6 15q1 3 5.5 13.5t9.5 22.5t10.5 23.5t8.5 16.5q8 14 21 29.5t31 15.5q0 -15 -2.5 -24.5t-6.5 -18t-9.5 -18.5t-12.5 -26q-2 -5 -10 -26.5t-17.5 -45.5t-17.5 -45.5t-10 -26.5t-7 -15.5t-10.5 -22.5
t-10.5 -23t-7 -15v-7q20 14 43.5 34.5t39.5 34.5h25q0 -15 -4 -28.5t-9 -26t-9 -25.5t-4 -27q0 -12 8 -16t17 -5.5t17 -4.5t8 -14q0 -3 -0.5 -10.5t-7.5 -7.5h-69l-7 7q-10 13 -10 28q0 3 1 4q1 15 3 36q-2 0 -7 -2.5l-7 -3.5q-5 -3 -17 -13t-25.5 -21t-25 -21t-15.5 -14
q-1 0 -3 -0.5t-4 -0.5q-10 0 -12 6t-2 15q0 2 0.5 7t0.5 7q5 10 16.5 34.5t24.5 51.5t24.5 51.5t16.5 34.5zM1574 212q0 -16 -5 -30.5t-10.5 -28.5t-10.5 -28.5t-5 -30.5v-3q28 20 54.5 46t49.5 50l3 1h4q10 0 12 -6.5t2 -15.5q0 -12 -3.5 -24t-7.5 -23.5t-7.5 -23.5
t-3.5 -25q0 -2 0.5 -7t0.5 -7q5 0 12.5 -0.5t14 -2.5t11 -6.5t4.5 -11.5q0 -3 -1 -8t-7 -5h-55q-2 0 -5.5 3.5t-7 8t-6 9t-2.5 6.5q0 3 0.5 10t1 14.5t1 14.5t0.5 9h-9q-4 -4 -13.5 -14t-20.5 -21t-21 -20.5t-14 -12.5q-7 -6 -12 -7t-12 -1q-12 0 -15 5t-3 16v14q3 7 9 24.5
t12 37.5t12 37.5t9 24.5q11 32 44 32zM1086.5 -138.5q3.5 4.5 8 11.5t8.5 13.5t7 11.5q4 7 10 18t12 23l11.5 23l9.5 19l5 11q-31 0 -48 -11.5t-25.5 -30t-10 -43t-1.5 -50.5h9q1 0 4.5 4.5zM274.5 121.5q-16.5 11.5 -34.5 11.5h-6l-5 -1l-35 -55q13 -11 23 -13t24 -2
q6 0 15 1t16.5 4t13 8.5t5.5 14.5q0 20 -16.5 31.5zM1774.5 89q11.5 3 18.5 6l5 2q4 3 10 8t11.5 10.5t9.5 10t4 6.5v22q-14 0 -28.5 -6t-27 -15.5t-20.5 -22.5t-8 -27q1 0 4 0.5t4 0.5q6 2 17.5 5zM731 310q-22 0 -33 7t-11 30q5 0 18 -0.5t27 -3t24.5 -7t10.5 -11.5
q0 -11 -8.5 -13t-17.5 -2h-10zM1393.5 19.5q-5.5 4.5 -8 11.5t-3 15t-0.5 15q14 0 29.5 -7.5t15.5 -24.5q0 -14 -18 -14q-10 0 -15.5 4.5zM153 85.5q9 14.5 14 25.5q-14 -8 -21.5 -16t-7.5 -22q0 -1 0.5 -5t0.5 -5q5 8 14 22.5z" />
    <glyph glyph-name=".0176" unicode="&#xb0;" horiz-adv-x="444" 
d="M328 488q-16 0 -34 5q-38 10 -48 36q-8 18 -8 34q0 5 0.5 9t1.5 9q5 27 20.5 52.5t30.5 39.5q18 16 43 25.5t47 9.5q46 0 78 -23q16 -12 21.5 -32t5.5 -40q-7 -32 -27.5 -60t-54.5 -45q-27 -13 -53 -17q-12 -3 -23 -3zM310 575q0 -11 12 -21q1 -1 6 -1q8 0 19 4
q19 7 36 20t26 30q3 6 3 12q0 9 -9 18q-11 8 -25 8q-9 -2 -20 -8t-20.5 -15t-17 -20t-9.5 -21q-1 -2 -1 -6z" />
    <glyph glyph-name=".0177" unicode="&#xb1;" horiz-adv-x="616" 
d="M201.5 23.5q-7.5 -1.5 -18.5 -3.5h-43q-18 0 -31.5 0.5t-25.5 0.5h-25v1l2 5q3 8 11 23t19 29q51 15 80 19t46 5q5 18 10 36.5t7 26.5q1 1 1 4q0 4 1 5q12 42 18.5 65t6.5 25q5 16 18 35q-6 0 -7 1q-26 0 -51 -7.5t-49 -12.5q-7 -1 -13 -1.5t-13 -0.5h-8q-22 0 -22 3
q-13 7 -15 19v3q0 10 4 17q5 9 12.5 17.5t10.5 11.5q42 9 86 14t87 5q2 0 3 1q14 26 23 43.5t16 28.5q13 24 35 51.5t52 57.5q8 -2 12 -4q4 -3 4 -15v-5q-1 -16 -12 -50.5t-38 -97.5q0 -5 -1 -5q4 -4 36 -4q3 0 11.5 1t24.5 3.5t42 8t65 14.5l-44 -56q-14 -12 -33 -21.5
t-54 -17.5q-9 -3 -21 -5t-24.5 -3.5t-23.5 -2t-16 -0.5q-2 0 -7.5 -10t-10.5 -32q-10 -29 -17.5 -49t-14.5 -31q-15 -31 -55 -65q5 0 8.5 0.5t8.5 1.5q22 3 46 3q18 0 36 -1t38 -5l8 -54q-19 -6 -43 -11t-52 -8q-27 -2 -49 -3.5t-39 -1.5q-5 0 -12.5 -1.5z" />
    <glyph glyph-name=".0181" unicode="&#xb5;" horiz-adv-x="551" 
d="M268 1h-8q-20 0 -33 6q-29 6 -47.5 22.5t-20.5 25.5q-6 -5 -13.5 -30t-17.5 -55.5t-23.5 -59.5t-29.5 -42q-11 -9 -22 -9q-5 0 -8 1q-12 1 -17 21q-3 13 -3 29v9q0 4 1 9q2 27 8.5 59t15 61t16 52t11.5 32q7 16 15.5 37t17.5 42.5t17.5 41t16.5 32.5q4 6 16 32t28 55.5
t33 55t32 30.5q9 2 13 3t8 1.5t9 1t17 1.5q2 -22 6 -41q1 -5 1 -15q0 -12 -4 -20q-8 -19 -19 -39.5t-20 -39.5q-21 -45 -37.5 -80t-25.5 -66q-4 -9 -4 -20t8 -22q12 -17 35 -23q10 -3 22 -3q15 0 27 4q26 6 48 29q8 6 16 20t16 31t15.5 34t13.5 28q27 48 41 81t28 50
q3 6 11 11.5t18 9.5t20 7t18 4q1 -17 1 -30v-22q0 -27 -1.5 -33t-3.5 -12q-7 -19 -20 -47t-30 -58.5t-36.5 -61.5t-39 -56.5t-38 -43.5t-33.5 -23q-24 -11 -55 -16q-5 -1 -10 -1z" />
    <glyph glyph-name=".0182" unicode="&#xb6;" horiz-adv-x="514" 
d="M76 393.5q-30 17.5 -47 43t-23 55t-6 55.5q0 30 7.5 64.5t28 64t57.5 49t96 19.5h325v-78h-74v-666h-87v666h-114v-666h-85v375q-48 1 -78 18.5z" />
    <glyph glyph-name="guillemotright" unicode="&#xbb;" horiz-adv-x="949" 
d="M618.5 306q34.5 10 80.5 24q42 12 73.5 23.5t51.5 22.5q-81 31 -145 59t-107 50q-101 53 -101 96q6 20 20 32.5t37 21.5q0 -23 28.5 -46t70.5 -40q26 -9 53.5 -19t52.5 -19q27 -10 53 -19.5t53 -18.5q43 -15 71 -33.5t38 -38.5q5 -12 5 -19q0 -12 -6 -22q-11 -21 -47 -41
q-58 -22 -104.5 -38.5t-86.5 -30.5t-74.5 -26t-68.5 -25q-47 -18 -79.5 -32t-55.5 -23t-39 -14t-31 -5l9 41q23 56 110 94q-81 -27 -158 -53t-152 -62q-24 -15 -50 -23t-58 -8l9 41q12 29 45.5 55.5t85.5 46.5q17 8 71 24t128 38q42 13 72.5 24t53.5 22q-82 32 -145.5 59.5
t-108.5 50.5q-48 24 -74 48t-26 47q6 20 17.5 33.5t39.5 34.5v-41q0 -9 27 -25t70 -33q21 -8 43 -15.5t42 -15.5q32 -11 64.5 -23t65.5 -23q42 -15 69.5 -34t37.5 -39q5 -10 5 -19q0 -12 -6 -22q-12 -22 -48 -41v1q-9 -7 -19.5 -11.5t-21.5 -8.5q25 8 59.5 18z" />
    <glyph glyph-name=".0191" unicode="&#xbf;" horiz-adv-x="679" 
d="M427 351q0 1 0.5 4t1.5 8q2 11 3.5 20t2.5 17q7 16 11 24t9 15.5t13.5 19.5t25.5 38q43 -14 51 -30q2 -4 4 -7l4 -6q1 -2 1 -6q0 -2 -2 -8q-19 -32 -27 -55.5t-12.5 -41t-9.5 -30.5t-17.5 -24.5t-36.5 -22.5t-66 -24q-48 -14 -91 -27.5t-88 -27.5q-45 -15 -64.5 -31
t-24.5 -27q-2 -6 -2 -9q0 -6 5 -13q6 -11 37 -18q40 -9 77 -9q7 0 11 1q61 2 109.5 21.5t88.5 50.5q7 5 13.5 8.5t13.5 5.5q8 2 10 2q9 0 12 1l4 -2t7 -3q22 -13 24 -34q0 -1 -0.5 -2.5t-0.5 -3.5q-13 -29 -36.5 -50t-53 -35.5t-63.5 -23t-68 -11.5q-19 -2 -37.5 -3
t-36.5 -1h-24q-6 0 -12.5 0.5t-13.5 1.5q-11 1 -20 2t-17 2q-57 12 -84.5 39t-30.5 56q-1 3 -1 11q0 14 4 26q14 32 43 58.5t81 50.5q46 20 172 54q45 12 68 21t33 18v10zM603 575q-8 -6 -23.5 -15t-31.5 -12q-6 -2 -10 -2q-9 0 -17 5q-12 7 -12 33q5 17 18 34.5t32 35.5
q21 21 45 33.5t54 16.5l-5 -71q-13 -36 -50 -58z" />
    <glyph glyph-name=".0192" unicode="&#xc0;" 
d="M542 84q0 6 1 12q1 10 1.5 21.5t1.5 24.5v62l-163 9q-26 2 -49.5 5.5t-33.5 5.5h-2q-7 0 -18 -11q-9 -9 -21.5 -23.5t-26 -30.5t-28.5 -33t-30 -31q-27 -30 -56 -57t-56 -38q-5 -1 -9 -1.5t-8 -0.5q-6 0 -16 2q-2 10 -2 15t1 8q1 5 3 13t5 19q3 9 6.5 15t11.5 15t22.5 24
t40.5 43q9 9 22.5 24.5t27 32t25 30.5t16.5 19q-20 19 -32 35.5t-18.5 30.5t-8.5 27t-2 26q0 12 11 12h4q14 -2 44 -30q13 -10 29.5 -24t26.5 -20q2 -2 3 -2q42 47 90.5 96t102 93.5t110 81.5t113.5 61q-2 -5 -6 -26t-8.5 -51.5t-9 -66t-9 -70t-7.5 -64t-4 -46.5t-1.5 -23
t-0.5 -10t-0.5 -8.5t-1.5 -17.5q5 -4 17 -8t41 -16q3 -1 8.5 -5.5t9.5 -10.5q3 -5 3 -10v-1q-2 -6 -11 -9q-47 -8 -57 -14q-6 -2 -10.5 -10t-9.5 -34l-5 -103q-1 -8 -3 -16.5t-5.5 -16.5t-10 -13t-17.5 -5q-22 0 -33 24q-4 12 -5.5 22.5t-2.5 20.5v27zM567.5 370
q3.5 18 6.5 36t6.5 39.5t8.5 51.5q-33 -22 -71.5 -53.5t-73.5 -62.5t-60.5 -56.5t-32.5 -34.5q48 -11 98.5 -13.5t98.5 -2.5q4 0 5 -1l7 56q4 23 7.5 41zM516 796q10 -2 21 -4t21 -4l15 -3q26 -6 58.5 -14.5t63 -18.5t55 -23t34.5 -28q3 -8 3 -14t-3 -13q-7 -10 -22 -12
q-3 -1 -9 -1q-11 0 -24 3q-18 4 -38 11.5t-39 13.5q-19 5 -33.5 8.5t-34.5 10.5q-35 13 -60 36q-8 18 -12 26l-6 12t-3 7t-3 11q6 -2 16 -4z" />
    <glyph glyph-name=".0193" unicode="&#xc1;" 
d="M542 66v17q0 10 1 21q-1 4 -1 14q0 13 3 33q1 10 1.5 21t0.5 25v16q0 8 -1 17l-163 9q-26 2 -49.5 5.5t-33.5 5.5h-2q-7 0 -21 -14q-12 -12 -27.5 -29.5t-32 -37t-33.5 -38.5t-32 -33q-27 -30 -56 -57t-56 -38q-9 -3 -17 -3q-9 0 -16 3q-2 10 -2 15t1 8q1 5 3 13t5 19
q3 9 9.5 18.5t16.5 20.5t24 26t32 36q6 4 11 9l10 10q9 9 22.5 24.5t27 32t25 30.5t16.5 19q-20 19 -32 35.5t-18.5 30.5t-8.5 27t-2 26q0 12 11 12h4q14 -2 44 -30q13 -10 29.5 -24t26.5 -20q2 -2 3 -2q42 47 90.5 96t102 93.5t110 81.5t113.5 61q-2 -5 -6 -26t-8.5 -51.5
t-9 -66t-9 -70t-7.5 -64t-4 -46.5t-1.5 -23t-0.5 -10t-0.5 -8.5t-1.5 -17.5q5 -4 17 -8t41 -16q3 -1 8.5 -5.5t9.5 -10.5q3 -5 3 -10v-1q-2 -6 -11 -9q-47 -8 -57 -14q-6 -2 -10.5 -10t-9.5 -34q-1 -8 -1.5 -14.5t-0.5 -11.5v-20q0 -9 0.5 -19t0.5 -24q0 -9 -0.5 -24.5
t-4.5 -30t-11.5 -25t-22.5 -10.5q-22 0 -33 24q-8 19 -8 37q-1 4 -1 14zM567.5 396q3.5 18 6.5 36t6.5 39.5t8.5 51.5q-33 -22 -71.5 -53.5t-73.5 -62.5t-60.5 -56.5t-32.5 -34.5q48 -11 98.5 -13.5t98.5 -2.5q4 0 5 -1l7 56q4 23 7.5 41zM679.5 695.5
q-11.5 -3.5 -27.5 -8.5q-16 -6 -32.5 -13.5t-31.5 -11.5q-9 -4 -21 -4q-4 0 -6 1q-11 1 -19 12q-3 7 -3 14q0 14 12 25q11 13 31.5 23.5t44.5 19.5t48 16.5t42 13.5q4 1 12.5 3t17.5 4t17.5 4t13.5 4q-2 -8 -2.5 -11t-2 -7t-4.5 -12.5t-9 -26.5h-2q-19 -22 -50 -35
q-17 -7 -28.5 -10.5z" />
    <glyph glyph-name=".0194" unicode="&#xc2;" 
d="M542 58v19q0 12 1 29q-1 4 -1 14q0 13 3 33q1 10 1.5 21t0.5 25v16q0 8 -1 17l-163 9q-26 2 -49.5 5.5t-33.5 5.5h-2q-7 0 -21 -14q-12 -12 -27.5 -29.5t-32 -37t-33.5 -38.5t-32 -33q-27 -30 -56 -57t-56 -38q-9 -3 -17 -3q-9 0 -16 3q-2 10 -2 15t1 8q1 5 3 13t5 19
q3 9 9.5 18.5t16.5 20.5t24 26t32 36q6 4 11 9l10 10q9 9 22.5 24.5t27 32t25 30.5t16.5 19q-20 19 -32 35.5t-18.5 30.5t-8.5 27t-2 26q0 12 11 12h4q14 -2 44 -30q13 -10 29.5 -24t26.5 -20q2 -2 3 -2q42 47 90.5 96t102 93.5t110 81.5t113.5 61q-2 -5 -6 -26t-8.5 -51
t-9 -66t-9 -70.5t-7.5 -64t-4 -46.5t-1.5 -23t-0.5 -10t-0.5 -8.5t-1.5 -17.5q5 -4 17 -8t41 -16q3 -1 8.5 -5.5t9.5 -10.5q3 -5 3 -10v-1q-2 -6 -11 -9q-47 -8 -57 -14q-6 -2 -10.5 -10t-9.5 -34q-2 -15 -2.5 -24.5t-0.5 -17.5v-39q0 -9 -0.5 -24.5t-4.5 -30t-11.5 -25.5
t-22.5 -11q-11 0 -19.5 7t-13.5 18q-8 18 -8 31q0 1 1 2zM567.5 398q3.5 18 6.5 36t6.5 39.5t8.5 51.5q-33 -22 -71.5 -53.5t-73.5 -62.5t-60.5 -56.5t-32.5 -34.5q48 -11 98.5 -13.5t98.5 -2.5q4 0 5 -1l7 56q4 23 7.5 41zM628 685v1q-23 -13 -47 -16q-15 -3 -27 -3
q-9 0 -13 1q-11 1 -28.5 4t-23.5 3h-5q14 9 32.5 20t36 21.5t31.5 18.5t19 11q16 10 27 19t19 15.5t14.5 11t14.5 6.5q4 1 14 1h6q4 0 8 -1q11 -1 21.5 -10t21 -23.5t21.5 -33t23 -37.5q16 -15 24 -30q2 -8 2 -12q0 -10 -6 -17q-8 -8 -19 -8q-10 0 -22 5q-20 9 -44.5 32.5
t-42.5 50.5z" />
    <glyph glyph-name=".0195" unicode="&#xc3;" 
d="M541 39q0 8 1 13t1 12v15q-1 4 -1 14q0 13 3 33q1 10 1.5 21t0.5 25v16q0 8 -1 17l-163 9q-26 2 -49.5 5.5t-33.5 5.5h-2q-8 0 -18 -10q-10 -9 -22.5 -23.5t-26.5 -30.5t-29 -32.5t-30 -30.5q-27 -30 -56 -57t-56 -38q-9 -3 -17 -3q-9 0 -16 3q-2 10 -2 15t1 8q1 5 3 13
t5 19q3 9 9.5 18.5t16.5 20.5t24 26t32 36q6 4 11 9l10 10q9 9 19 21t20 23.5t18.5 21.5t13.5 15q-20 19 -32 35.5t-18.5 30.5t-8.5 27t-2 26q0 12 11 12h4q14 -2 44 -30q13 -10 29.5 -24t26.5 -20q2 -2 3 -2q85 96 183 177.5t213 130.5q-2 -5 -4.5 -24.5t-4.5 -47t-4.5 -60
t-4.5 -64t-3.5 -59.5t-2.5 -45t-1.5 -23t-0.5 -10t-0.5 -8.5t-1.5 -17.5q5 -4 17 -8t41 -16q3 -1 8.5 -5.5t9.5 -10.5q3 -5 3 -10v-1q-2 -6 -11 -9q-47 -8 -57 -14q-6 -2 -10.5 -10t-9.5 -34q-2 -15 -2.5 -23.5t-0.5 -15.5v-37q0 -18 -3 -39q-1 -7 -3 -16t-5.5 -16.5
t-10.5 -13t-17 -5.5q-11 0 -19.5 7t-13.5 17q-7 17 -7 31q-1 1 -1 5zM692 724q-22 0 -59 -34q-22 -22 -52 -37t-49 -23q20 42 41.5 76t45.5 52l-1 -1q47 41 87 41q26 0 41 -22t22 -64v1q4 -18 7 -18q6 0 20 8t30 21q25 21 43.5 34t28.5 14l18 -27q-14 -26 -33 -50t-39.5 -42
t-41 -29t-37.5 -11q-26 0 -40.5 17.5t-21.5 52.5q-5 41 -10 41zM562 367q1 15 2.5 30.5t3.5 34.5t5 50q-33 -22 -69 -51t-68 -57t-55 -51t-30 -32q48 -11 98.5 -13.5t98.5 -2.5q4 0 5 -1l7 56q1 22 2 37z" />
    <glyph glyph-name=".0196" unicode="&#xc4;" 
d="M543.5 72q-0.5 11 -0.5 22v18q-1 4 -1 14q0 13 3 33q1 10 1.5 21t0.5 25v16q0 8 -1 17l-163 9q-26 2 -49.5 5.5t-33.5 5.5h-2q-7 0 -21 -14q-12 -12 -27.5 -29.5t-32 -37t-33.5 -38.5t-32 -33q-27 -30 -56 -57t-56 -38q-9 -3 -17 -3q-9 0 -16 3q-2 10 -2 15t1 8q1 5 3 13
t5 19q3 9 9.5 18.5t16.5 20.5t24 26t32 36q6 4 11 9l10 10q9 9 22.5 24.5t27 32t25 30.5t16.5 19q-20 19 -32 35.5t-18.5 30.5t-8.5 27t-2 26q0 12 11 12h4q14 -2 44 -30q13 -10 29.5 -24t26.5 -20q2 -2 3 -2q42 47 90.5 96t102 93.5t110 81.5t113.5 61q-2 -5 -6 -26
t-8.5 -51t-9 -66t-9 -70.5t-7.5 -64t-4 -46.5t-1.5 -23t-0.5 -10t-0.5 -8.5t-1.5 -17.5q5 -4 17 -8t41 -16q3 -1 8.5 -5.5t9.5 -10.5q3 -5 3 -10v-1q-2 -6 -11 -9q-47 -8 -57 -14q-6 -2 -10.5 -10t-9.5 -34q-1 -8 -1 -15v-28q0 -6 1 -12q3 -26 3 -54q0 -18 -3 -39
q-1 -7 -3 -16t-5.5 -16.5t-10.5 -13t-17 -5.5q-11 0 -19.5 7t-13.5 17q-4 9 -6.5 21t-3.5 26q-1 11 -1.5 22zM567.5 404q3.5 18 6.5 36t6.5 39.5t8.5 51.5q-33 -22 -71.5 -53.5t-73.5 -62.5t-60.5 -56.5t-32.5 -34.5q48 -11 98.5 -13.5t98.5 -2.5q4 0 5 -1l7 56q4 23 7.5 41
zM813 769.5q3 -12.5 3 -23.5q0 -5 -2 -14t-4 -14q-5 -13 -17 -28q-11 -12 -33 -12h-4q-7 0 -15.5 4t-10.5 16q-3 10 -3 20q0 5 1 8q2 16 11 28q8 14 25 24t43 21q3 -17 6 -29.5zM641 773.5q3 -12.5 3 -23.5q0 -5 -2 -14.5t-4 -14.5q-6 -16 -16 -27q-11 -12 -34 -12h-4
q-7 0 -15.5 4t-10.5 15q-3 10 -3 21q0 5 1 8q2 15 12 28q8 14 24.5 24t42.5 20q3 -16 6 -28.5z" />
    <glyph glyph-name=".0197" unicode="&#xc5;" 
d="M543.5 87q-0.5 11 -0.5 22v18q-1 4 -1 14q0 13 3 33q1 10 1.5 21t0.5 25v16q0 8 -1 17l-163 9q-26 2 -49.5 5.5t-33.5 5.5h-2q-7 0 -21 -14q-12 -12 -27.5 -29.5t-32 -37t-33.5 -38.5t-32 -33q-27 -30 -56 -57t-56 -38q-9 -3 -17 -3q-9 0 -16 3q-2 10 -2 15t1 8q1 5 3 13
t5 19q3 9 9.5 18.5t16.5 20.5t24 26t32 36q6 4 11 9l10 10q9 9 22.5 24.5t27 32t25 30.5t16.5 19q-20 19 -32 35.5t-18.5 30.5t-8.5 27t-2 26q0 12 11 12h4q14 -2 44 -30q13 -10 29.5 -24t26.5 -20q2 -2 3 -2q42 47 90.5 96t102 93.5t110 81.5t113.5 61q-2 -5 -6 -26
t-8.5 -51.5t-9 -66t-9 -70t-7.5 -64t-4 -46.5t-1.5 -23t-0.5 -10t-0.5 -8.5t-1.5 -17.5q5 -4 17 -8t41 -16q3 -1 8.5 -5.5t9.5 -10.5q3 -5 3 -10v-1q-2 -6 -11 -9q-47 -8 -57 -14q-6 -2 -10.5 -10t-9.5 -34q-1 -8 -1 -15v-28q0 -6 1 -12q3 -26 3 -54q0 -18 -3 -39
q-1 -8 -3 -16.5t-5.5 -16.5t-10 -13t-17.5 -5q-22 0 -33 24q-4 9 -6.5 21t-3.5 26q-1 11 -1.5 22zM567.5 419q3.5 18 6.5 36t6.5 39.5t8.5 51.5q-33 -22 -71.5 -53.5t-73.5 -62.5t-60.5 -56.5t-32.5 -34.5q48 -11 98.5 -13.5t98.5 -2.5q4 0 5 -1l7 56q4 23 7.5 41z" />
    <glyph glyph-name=".0199" unicode="&#xc7;" horiz-adv-x="614" 
d="M316 -50q-9 -12 -19 -26q-17 -26 -31.5 -53.5t-33.5 -39.5q-8 -5 -16 -5q-6 0 -12 3q-19 13 -19 36q-1 0 -1 1q0 22 12 48q11 27 29.5 56t36.5 54q-69 -19 -125 -24h-12q-54 0 -84 24q-16 14 -25.5 30.5t-11.5 37.5v23q0 4 1 8q7 43 30.5 101.5t58.5 120.5t79 122.5
t93 109.5q33 33 73.5 62.5t82.5 54t82 43t72 28.5q33 9 53 9q9 0 13 -1q6 -2 15.5 -4t19.5 -7.5t18.5 -15.5t13.5 -28q1 -5 1.5 -10t0.5 -11q0 -9 -1.5 -19.5t-3.5 -22.5v1q-6 -28 -13.5 -47.5t-13.5 -32.5v-1q-7 -13 -16 -21t-22 -15t-30 -13.5t-40 -16.5q6 16 14.5 36
t17.5 40.5t18.5 40.5t17.5 36q2 10 2 15q0 10 -4 14q-7 5 -17 5h-7q-44 -3 -96 -30.5t-102 -67t-94 -84.5t-72 -82q-24 -31 -51 -73.5t-50 -85t-39 -79t-18 -54.5q-3 -9 -3 -15q0 -4 1 -5q1 -19 17 -33q13 -5 27 -8q10 -3 24 -3h7q4 0 9 1q37 3 68 9t61 17t61.5 27t69.5 39
q15 9 35 22t41 26t40 22t33 9q12 -9 16 -18q1 -3 1 -9q0 -5 -5 -17q-40 -42 -96 -76.5t-125 -63.5q-5 -2 -9.5 -4t-9.5 -4l3 -6l-1 -2q-3 -19 -8 -35t-13 -32q-10 -19 -19 -31z" />
    <glyph glyph-name=".0200" unicode="&#xc8;" horiz-adv-x="596" 
d="M327 498q-4 -7 -11.5 -21t-16 -31t-17 -35t-13.5 -32q59 5 98.5 8.5t69.5 6t54.5 4.5t53.5 3q18 -4 23 -21q1 -2 1 -4t1 -3v-3q-3 -14 -14.5 -22.5t-28.5 -13.5t-38 -8.5t-43 -7.5q-23 -5 -51 -9.5t-59 -9.5q-17 -2 -30.5 -4t-24.5 -4q-20 -2 -31 -3t-17 -2t-8 -2.5
t-3 -3.5q-11 -16 -26.5 -39.5t-29.5 -49t-24 -49.5q-8 -20 -8 -35v-6q0 -23 31 -23q51 0 171 15q31 5 58.5 11t49.5 12q6 2 14 4t18 4q15 4 31 4h6q16 -1 25 -12q3 -5 3 -14q0 -8 -5 -25l-16 -13q-100 -33 -197 -48.5t-194 -15.5q-35 0 -62 3.5t-39 26.5q-6 10 -6 31v10
q1 6 9 27.5t21.5 51.5t33 65.5t43.5 68.5q-11 11 -22.5 23t-19.5 20q21 22 41.5 33t56.5 13l3 5q7 16 18 39.5t23 48t24 47.5t21 40q34 66 95 66q32 0 79.5 3.5t113.5 10.5q25 2 39.5 3.5t25 2.5t19.5 1.5t23 0.5q22 0 37.5 -9t36.5 -41q-35 -8 -59.5 -13t-50 -9t-57 -7
t-79.5 -7q-26 -2 -52.5 -4.5t-54.5 -4.5q-35 -3 -63 -49v1zM431 795q10 -2 21 -4t21 -4l15 -3q26 -6 58.5 -14.5t63 -18.5t55 -23t34.5 -28q3 -8 3 -14t-3 -13q-7 -10 -22 -12q-3 -1 -9 -1q-11 0 -24 3q-18 4 -38 11.5t-39 13.5q-19 5 -33.5 8.5t-34.5 10.5q-35 13 -60 36
q-8 18 -12 26l-6 12t-3 7t-3 11q6 -2 16 -4z" />
    <glyph glyph-name=".0201" unicode="&#xc9;" horiz-adv-x="596" 
d="M332 517q-4 -7 -12.5 -24t-18 -37.5t-18.5 -41.5t-14 -35q59 5 98.5 8.5t69.5 6t54.5 4.5t53.5 3q18 -4 23 -21q1 -2 1 -4t1 -3v-3q-3 -14 -14.5 -22.5t-28.5 -13.5t-38 -8.5t-43 -7.5q-23 -5 -51 -9.5t-59 -9.5q-17 -2 -30.5 -4t-24.5 -4q-20 -2 -31 -3t-17 -2t-8 -2.5
t-3 -3.5q-11 -16 -26.5 -39.5t-29.5 -49t-24 -49.5q-8 -20 -8 -35v-6q0 -23 31 -23q51 0 171 15q31 5 58.5 11t49.5 12q6 2 14 4t18 4q15 4 31 4h6q16 -1 25 -12q3 -5 3 -14q0 -8 -5 -25l-16 -13q-100 -33 -197 -48.5t-194 -15.5q-35 0 -62 3.5t-39 26.5q-6 10 -6 31v10
q1 6 9 27.5t21.5 51.5t33 65.5t43.5 68.5q-11 11 -22.5 23t-19.5 20q21 22 41.5 33t56.5 13l3 5q7 16 19 42.5t25 54.5t25.5 54t21.5 43q34 66 95 66q32 0 79.5 3.5t113.5 10.5q25 2 39.5 3.5t25 2.5t19.5 1.5t23 0.5q22 0 37.5 -9t36.5 -41q-35 -8 -59.5 -13t-50 -9t-57 -7
t-79.5 -7q-26 -2 -52.5 -4.5t-54.5 -4.5q-35 -3 -63 -49v1zM575.5 698.5q-11.5 -3.5 -27.5 -8.5q-16 -6 -32.5 -13.5t-31.5 -11.5q-9 -4 -21 -4q-4 0 -6 1q-11 1 -19 12q-3 7 -3 14q0 14 12 25q11 13 31.5 23.5t44.5 19.5t48 16.5t42 13.5q4 1 12.5 3t17.5 4t17.5 4t13.5 4
q-2 -8 -2.5 -11t-2 -7t-4.5 -12.5t-9 -26.5h-2q-19 -22 -50 -35q-17 -7 -28.5 -10.5z" />
    <glyph glyph-name=".0202" unicode="&#xca;" horiz-adv-x="596" 
d="M332 492q-4 -7 -12 -20t-17 -28.5t-18 -32.5t-14 -31q59 5 98.5 8.5t69.5 6t54.5 4.5t53.5 3q18 -4 23 -21q1 -2 1 -4t1 -3v-3q-3 -14 -14.5 -22.5t-28.5 -13.5t-38 -8.5t-43 -7.5q-23 -5 -51 -9.5t-59 -9.5q-17 -2 -30.5 -4t-24.5 -4q-20 -2 -31 -3t-17 -2t-8 -2.5
t-3 -3.5q-11 -16 -26.5 -39.5t-29.5 -49t-24 -49.5q-8 -20 -8 -35v-6q0 -23 31 -23q51 0 171 15q31 5 58.5 11t49.5 12q6 2 14 4t18 4q15 4 31 4h6q16 -1 25 -12q3 -5 3 -14q0 -8 -5 -25l-16 -13q-100 -33 -197 -48.5t-194 -15.5q-35 0 -62 3.5t-39 26.5q-6 10 -6 31v10
q1 6 9 27.5t21.5 51.5t33 65.5t43.5 68.5q-11 11 -22.5 23t-19.5 20q21 22 41.5 33t56.5 13l3 5q7 16 18.5 38t24 45t25 45.5t21.5 39.5q34 66 95 66q32 0 79.5 3.5t113.5 10.5q25 2 39.5 3.5t25 2.5t19.5 1.5t23 0.5q22 0 37.5 -9t36.5 -41q-35 -8 -59.5 -13t-50 -9t-57 -7
t-79.5 -7q-26 -2 -52.5 -4.5t-54.5 -4.5q-35 -3 -63 -49v1zM491 694v1q-20 -14 -41.5 -19.5t-36.5 -6.5h-27q-18 0 -21 -1l-5 -1q12 9 27.5 20.5t30 22.5t26 19.5t16.5 11.5q18 15 27.5 25.5t17 17t16 10t24.5 4.5h2q19 0 42 -21q11 -11 24 -24.5t27 -27.5q18 -11 26 -23
q4 -7 4 -13q0 -7 -3 -11q-10 -10 -24 -10q-3 0 -6 0.5t-7 1.5q-19 5 -45 21t-45 36z" />
    <glyph glyph-name=".0203" unicode="&#xcb;" horiz-adv-x="596" 
d="M330 506q-4 -6 -12 -21.5t-17.5 -34.5t-18 -38t-13.5 -33q59 5 98.5 8.5t69.5 6t54.5 4.5t53.5 3q18 -4 23 -21q1 -2 1 -4t1 -3v-3q-3 -14 -14.5 -22.5t-28.5 -13.5t-38 -8.5t-43 -7.5q-23 -5 -51 -9.5t-59 -9.5q-17 -2 -30.5 -4t-24.5 -4q-20 -2 -31 -3t-17 -2t-8 -2.5
t-3 -3.5q-11 -16 -26.5 -39.5t-29.5 -49t-24 -49.5q-8 -20 -8 -35v-6q0 -23 31 -23q51 0 171 15q31 5 58.5 11t49.5 12q6 2 14 4t18 4q15 4 31 4h6q16 -1 25 -12q3 -5 3 -14q0 -8 -5 -25l-16 -13q-100 -33 -197 -48.5t-194 -15.5q-35 0 -62 3.5t-39 26.5q-6 10 -6 31v10
q1 6 9 27.5t21.5 51.5t33 65.5t43.5 68.5q-11 11 -22.5 23t-19.5 20q21 22 41.5 33t56.5 13l3 5q7 16 18.5 40.5t24 50.5t25 50.5t21.5 41.5q34 66 95 66q32 0 79.5 3.5t113.5 10.5q25 2 39.5 3.5t25 2.5t19.5 1.5t23 0.5q22 0 37.5 -9t36.5 -41q-35 -8 -59.5 -13t-50 -9
t-57 -7t-79.5 -7q-26 -2 -52.5 -4.5t-54.5 -4.5q-35 -3 -63 -49v1zM691 768.5q3 -12.5 3 -23.5q0 -5 -2 -14t-4 -14q-5 -13 -17 -28q-11 -12 -33 -12h-4q-7 0 -15.5 4t-10.5 16q-3 10 -3 20q0 5 1 8q2 16 11 28q8 14 25 24t43 21q3 -17 6 -29.5zM519 772.5q3 -12.5 3 -23.5
q0 -5 -2 -14.5t-4 -14.5q-6 -16 -16 -27q-11 -12 -34 -12h-4q-7 0 -15.5 4t-10.5 15q-3 10 -3 21q0 5 1 8q2 15 12 28q8 14 24.5 24t42.5 20q3 -16 6 -28.5z" />
    <glyph glyph-name=".0204" unicode="&#xcc;" horiz-adv-x="373" 
d="M389 560q0 -5 -7 -18.5t-17.5 -33t-23 -42.5t-22.5 -46q-16 -34 -24.5 -51.5t-13 -27t-6.5 -14t-5.5 -12t-10 -22.5t-19.5 -44q-7 -17 -16.5 -40t-20 -47.5t-20 -48t-15.5 -39.5q-9 -35 -23 -52t-31 -22h-9q-7 0 -10 1q-14 6 -20.5 18.5t-8.5 19.5l13 52q3 15 7.5 33.5
t13.5 44.5t22.5 61t34.5 82q32 72 63 125t51 88q12 22 19 34t12 19t9 11.5t10 11.5q7 2 23 8.5t40 13.5zM199 794q10 -2 21 -4t21 -4l15 -3q26 -6 58.5 -14.5t63 -18.5t55 -23t34.5 -28q3 -8 3 -14t-3 -13q-7 -10 -22 -12q-3 -1 -9 -1q-11 0 -24 3q-18 4 -38 11.5t-39 13.5
q-19 5 -33.5 8.5t-34.5 10.5q-35 13 -60 36q-8 18 -12 26l-6 12t-3 7t-3 11q6 -2 16 -4z" />
    <glyph glyph-name=".0205" unicode="&#xcd;" horiz-adv-x="373" 
d="M389 560q0 -5 -7 -18.5t-17.5 -33t-23 -42.5t-22.5 -46q-16 -34 -24.5 -51.5t-13 -27t-6.5 -14t-5.5 -12t-10 -22.5t-19.5 -44q-7 -17 -16.5 -40t-20 -47.5t-20 -48t-15.5 -39.5q-9 -35 -23 -52t-31 -22h-9q-7 0 -10 1q-14 6 -20.5 18.5t-8.5 19.5l13 52q3 15 7.5 33.5
t13.5 44.5t22.5 61t34.5 82q32 72 63 125t51 88q12 22 19 34t12 19t9 11.5t10 11.5q7 2 23 8.5t40 13.5zM475.5 690.5q-11.5 -3.5 -27.5 -8.5q-16 -6 -32.5 -13.5t-31.5 -11.5q-9 -4 -21 -4q-4 0 -6 1q-11 1 -19 12q-3 7 -3 14q0 14 12 25q11 13 31.5 23.5t44.5 19.5
t48 16.5t42 13.5q4 1 12.5 3t17.5 4t17.5 4t13.5 4q-2 -8 -2.5 -11t-2 -7t-4.5 -12.5t-9 -26.5h-2q-19 -22 -50 -35q-17 -7 -28.5 -10.5z" />
    <glyph glyph-name=".0206" unicode="&#xce;" horiz-adv-x="373" 
d="M389 560q0 -5 -7 -18.5t-17.5 -33t-23 -42.5t-22.5 -46q-16 -34 -24.5 -51.5t-13 -27t-6.5 -14t-5.5 -12t-10 -22.5t-19.5 -44q-7 -17 -16.5 -40t-20 -47.5t-20 -48t-15.5 -39.5q-9 -35 -23 -52t-31 -22h-9q-7 0 -10 1q-14 6 -20.5 18.5t-8.5 19.5l13 52q3 15 7.5 33.5
t13.5 44.5t22.5 61t34.5 82q32 72 63 125t51 88q12 22 19 34t12 19t9 11.5t10 11.5q7 2 23 8.5t40 13.5zM373 686v1q-11 -5 -23 -8.5t-23 -4.5q-5 -1 -9 -1h-8q-6 0 -11 0.5t-10 1.5l-12.5 2.5t-14.5 2.5t-13 2t-9 1h-6q14 8 31.5 17.5t34.5 17.5t30.5 14.5t19.5 8.5
q16 9 26 16.5t17.5 13.5t14 9.5t14.5 5.5q3 1 11 1q10 0 15 -1q20 -5 39.5 -33.5t42.5 -64.5q16 -14 22 -30q2 -8 2 -12q0 -6 -5 -14q-8 -7 -19 -7t-21 6q-18 10 -41.5 32t-38.5 47z" />
    <glyph glyph-name=".0207" unicode="&#xcf;" horiz-adv-x="373" 
d="M389 560q0 -5 -7 -18.5t-17.5 -33t-23 -42.5t-22.5 -46q-16 -34 -24.5 -51.5t-13 -27t-6.5 -14t-5.5 -12t-10 -22.5t-19.5 -44q-7 -17 -16.5 -40t-20 -47.5t-20 -48t-15.5 -39.5q-9 -35 -23 -52t-31 -22h-9q-7 0 -10 1q-14 6 -20.5 18.5t-8.5 19.5l13 52q3 15 7.5 33.5
t13.5 44.5t22.5 61t34.5 82q32 72 63 125t51 88q12 22 19 34t12 19t9 11.5t10 11.5q7 2 23 8.5t40 13.5zM547 765.5q3 -12.5 3 -23.5q0 -5 -2 -14t-4 -14q-5 -13 -17 -28q-11 -12 -33 -12h-4q-7 0 -15.5 4t-10.5 16q-3 10 -3 20q0 5 1 8q2 16 11 28q8 14 25 24t43 21
q3 -17 6 -29.5zM375 769.5q3 -12.5 3 -23.5q0 -5 -2 -14.5t-4 -14.5q-6 -16 -16 -27q-11 -12 -34 -12h-4q-7 0 -15.5 4t-10.5 15q-3 10 -3 21q0 5 1 8q2 15 12 28q8 14 24.5 24t42.5 20q3 -16 6 -28.5z" />
    <glyph glyph-name=".0209" unicode="&#xd1;" horiz-adv-x="757" 
d="M421 9.5q-20 8.5 -37.5 26.5t-31 45.5t-18.5 65.5l-2 18t-1.5 22.5t-1.5 36t-2 58.5q-14 -20 -30.5 -43t-33.5 -49q-5 -7 -9.5 -14l-13.5 -21t-24 -37t-40 -61q-6 -9 -14.5 -18t-18.5 -17.5t-21 -14.5t-22 -7q-3 -1 -8 -1q-9 0 -19 5q-7 4 -7 16q0 6 1 9q2 12 9.5 28.5
t17 34t20.5 35.5t21 34q31 45 53.5 77.5t40 58.5t32.5 48t31 46t35 53.5t45 69.5q2 3 13 9.5t25.5 14t31 15t29.5 13.5q-10 -27 -20 -62.5t-18.5 -74.5t-14 -77.5t-5.5 -70.5q0 -28 3 -58q3 -23 7.5 -46t11 -42t17 -31.5t25.5 -13.5h5q13 0 30 9q26 16 54 53t51 83
q28 56 55 112t54.5 115t56 122t60.5 133q1 4 11.5 9.5t26.5 12.5t34 15t35 17q-18 -45 -45.5 -108.5t-60 -134t-66 -142t-63 -131t-52 -102t-32.5 -55.5v-1q-25 -35 -51.5 -54.5t-50 -28.5t-42.5 -11t-28 -2q-18 0 -38 8.5zM610 725q-22 0 -59 -34q-22 -22 -52 -37t-49 -23
q20 42 41.5 76t45.5 52l-1 -1q47 41 87 41q26 0 41 -22t22 -64v1q4 -18 7 -18q6 0 20 8t30 21q25 21 43.5 34t28.5 14l18 -27q-14 -26 -33 -50t-39.5 -42t-41 -29t-37.5 -11q-26 0 -40.5 17.5t-21.5 52.5q-5 41 -10 41z" />
    <glyph glyph-name=".0210" unicode="&#xd2;" horiz-adv-x="789" 
d="M99 30q-36 24 -52.5 54t-17.5 65q-1 3 -1 8q0 32 10 63q17 56 51 111.5t73 103.5q58 64 109 101.5t102 63.5q25 11 51.5 19t55.5 13q21 4 42 6t41 2h15q7 0 15 -1q55 -4 103 -27.5t77 -71.5q13 -24 18 -54q3 -23 3 -43v-10q0 -5 -1 -10q-2 -32 -10.5 -62.5t-20.5 -53.5
q-39 -78 -97.5 -135.5t-128.5 -95.5t-146 -57t-150 -19q-95 0 -141 30zM714.5 437q0.5 6 0.5 11q0 24 -10 47q-14 28 -43 43.5t-62 21.5q-21 3 -42 3h-13q-6 0 -13 -1q-17 -2 -32.5 -5t-28.5 -8q-20 -11 -32 -18t-20.5 -15t-15.5 -20.5t-17 -34.5q-2 -4 -5 -12.5t-7.5 -23
t-9.5 -36.5t-9 -54q-20 22 -31.5 33t-17 21t-7 23.5t-1.5 39.5q-16 -9 -42 -34t-52.5 -58t-48.5 -70.5t-30 -72.5q-5 -20 -5 -35q0 -14 5 -31q7 -30 43 -50q39 -21 87 -23q3 -1 9 -1q41 0 85 12q48 13 95.5 37t89.5 53q40 28 64 45.5t40.5 35.5t29 40t29.5 59q5 17 8.5 33.5
t7.5 33.5q1 5 1.5 11zM472 796q10 -2 21 -4t21 -4l15 -3q26 -6 58.5 -14.5t63 -18.5t55 -23t34.5 -28q3 -8 3 -14t-3 -13q-7 -10 -22 -12q-3 -1 -9 -1q-11 0 -24 3q-18 4 -38 11.5t-39 13.5q-19 5 -33.5 8.5t-34.5 10.5q-35 13 -60 36q-8 18 -12 26l-6 12t-3 7t-3 11
q6 -2 16 -4z" />
    <glyph glyph-name=".0211" unicode="&#xd3;" horiz-adv-x="789" 
d="M99 30q-36 24 -52.5 54t-17.5 65q-1 3 -1 8q0 32 10 63q17 56 51 111.5t73 103.5q58 64 109 101.5t102 63.5q25 11 51.5 19t55.5 13q21 4 42 6t41 2h15q7 0 15 -1q55 -4 103 -27.5t77 -71.5q13 -24 18 -54q3 -23 3 -43v-10q0 -5 -1 -10q-2 -32 -10.5 -62.5t-20.5 -53.5
q-39 -78 -97.5 -135.5t-128.5 -95.5t-146 -57t-150 -19q-95 0 -141 30zM714.5 437q0.5 6 0.5 11q0 24 -10 47q-14 28 -43 43.5t-62 21.5q-21 3 -42 3h-13q-6 0 -13 -1q-17 -2 -32.5 -5t-28.5 -8q-20 -11 -32 -18t-20.5 -15t-15.5 -20.5t-17 -34.5q-2 -4 -5 -12.5t-7.5 -23
t-9.5 -36.5t-9 -54q-20 22 -31.5 33t-17 21t-7 23.5t-1.5 39.5q-16 -9 -42 -34t-52.5 -58t-48.5 -70.5t-30 -72.5q-5 -20 -5 -35q0 -14 5 -31q7 -30 43 -50q39 -21 87 -23q3 -1 9 -1q41 0 85 12q48 13 95.5 37t89.5 53q40 28 64 45.5t40.5 35.5t29 40t29.5 59q5 17 8.5 33.5
t7.5 33.5q1 5 1.5 11zM642.5 697.5q-11.5 -3.5 -27.5 -8.5q-16 -6 -32.5 -13.5t-31.5 -11.5q-9 -4 -21 -4q-4 0 -6 1q-11 1 -19 12q-3 7 -3 14q0 14 12 25q11 13 31.5 23.5t44.5 19.5t48 16.5t42 13.5q4 1 12.5 3t17.5 4t17.5 4t13.5 4q-2 -8 -2.5 -11t-2 -7t-4.5 -12.5
t-9 -26.5h-2q-19 -22 -50 -35q-17 -7 -28.5 -10.5z" />
    <glyph glyph-name=".0212" unicode="&#xd4;" horiz-adv-x="789" 
d="M99 30q-36 24 -52.5 54t-17.5 65q-1 3 -1 8q0 32 10 63q17 56 51 111.5t73 103.5q58 64 109 101.5t102 63.5q25 11 51.5 19t55.5 13q21 4 42 6t41 2h15q7 0 15 -1q55 -4 103 -27.5t77 -71.5q13 -24 18 -54q3 -23 3 -43v-10q0 -5 -1 -10q-2 -32 -10.5 -62.5t-20.5 -53.5
q-39 -78 -97.5 -135.5t-128.5 -95.5t-146 -57t-150 -19q-95 0 -141 30zM714.5 437q0.5 6 0.5 11q0 24 -10 47q-14 28 -43 43.5t-62 21.5q-21 3 -42 3h-13q-6 0 -13 -1q-17 -2 -32.5 -5t-28.5 -8q-20 -11 -32 -18t-20.5 -15t-15.5 -20.5t-17 -34.5q-2 -4 -5 -12.5t-7.5 -23
t-9.5 -36.5t-9 -54q-20 22 -31.5 33t-17 21t-7 23.5t-1.5 39.5q-16 -9 -42 -34t-52.5 -58t-48.5 -70.5t-30 -72.5q-5 -20 -5 -35q0 -14 5 -31q7 -30 43 -50q39 -21 87 -23q3 -1 9 -1q41 0 85 12q48 13 95.5 37t89.5 53q40 28 64 45.5t40.5 35.5t29 40t29.5 59q5 17 8.5 33.5
t7.5 33.5q1 5 1.5 11zM551 699v1q-22 -11 -43.5 -15t-36.5 -4q-12 2 -26 3h-22l-5 1q12 8 28 18l32 20t28.5 17t17.5 9q19 13 29.5 22.5t19 15.5t17 9t24.5 3q21 -2 41.5 -26.5t46.5 -55.5q17 -14 24 -25q2 -8 2 -11q0 -8 -4 -13q-8 -8 -19 -8q-9 0 -18 4q-18 7 -42.5 24.5
t-41.5 39.5z" />
    <glyph glyph-name=".0213" unicode="&#xd5;" horiz-adv-x="789" 
d="M95 29q-35 23 -51 52.5t-17 62.5q-1 3 -1 8q0 31 10 61q15 54 48.5 107.5t71.5 100.5q57 61 106 97.5t98 61.5q24 10 50 18t55 13q43 8 81 8h15q7 0 14 -1q54 -4 100 -26t74 -70q13 -22 18 -52q3 -21 3 -42v-9q0 -4 -1 -9q-2 -31 -10 -60.5t-20 -51.5q-38 -75 -95 -131
t-124.5 -93t-141.5 -55.5t-147 -18.5q-89 0 -136 29zM692 423v22q-1 8 -2.5 17t-5.5 17q-14 27 -42 42t-61 20q-21 3 -41 3h-13q-6 0 -12 -1q-33 -3 -59 -12q-20 -11 -31.5 -18t-19.5 -15t-15 -20t-17 -33q-3 -8 -12 -33.5t-18 -87.5q-19 22 -30 33t-17 20t-7.5 21.5
t-1.5 37.5q-16 -9 -41 -32.5t-50.5 -55t-46.5 -68t-29 -70.5q-5 -20 -5 -35q0 -17 4 -29q7 -30 42 -48q39 -21 85 -23q3 -1 9 -1q41 0 83 12q46 13 91.5 36t87.5 51q39 27 62.5 44t40 34.5t28.5 39t28 57.5q4 16 8.5 32t6.5 32q1 5 1 11zM607 725q-22 0 -57 -32
q-22 -22 -51 -36t-47 -22q20 42 40.5 74t43.5 50l-1 -1q23 19 44 29t41 10q47 0 61 -83v1q5 -17 6 -17q6 0 20 7.5t29 19.5q24 21 42.5 34t26.5 13l18 -26q-13 -25 -31.5 -48t-38.5 -41t-40 -28.5t-36 -10.5q-26 0 -39.5 16.5t-20.5 51.5q-5 39 -10 39z" />
    <glyph glyph-name=".0214" unicode="&#xd6;" horiz-adv-x="789" 
d="M99 30q-36 24 -52.5 54t-17.5 65q-1 3 -1 8q0 32 10 63q17 56 51 111.5t73 103.5q58 64 109 101.5t102 63.5q25 11 51.5 19t55.5 13q21 4 42 6t41 2h15q7 0 15 -1q55 -4 103 -27.5t77 -71.5q13 -24 18 -54q3 -23 3 -43v-10q0 -5 -1 -10q-2 -32 -10.5 -62.5t-20.5 -53.5
q-39 -78 -97.5 -135.5t-128.5 -95.5t-146 -57t-150 -19q-95 0 -141 30zM714.5 437q0.5 6 0.5 11q0 24 -10 47q-14 28 -43 43.5t-62 21.5q-21 3 -42 3h-13q-6 0 -13 -1q-17 -2 -32.5 -5t-28.5 -8q-20 -11 -32 -18t-20.5 -15t-15.5 -20.5t-17 -34.5q-2 -4 -5 -12.5t-7.5 -23
t-9.5 -36.5t-9 -54q-20 22 -31.5 33t-17 21t-7 23.5t-1.5 39.5q-16 -9 -42 -34t-52.5 -58t-48.5 -70.5t-30 -72.5q-5 -20 -5 -35q0 -14 5 -31q7 -30 43 -50q39 -21 87 -23q3 -1 9 -1q41 0 85 12q48 13 95.5 37t89.5 53q40 28 64 45.5t40.5 35.5t29 40t29.5 59q5 17 8.5 33.5
t7.5 33.5q1 5 1.5 11zM703 766.5q3 -12.5 3 -23.5q0 -5 -2 -14t-4 -14q-5 -13 -17 -28q-11 -12 -33 -12h-4q-7 0 -15.5 4t-10.5 16q-3 10 -3 20q0 5 1 8q2 16 11 28q8 14 25 24t43 21q3 -17 6 -29.5zM531 770.5q3 -12.5 3 -23.5q0 -5 -2 -14.5t-4 -14.5q-6 -16 -16 -27
q-11 -12 -34 -12h-4q-7 0 -15.5 4t-10.5 15q-3 10 -3 21q0 5 1 8q2 15 12 28q8 14 24.5 24t42.5 20q3 -16 6 -28.5z" />
    <glyph glyph-name=".0216" unicode="&#xd8;" horiz-adv-x="631" 
d="M557.5 489.5q24.5 -45.5 24.5 -118.5q0 -57 -43.5 -105.5t-109.5 -90.5q-40 -24 -74.5 -37t-62.5 -18q-63 -100 -104 -117h-5q-26 0 -33 10q-8 8 -8 21q0 4 1 7q2 17 14 38.5t27 43.5q-32 8 -53.5 28t-25.5 58q-1 7 -1 13v27q0 7 1 15q3 43 25.5 95t80.5 107
q60 54 110.5 75t87.5 25q7 18 18.5 42t26 45.5t31 37t34.5 16.5l-4 -114l-15 -38q33 -20 57.5 -65.5zM229.5 190.5q0.5 2.5 2.5 4.5q10 19 26 46t32 55t30 54.5t20 44.5q10 23 18.5 45t17.5 43q-23 -8 -50 -23t-58 -41q-36 -33 -59.5 -67t-32.5 -63q-7 -18 -7 -37
q0 -6 2 -16q4 -23 26 -37q14 -10 30 -13q2 2 2.5 4.5zM434 408q-18 -40 -35.5 -77.5t-33.5 -71t-28 -58.5q11 5 22 10.5t22 10.5q39 26 72 52t50 64q10 21 10 53v5q-1 13 -3 29t-9 29q-14 23 -32 33q-17 -39 -35 -79z" />
    <glyph glyph-name=".0217" unicode="&#xd9;" horiz-adv-x="637" 
d="M81 70q-17 30 -18 72q-1 5 -1 9v8q0 33 7 57q10 45 35 102.5t63 121.5q16 25 35 50t39 46.5t39 38t36 24.5q10 6 20 6q8 0 16 -6q11 -9 13 -21v-2q0 -10 -5 -22q-6 -12 -15.5 -23t-18.5 -18q-47 -35 -78.5 -78.5t-51 -86t-30 -80t-15.5 -60.5q-5 -25 -5 -42q0 -34 16 -56
q25 -36 95 -36q90 0 169 85q18 18 38 42.5t39.5 53t37.5 59.5t32 62q8 18 14.5 33t11 31t7 35t4.5 44v78l66 99q3 -14 5 -36t3 -45.5t1.5 -46t0.5 -36.5q-1 -45 -12 -92q-20 -88 -57 -157.5t-97 -135.5q-66 -76 -139.5 -111.5t-173.5 -35.5q-89 0 -126 70zM336 795
q10 -2 21 -4t21 -4l15 -3q26 -6 58.5 -14.5t63 -18.5t55 -23t34.5 -28q3 -8 3 -14t-3 -13q-7 -10 -22 -12q-3 -1 -9 -1q-11 0 -24 3q-18 4 -38 11.5t-39 13.5q-19 5 -33.5 8.5t-34.5 10.5q-35 13 -60 36q-8 18 -12 26l-6 12t-3 7t-3 11q6 -2 16 -4z" />
    <glyph glyph-name=".0218" unicode="&#xda;" horiz-adv-x="637" 
d="M81 70q-17 30 -18 72q-1 5 -1 9v8q0 33 7 57q10 45 35 102.5t63 121.5q16 25 35 50t39 46.5t39 38t36 24.5q10 6 20 6q8 0 16 -6q11 -9 13 -21v-2q0 -10 -5 -22q-6 -12 -15.5 -23t-18.5 -18q-47 -35 -78.5 -78.5t-51 -86t-30 -80t-15.5 -60.5q-5 -25 -5 -42q0 -34 16 -56
q25 -36 95 -36q90 0 169 85q18 18 38 42.5t39.5 53t37.5 59.5t32 62q8 18 14.5 33t11 31t7 35t4.5 44v78l66 99q3 -14 5 -36t3 -45.5t1.5 -46t0.5 -36.5q-1 -45 -12 -92q-20 -88 -57 -157.5t-97 -135.5q-66 -76 -139.5 -111.5t-173.5 -35.5q-89 0 -126 70zM539.5 697.5
q-11.5 -3.5 -27.5 -8.5q-16 -6 -32.5 -13.5t-31.5 -11.5q-9 -4 -21 -4q-4 0 -6 1q-11 1 -19 12q-3 7 -3 14q0 14 12 25q11 13 31.5 23.5t44.5 19.5t48 16.5t42 13.5q4 1 12.5 3t17.5 4t17.5 4t13.5 4q-2 -8 -2.5 -11t-2 -7t-4.5 -12.5t-9 -26.5h-2q-19 -22 -50 -35
q-17 -7 -28.5 -10.5z" />
    <glyph glyph-name=".0219" unicode="&#xdb;" horiz-adv-x="637" 
d="M81 70q-17 30 -18 72q-1 5 -1 9v8q0 33 7 57q10 45 35 102.5t63 121.5q16 25 35 50t39 46.5t39 38t36 24.5q10 6 20 6q8 0 16 -6q11 -9 13 -21v-2q0 -10 -5 -22q-6 -12 -15.5 -23t-18.5 -18q-47 -35 -78.5 -78.5t-51 -86t-30 -80t-15.5 -60.5q-5 -25 -5 -42q0 -34 16 -56
q25 -36 95 -36q90 0 169 85q18 18 38 42.5t39.5 53t37.5 59.5t32 62q8 18 14.5 33t11 31t7 35t4.5 44v78l66 99q3 -14 5 -36t3 -45.5t1.5 -46t0.5 -36.5q-1 -45 -12 -92q-20 -88 -57 -157.5t-97 -135.5q-66 -76 -139.5 -111.5t-173.5 -35.5q-89 0 -126 70zM456 697v1
q-20 -13 -42 -17.5t-37 -4.5q-5 0 -12 0.5t-14 0.5h-22l-5 -1q12 9 28 20t31 21.5t27 18t17 9.5q19 14 29 24t18 17t16.5 10t24.5 3q21 0 43 -24t49 -53q18 -13 25 -24q3 -8 3 -13q0 -7 -3 -11q-11 -9 -24 -9q-4 0 -14 2q-18 6 -43.5 23t-43.5 38z" />
    <glyph glyph-name=".0220" unicode="&#xdc;" horiz-adv-x="637" 
d="M81 70q-17 30 -18 72q-1 5 -1 9v8q0 33 7 57q10 45 35 102.5t63 121.5q16 25 35 50t39 46.5t39 38t36 24.5q10 6 20 6q8 0 16 -6q11 -9 13 -21v-2q0 -10 -5 -22q-6 -12 -15.5 -23t-18.5 -18q-47 -35 -78.5 -78.5t-51 -86t-30 -80t-15.5 -60.5q-5 -25 -5 -42q0 -34 16 -56
q25 -36 95 -36q90 0 169 85q18 18 38 42.5t39.5 53t37.5 59.5t32 62q8 18 14.5 33t11 31t7 35t4.5 44v78l66 99q3 -14 5 -36t3 -45.5t1.5 -46t0.5 -36.5q-1 -45 -12 -92q-20 -88 -57 -157.5t-97 -135.5q-66 -76 -139.5 -111.5t-173.5 -35.5q-89 0 -126 70zM642 767.5
q3 -12.5 3 -23.5q0 -5 -2 -14t-4 -14q-5 -13 -17 -28q-11 -12 -33 -12h-4q-7 0 -15.5 4t-10.5 16q-3 10 -3 20q0 5 1 8q2 16 11 28q8 14 25 24t43 21q3 -17 6 -29.5zM470 771.5q3 -12.5 3 -23.5q0 -5 -2 -14.5t-4 -14.5q-6 -16 -16 -27q-11 -12 -34 -12h-4q-7 0 -15.5 4
t-10.5 15q-3 10 -3 21q0 5 1 8q2 15 12 28q8 14 24.5 24t42.5 20q3 -16 6 -28.5z" />
    <glyph glyph-name=".0221" unicode="&#xdd;" horiz-adv-x="458" 
d="M126 -98q-9 -4 -19 -4q-9 0 -16 4q-14 6 -19 23q-2 6 -2 8q0 14 12 34q29 48 64 96.5t61 102.5q2 2 2.5 4t1.5 4q-45 52 -67 98t-28 100q-3 25 -3 55q0 7 1 10q0 25 2.5 49t7.5 45t12 36.5t17 23.5q8 8 17 9h19q15 -1 17 -26v-9q0 -11 -0.5 -24t-1.5 -29q-3 -32 -3 -68
q0 -9 1 -14q0 -45 15 -87q4 -28 18.5 -51.5t29.5 -36.5q34 47 68 102t66 112.5t61.5 113.5t53.5 106q10 6 23 15t26 18.5t24 18t19 13.5t9 5v-1q-16 -45 -41.5 -104t-65.5 -149q-19 -36 -46 -83.5t-57.5 -100t-64 -107.5t-66 -106.5t-61.5 -97t-52 -79.5q-15 -23 -35 -29z
M463 793q10 1 15 1q6 0 9.5 -0.5t12.5 -1.5q-3 -4 -7.5 -11t-9.5 -14t-9.5 -13t-7.5 -9q-13 -16 -29 -35.5t-34 -38.5t-37 -34.5t-37 -24.5q-12 -6 -24 -6t-22 6q-9 7 -9 17q0 3 1 5q5 17 24 35.5t38 38.5q10 11 17.5 21.5t21.5 23.5q11 11 25 19.5t29 16.5l2 2q21 1 31 2z
" />
    <glyph glyph-name=".0223" unicode="&#xdf;" horiz-adv-x="523" 
d="M463 260q0 7 -1 14q-8 17 -21.5 26t-38.5 9q-9 0 -23.5 -4.5t-27.5 -4.5q-1 -1 -2 -1q-11 0 -19 8q-6 4 -6 16q0 4 0.5 7.5t1.5 8.5l3 6q6 13 22 26.5t42 22.5l-3 -2q16 9 34 27t34 40t28.5 46t17.5 44q1 1 1 7q0 21 -22 26t-49 5q-32 0 -60.5 -18t-56.5 -48
q-28 -31 -49 -64t-37.5 -67.5t-30.5 -71t-28 -74.5q-5 -14 -10.5 -29t-10.5 -30v1l-16.5 -49.5t-9.5 -31.5q-10 -19 -15 -31t-10 -16q-6 -4 -17 -10.5t-24 -14t-25.5 -14.5t-21.5 -10q-8 -3 -10 -3q-3 0 -3 2q1 12 6 33.5t24 63.5q3 5 6 15t8 24q10 28 27 71.5t43 100.5
q16 36 36 73.5t40 71t39 60.5t33 42q88 97 218 97q53 0 85 -35q11 -13 18.5 -29t7.5 -35q0 -14 -1.5 -26t-5.5 -24t-11.5 -26t-20.5 -33q-10 -17 -29.5 -40.5t-37.5 -46.5q18 -14 28.5 -31.5t15.5 -38.5q2 -7 3 -18t1 -36q-2 -36 -10 -69t-25.5 -61t-45.5 -48.5t-69 -31.5
q-17 -3 -29 -3q-19 0 -29 6q-19 10 -19 33v5q2 17 11.5 21.5t23.5 4.5q1 -1 9 -1t15.5 1.5t15.5 6.5q29 14 51 41t29 54q1 8 1.5 17t1.5 18v25z" />
    <glyph glyph-name="agrave" unicode="&#xe0;" horiz-adv-x="600" 
d="M556.5 4q-29.5 -3 -58.5 -4q-26 0 -43 3.5t-38 10.5q-23 10 -39 18t-30 19q-2 2 -4 3.5t-4 3.5q-20 -12 -53 -22.5t-68.5 -18t-69 -12t-54.5 -4.5q-26 0 -42.5 7.5t-30.5 15.5q-6 4 -10 13.5t-6 21.5q-1 5 -1.5 10t-0.5 10q0 4 1 6q0 13 3 25q6 35 25 74t47 77t64 73.5
t76 63.5t82.5 47t84.5 25q7 1 13.5 1.5t13.5 0.5q35 0 69 -14q21 -9 41 -34t22 -67v-6q0 -30 -9 -57q-17 -47 -44 -83.5t-49 -62.5q-5 -12 -6 -28q-1 -2 -1 -6q0 -12 10 -19q26 -17 51 -27.5t63 -10.5q11 0 24 3.5t24 6.5q15 -5 15 -15q0 -1 -2 -7l-12 -17
q-24 -21 -53.5 -24zM372.5 175q21.5 19 42 45.5t37 59.5t21.5 71v3q0 10 -4 18q-9 14 -25 25t-30 11q-22 0 -53.5 -11.5t-63.5 -28.5t-67 -48.5t-66 -68.5t-53 -73.5t-27 -62.5q-2 -8 -2 -12q0 -12 8 -20q13 -13 40 -13h8q23 1 50 8.5t51.5 16.5t45 19t30.5 17l21 15
q15 10 36.5 29zM313 726q10 -2 21 -4t21 -4l15 -3q26 -6 58.5 -14.5t63 -18.5t55 -23t34.5 -28q3 -8 3 -14t-3 -13q-7 -10 -22 -12q-3 -1 -9 -1q-11 0 -24 3q-18 4 -38 11.5t-39 13.5q-19 5 -33.5 8.5t-34.5 10.5q-35 13 -60 36q-8 18 -12 26l-6 12t-3 7t-3 11q6 -2 16 -4z
" />
    <glyph glyph-name=".0225" unicode="&#xe1;" horiz-adv-x="600" 
d="M556.5 4q-29.5 -3 -58.5 -4q-26 0 -43 3.5t-38 10.5q-23 10 -39 18t-30 19q-2 2 -4 3.5t-4 3.5q-20 -12 -53 -22.5t-68.5 -18t-69 -12t-54.5 -4.5q-26 0 -42.5 7.5t-30.5 15.5q-6 4 -10 13.5t-6 21.5q-1 5 -1.5 10t-0.5 10q0 4 1 6q0 13 3 25q6 35 25 74t47 77t64 73.5
t76 63.5t82.5 47t84.5 25q7 1 13.5 1.5t13.5 0.5q35 0 69 -14q21 -9 41 -34t22 -67v-6q0 -30 -9 -57q-17 -47 -44 -83.5t-49 -62.5q-5 -12 -6 -28q-1 -2 -1 -6q0 -12 10 -19q26 -17 51 -27.5t63 -10.5q11 0 24 3.5t24 6.5q15 -5 15 -15q0 -1 -2 -7l-12 -17
q-24 -21 -53.5 -24zM372.5 175q21.5 19 42 45.5t37 59.5t21.5 71v3q0 10 -4 18q-9 14 -25 25t-30 11q-22 0 -53.5 -11.5t-63.5 -28.5t-67 -48.5t-66 -68.5t-53 -73.5t-27 -62.5q-2 -8 -2 -12q0 -12 8 -20q13 -13 40 -13h8q23 1 50 8.5t51.5 16.5t45 19t30.5 17l21 15
q15 10 36.5 29zM488.5 582.5q-11.5 -3.5 -27.5 -8.5q-16 -6 -32.5 -13.5t-31.5 -11.5q-9 -4 -21 -4q-4 0 -6 1q-11 1 -19 12q-3 7 -3 14q0 14 12 25q11 13 31.5 23.5t44.5 19.5t48 16.5t42 13.5q4 1 12.5 3t17.5 4t17.5 4t13.5 4q-2 -8 -2.5 -11t-2 -7t-4.5 -12.5t-9 -26.5
h-2q-19 -22 -50 -35q-17 -7 -28.5 -10.5z" />
    <glyph glyph-name="acircumflex" unicode="&#xe2;" horiz-adv-x="600" 
d="M556.5 4q-29.5 -3 -58.5 -4q-26 0 -43 3.5t-38 10.5q-23 10 -39 18t-30 19q-2 2 -4 3.5t-4 3.5q-20 -12 -53 -22.5t-68.5 -18t-69 -12t-54.5 -4.5q-26 0 -42.5 7.5t-30.5 15.5q-6 4 -10 13.5t-6 21.5q-1 5 -1.5 10t-0.5 10q0 4 1 6q0 13 3 25q6 35 25 74t47 77t64 73.5
t76 63.5t82.5 47t84.5 25q7 1 13.5 1.5t13.5 0.5q35 0 69 -14q21 -9 41 -34t22 -67v-6q0 -30 -9 -57q-17 -47 -44 -83.5t-49 -62.5q-5 -12 -6 -28q-1 -2 -1 -6q0 -12 10 -19q26 -17 51 -27.5t63 -10.5q11 0 24 3.5t24 6.5q15 -5 15 -15q0 -1 -2 -7l-12 -17
q-24 -21 -53.5 -24zM372.5 175q21.5 19 42 45.5t37 59.5t21.5 71v3q0 10 -4 18q-9 14 -25 25t-30 11q-22 0 -53.5 -11.5t-63.5 -28.5t-67 -48.5t-66 -68.5t-53 -73.5t-27 -62.5q-2 -8 -2 -12q0 -12 8 -20q13 -13 40 -13h8q23 1 50 8.5t51.5 16.5t45 19t30.5 17l21 15
q15 10 36.5 29zM449 581v1q-22 -12 -43.5 -16.5t-36.5 -4.5q-5 1 -12 1q-6 0 -14 1q-5 1 -9 1h-5q-6 0 -8 -1h-5q12 8 28 19t31.5 21t28 17.5t17.5 9.5q19 13 29 23t17.5 16t16 9t25.5 3q21 -1 42.5 -25t47.5 -54q8 -7 14.5 -13t10.5 -12q3 -8 3 -12q0 -7 -4 -12
q-10 -8 -21 -8q-7 0 -16 3q-19 6 -44 23.5t-42 39.5z" />
    <glyph glyph-name=".0227" unicode="&#xe3;" horiz-adv-x="600" 
d="M556.5 4q-29.5 -3 -58.5 -4q-26 0 -43 3.5t-38 10.5q-23 10 -39 18t-30 19q-2 2 -4 3.5t-4 3.5q-20 -12 -53 -22.5t-68.5 -18t-69 -12t-54.5 -4.5q-26 0 -42.5 7.5t-30.5 15.5q-6 4 -10 13.5t-6 21.5q-1 5 -1.5 10t-0.5 10q0 4 1 6q0 13 3 25q6 35 25 74t47 77t64 73.5
t76 63.5t82.5 47t84.5 25q7 1 13.5 1.5t13.5 0.5q35 0 69 -14q21 -9 41 -34t22 -67v-6q0 -30 -9 -57q-17 -47 -44 -83.5t-49 -62.5q-5 -12 -6 -28q-1 -2 -1 -6q0 -12 10 -19q26 -17 51 -27.5t63 -10.5q11 0 24 3.5t24 6.5q15 -5 15 -15q0 -1 -2 -7l-12 -17
q-24 -21 -53.5 -24zM372.5 175q21.5 19 42 45.5t37 59.5t21.5 71v3q0 10 -4 18q-9 14 -25 25t-30 11q-22 0 -53.5 -11.5t-63.5 -28.5t-67 -48.5t-66 -68.5t-53 -73.5t-27 -62.5q-2 -8 -2 -12q0 -12 8 -20q13 -13 40 -13h8q23 1 50 8.5t51.5 16.5t45 19t30.5 17l21 15
q15 10 36.5 29zM422 681q-22 0 -59 -34q-22 -22 -52 -37t-49 -23q20 42 41.5 76t45.5 52l-1 -1q47 41 87 41q26 0 41 -22t22 -64v1q4 -18 7 -18q6 0 20 8t30 21q25 21 43.5 34t28.5 14l18 -27q-14 -26 -33 -50t-39.5 -42t-41 -29t-37.5 -11q-26 0 -40.5 17.5t-21.5 52.5
q-5 41 -10 41z" />
    <glyph glyph-name=".0228" unicode="&#xe4;" horiz-adv-x="600" 
d="M556.5 4q-29.5 -3 -58.5 -4q-26 0 -43 3.5t-38 10.5q-23 10 -39 18t-30 19q-2 2 -4 3.5t-4 3.5q-20 -12 -53 -22.5t-68.5 -18t-69 -12t-54.5 -4.5q-26 0 -42.5 7.5t-30.5 15.5q-6 4 -10 13.5t-6 21.5q-1 5 -1.5 10t-0.5 10q0 4 1 6q0 13 3 25q6 35 25 74t47 77t64 73.5
t76 63.5t82.5 47t84.5 25q7 1 13.5 1.5t13.5 0.5q35 0 69 -14q21 -9 41 -34t22 -67v-6q0 -30 -9 -57q-17 -47 -44 -83.5t-49 -62.5q-5 -12 -6 -28q-1 -2 -1 -6q0 -12 10 -19q26 -17 51 -27.5t63 -10.5q11 0 24 3.5t24 6.5q15 -5 15 -15q0 -1 -2 -7l-12 -17
q-24 -21 -53.5 -24zM372.5 175q21.5 19 42 45.5t37 59.5t21.5 71v3q0 10 -4 18q-9 14 -25 25t-30 11q-22 0 -53.5 -11.5t-63.5 -28.5t-67 -48.5t-66 -68.5t-53 -73.5t-27 -62.5q-2 -8 -2 -12q0 -12 8 -20q13 -13 40 -13h8q23 1 50 8.5t51.5 16.5t45 19t30.5 17l21 15
q15 10 36.5 29zM582 661.5q3 -12.5 3 -23.5q0 -5 -2 -14t-4 -14q-5 -13 -17 -28q-11 -12 -33 -12h-4q-7 0 -15.5 4t-10.5 16q-3 10 -3 20q0 5 1 8q2 16 11 28q8 14 25 24t43 21q3 -17 6 -29.5zM410 665.5q3 -12.5 3 -23.5q0 -5 -2 -14.5t-4 -14.5q-6 -16 -16 -27
q-11 -12 -34 -12h-4q-7 0 -15.5 4t-10.5 15q-3 10 -3 21q0 5 1 8q2 15 12 28q8 14 24.5 24t42.5 20q3 -16 6 -28.5z" />
    <glyph glyph-name=".0229" unicode="&#xe5;" horiz-adv-x="600" 
d="M610 28q-24 -21 -53.5 -24t-58.5 -4q-26 0 -43 3.5t-38 10.5q-23 10 -39 18t-30 19q-2 2 -4 3.5t-4 3.5q-20 -12 -53 -22.5t-68.5 -18t-69 -12t-54.5 -4.5q-26 0 -42.5 7.5t-30.5 15.5q-6 4 -10 13.5t-6 21.5q-1 5 -1.5 10t-0.5 10q0 4 1 6q0 13 3 25q6 35 25 74t47 77
t64 73.5t76 63.5t82.5 47t84.5 25q7 1 13.5 1.5t13.5 0.5q35 0 69 -14q21 -9 41 -34t22 -67v-6q0 -30 -9 -57q-17 -47 -44 -83.5t-49 -62.5q-5 -12 -6 -28q-1 -2 -1 -6q0 -12 10 -19q26 -17 51 -27.5t63 -10.5q11 0 24 3.5t24 6.5q15 -5 15 -15q0 -1 -2 -7zM336 146
q15 10 36.5 29t42 45.5t37 59.5t21.5 71v3q0 10 -4 18q-9 14 -25 25t-30 11q-22 0 -53.5 -11.5t-63.5 -28.5t-67 -48.5t-66 -68.5t-53 -73.5t-27 -62.5q-2 -8 -2 -12q0 -12 8 -20q13 -13 40 -13h8q23 1 50 8.5t51.5 16.5t45 19t30.5 17z" />
    <glyph glyph-name=".0230" unicode="&#xe6;" horiz-adv-x="994" 
d="M660 200q-20 0 -39.5 1.5t-36.5 5.5q-11 -8 -21.5 -27.5t-16.5 -44.5l-1.5 -7.5t-0.5 -3.5q0 -25 34 -41q17 -8 40.5 -13t46.5 -5q31 0 69 6t76 17q15 3 26.5 6t24 7.5t30 11t44.5 16.5q31 9 43 9h3q2 -2 2 -3q0 -6 -17 -23q-11 -11 -17.5 -17t-11.5 -10.5t-10.5 -8
t-14.5 -9.5q-17 -8 -37.5 -19.5t-43.5 -19.5q-40 -14 -78.5 -20.5t-76.5 -6.5q-33 0 -59 1.5t-45 5.5q-17 -5 -35 -5.5t-36 -0.5q-26 0 -43 3.5t-38 10.5q-23 10 -39 18t-30 19q-2 2 -4 3.5t-4 3.5q-20 -12 -53 -22.5t-68.5 -18t-69 -12t-54.5 -4.5q-26 0 -42.5 7.5
t-30.5 15.5q-6 4 -10 13.5t-6 21.5q-1 5 -1.5 10t-0.5 10q0 4 1 6q0 13 3 25q6 35 25 74t47 77t64 73.5t76 63.5t82.5 47t84.5 25q7 1 13.5 1.5t13.5 0.5q35 0 69 -14q21 -9 41 -34t22 -67v-6q0 -30 -9 -57q-17 -47 -44 -83.5t-49 -62.5q-5 -12 -6 -28q-1 -2 -1 -6
q0 -12 10 -19q5 -4 10.5 -7t11.5 -7q-2 6 -2 10v13q0 128 167 256q58 46 116 62t119 16q34 0 60.5 -10t35.5 -38q1 -5 1.5 -9.5t0.5 -9.5q0 -13 -4 -28q-11 -36 -42.5 -62.5t-73 -44.5t-88 -27.5t-86.5 -10.5h-16zM375.5 177q21.5 19 42 45.5t37 59.5t21.5 71v3q0 10 -4 18
q-9 14 -25 25t-30 11q-22 0 -53.5 -11.5t-63.5 -28.5t-67 -48.5t-66 -68.5t-53 -73.5t-27 -62.5q-2 -8 -2 -12q0 -12 8 -20q13 -13 40 -13h8q23 1 50 8.5t51.5 16.5t45 19t30.5 17l21 15q15 10 36.5 29zM799 367q-37 -12 -85 -38q-17 -9 -27.5 -15.5t-18 -12t-12 -10.5
t-9.5 -11h30q18 0 43 2t51.5 7.5t52.5 15t46 24.5l18 18q7 6 7 17q0 3 -2 11q0 1 -1 2h1q-8 3 -27 3q-30 -1 -67 -13z" />
    <glyph glyph-name="ccedilla" unicode="&#xe7;" horiz-adv-x="511" 
d="M311 -6q-1 -4 -3 -17q-13 -61 -68 -105.5t-155 -67.5q31 61 76 97q20 17 32.5 28t15.5 16l-1 -1q6 12 13.5 29t15.5 30q-10 2 -19.5 2.5t-17.5 2.5q-79 12 -131 57q-31 26 -41 67q-7 24 -7 49q0 16 3 33q10 49 38 88.5t66 69.5t83 50t90 30q54 12 101 12h13
q32 -2 53 -14.5t32 -40.5q9 -20 9 -49q0 -21 -3.5 -43.5t-10.5 -42.5t-16 -36t-21 -24q-22 -16 -39 -19q-10 -2 -14 -2q-6 0 -12 2q-11 3 -12 12q-1 1 -1 5q0 6 3 12t7.5 16t9.5 21q5 13 9 21t8 15q7 17 10 29t4 18q5 13 5 22v2q-2 17 -9.5 25.5t-14.5 8.5q-5 1 -10.5 1.5
t-12.5 0.5q-26 0 -62 -9q-54 -14 -121 -56q-38 -23 -65 -60q-24 -35 -30 -63q-3 -14 -3 -28q0 -9 1 -18.5t3 -19.5q4 -29 27 -43q38 -26 115 -39q23 -2 41 -4t30 -3q8 -1 16 -1.5t16 -0.5h12q42 2 76.5 4.5t54.5 7.5q4 1 7.5 1.5t8.5 1.5h2q6 0 11 -3q4 -1 4 -7v-3
q-1 -6 -15 -20l-31 -19q-13 -6 -32.5 -10t-43 -7t-49 -4t-51.5 -1v-6z" />
    <glyph glyph-name="egrave" unicode="&#xe8;" horiz-adv-x="528" 
d="M194 199q-20 0 -39.5 1.5t-36.5 5.5q-11 -8 -21.5 -27.5t-16.5 -44.5l-1.5 -7.5t-0.5 -3.5q0 -25 34 -41q17 -8 40.5 -13t46.5 -5q31 0 69 6t76 17q15 3 26.5 6t24 7.5t30 11t44.5 16.5q31 9 43 9h3q2 -2 2 -3q0 -6 -17 -23q-11 -11 -17.5 -17t-11.5 -10.5t-10.5 -8
t-14.5 -9.5q-17 -8 -37.5 -19.5t-43.5 -19.5q-40 -14 -78.5 -20.5t-76.5 -6.5q-90 0 -133 15q-73 25 -73 87v3q0 128 167 256q58 46 116 62t119 16q34 0 60.5 -10t35.5 -38q1 -5 1.5 -9.5t0.5 -9.5q0 -13 -4 -28q-11 -36 -42.5 -62.5t-73 -44.5t-88 -27.5t-86.5 -10.5h-16z
M283 679q10 -2 21 -4t21 -4l15 -3q26 -6 58.5 -14.5t63 -18.5t55 -23t34.5 -28q3 -8 3 -14t-3 -13q-7 -10 -22 -12q-3 -1 -9 -1q-11 0 -24 3q-18 4 -38 11.5t-39 13.5q-19 5 -33.5 8.5t-34.5 10.5q-35 13 -60 36q-8 18 -12 26l-6 12t-3 7t-3 11q6 -2 16 -4zM333 366
q-37 -12 -85 -38q-17 -9 -27.5 -15.5t-18 -12t-12 -10.5t-9.5 -11h30q18 0 43 2t51.5 7.5t52.5 15t46 24.5l18 18q7 6 7 17q0 3 -2 11q0 1 -1 2h1q-8 3 -27 3q-30 -1 -67 -13z" />
    <glyph glyph-name="eacute" unicode="&#xe9;" horiz-adv-x="528" 
d="M194 199q-20 0 -39.5 1.5t-36.5 5.5q-11 -8 -21.5 -27.5t-16.5 -44.5l-1.5 -7.5t-0.5 -3.5q0 -25 34 -41q17 -8 40.5 -13t46.5 -5q31 0 69 6t76 17q15 3 26.5 6t24 7.5t30 11t44.5 16.5q31 9 43 9h3q2 -2 2 -3q0 -6 -17 -23q-11 -11 -17.5 -17t-11.5 -10.5t-10.5 -8
t-14.5 -9.5q-17 -8 -37.5 -19.5t-43.5 -19.5q-40 -14 -78.5 -20.5t-76.5 -6.5q-90 0 -133 15q-73 25 -73 87v3q0 128 167 256q58 46 116 62t119 16q34 0 60.5 -10t35.5 -38q1 -5 1.5 -9.5t0.5 -9.5q0 -13 -4 -28q-11 -36 -42.5 -62.5t-73 -44.5t-88 -27.5t-86.5 -10.5h-16z
M454.5 538.5q-11.5 -3.5 -27.5 -8.5q-16 -6 -32.5 -13.5t-31.5 -11.5q-9 -4 -21 -4q-4 0 -6 1q-11 1 -19 12q-3 7 -3 14q0 14 12 25q11 13 31.5 23.5t44.5 19.5t48 16.5t42 13.5q4 1 12.5 3t17.5 4t17.5 4t13.5 4q-2 -8 -2.5 -11t-2 -7t-4.5 -12.5t-9 -26.5h-2
q-19 -22 -50 -35q-17 -7 -28.5 -10.5zM333 366q-37 -12 -85 -38q-17 -9 -27.5 -15.5t-18 -12t-12 -10.5t-9.5 -11h30q18 0 43 2t51.5 7.5t52.5 15t46 24.5l18 18q7 6 7 17q0 3 -2 11q0 1 -1 2h1q-8 3 -27 3q-30 -1 -67 -13z" />
    <glyph glyph-name="ecircumflex" unicode="&#xea;" horiz-adv-x="528" 
d="M194 199q-20 0 -39.5 1.5t-36.5 5.5q-11 -8 -21.5 -27.5t-16.5 -44.5l-1.5 -7.5t-0.5 -3.5q0 -25 34 -41q17 -8 40.5 -13t46.5 -5q31 0 69 6t76 17q15 3 26.5 6t24 7.5t30 11t44.5 16.5q31 9 43 9h3q2 -2 2 -3q0 -6 -17 -23q-11 -11 -17.5 -17t-11.5 -10.5t-10.5 -8
t-14.5 -9.5q-17 -8 -37.5 -19.5t-43.5 -19.5q-40 -14 -78.5 -20.5t-76.5 -6.5q-90 0 -133 15q-73 25 -73 87v3q0 128 167 256q58 46 116 62t119 16q34 0 60.5 -10t35.5 -38q1 -5 1.5 -9.5t0.5 -9.5q0 -13 -4 -28q-11 -36 -42.5 -62.5t-73 -44.5t-88 -27.5t-86.5 -10.5h-16z
M367 557v1q-22 -12 -43.5 -16.5t-36.5 -4.5q-5 1 -12 1q-6 0 -14 1q-5 1 -9 1h-5q-6 0 -8 -1h-5q12 8 28 19t31.5 21t28 17.5t17.5 9.5q19 13 29 23t17.5 16t16 9t25.5 3q21 -1 42.5 -25t47.5 -54q8 -7 14.5 -13t10.5 -12q3 -8 3 -12q0 -7 -4 -12q-10 -8 -21 -8q-7 0 -16 3
q-19 6 -44 23.5t-42 39.5zM333 366q-37 -12 -85 -38q-17 -9 -27.5 -15.5t-18 -12t-12 -10.5t-9.5 -11h30q18 0 43 2t51.5 7.5t52.5 15t46 24.5l18 18q7 6 7 17q0 3 -2 11q0 1 -1 2h1q-8 3 -27 3q-30 -1 -67 -13z" />
    <glyph glyph-name=".0235" unicode="&#xeb;" horiz-adv-x="528" 
d="M194 199q-20 0 -39.5 1.5t-36.5 5.5q-11 -8 -21.5 -27.5t-16.5 -44.5l-1.5 -7.5t-0.5 -3.5q0 -25 34 -41q17 -8 40.5 -13t46.5 -5q31 0 69 6t76 17q15 3 26.5 6t24 7.5t30 11t44.5 16.5q31 9 43 9h3q2 -2 2 -3q0 -6 -17 -23q-11 -11 -17.5 -17t-11.5 -10.5t-10.5 -8
t-14.5 -9.5q-17 -8 -37.5 -19.5t-43.5 -19.5q-40 -14 -78.5 -20.5t-76.5 -6.5q-90 0 -133 15q-73 25 -73 87v3q0 128 167 256q58 46 116 62t119 16q34 0 60.5 -10t35.5 -38q1 -5 1.5 -9.5t0.5 -9.5q0 -13 -4 -28q-11 -36 -42.5 -62.5t-73 -44.5t-88 -27.5t-86.5 -10.5h-16z
M333 366q-37 -12 -85 -38q-17 -9 -27.5 -15.5t-18 -12t-12 -10.5t-9.5 -11h30q18 0 43 2t51.5 7.5t52.5 15t46 24.5l18 18q7 6 7 17q0 3 -2 11q0 1 -1 2h1q-8 3 -27 3q-30 -1 -67 -13zM531 628.5q3 -12.5 3 -23.5q0 -5 -2 -14t-4 -14q-5 -13 -17 -28q-11 -12 -33 -12h-4
q-7 0 -15.5 4t-10.5 16q-3 10 -3 20q0 5 1 8q2 16 11 28q8 14 25 24t43 21q3 -17 6 -29.5zM359 632.5q3 -12.5 3 -23.5q0 -5 -2 -14.5t-4 -14.5q-6 -16 -16 -27q-11 -12 -34 -12h-4q-7 0 -15.5 4t-10.5 15q-3 10 -3 21q0 5 1 8q2 15 12 28q8 14 24.5 24t42.5 20
q3 -16 6 -28.5z" />
    <glyph glyph-name=".0236" unicode="&#xec;" horiz-adv-x="268" 
d="M202 406q6 5 12 8t13 4t19 2q1 -4 1 -13q0 -5 -0.5 -10t-1.5 -10q-3 -15 -11 -40q-12 -36 -27 -69t-22 -48q-2 -6 -7 -20.5t-21 -55.5q-6 -10 -13.5 -27.5t-17 -37.5t-20 -39.5t-22.5 -32.5q-15 -17 -32 -17h-3q-19 1 -21 23q-1 2 -1 7q0 21 7 43q7 28 19.5 57.5
t21.5 47.5q9 22 23 53t29.5 62t31 58t27.5 41q10 9 16 14zM64 621q10 -2 21 -4t21 -4l15 -3q26 -6 58.5 -14.5t63 -18.5t55 -23t34.5 -28q3 -8 3 -14t-3 -13q-7 -10 -22 -12q-3 -1 -9 -1q-11 0 -24 3q-18 4 -38 11.5t-39 13.5q-19 5 -33.5 8.5t-34.5 10.5q-35 13 -60 36
q-8 18 -12 26l-6 12t-3 7t-3 11q6 -2 16 -4z" />
    <glyph glyph-name=".0237" unicode="&#xed;" horiz-adv-x="268" 
d="M202 406q6 5 12 8t13 4t19 2q1 -4 1 -13q0 -5 -0.5 -10t-1.5 -10q-3 -15 -11 -40q-12 -36 -27 -69t-22 -48q-2 -6 -7 -20.5t-21 -55.5q-6 -10 -13.5 -27.5t-17 -37.5t-20 -39.5t-22.5 -32.5q-15 -17 -32 -17h-3q-19 1 -21 23q-1 2 -1 7q0 21 7 43q7 28 19.5 57.5
t21.5 47.5q9 22 23 53t29.5 62t31 58t27.5 41q10 9 16 14zM308.5 478.5q-11.5 -3.5 -27.5 -8.5q-16 -6 -32.5 -13.5t-31.5 -11.5q-9 -4 -21 -4q-4 0 -6 1q-11 1 -19 12q-3 7 -3 14q0 14 12 25q11 13 31.5 23.5t44.5 19.5t48 16.5t42 13.5q4 1 12.5 3t17.5 4t17.5 4t13.5 4
q-2 -8 -2.5 -11t-2 -7t-4.5 -12.5t-9 -26.5h-2q-19 -22 -50 -35q-17 -7 -28.5 -10.5z" />
    <glyph glyph-name="icircumflex" unicode="&#xee;" horiz-adv-x="268" 
d="M202 406q6 5 12 8t13 4t19 2q1 -4 1 -13q0 -5 -0.5 -10t-1.5 -10q-3 -15 -11 -40q-12 -36 -27 -69t-22 -48q-2 -6 -7 -20.5t-21 -55.5q-6 -10 -13.5 -27.5t-17 -37.5t-20 -39.5t-22.5 -32.5q-15 -17 -32 -17h-3q-19 1 -21 23q-1 2 -1 7q0 21 7 43q7 28 19.5 57.5
t21.5 47.5q9 22 23 53t29.5 62t31 58t27.5 41q10 9 16 14zM229 527v1q-22 -12 -43.5 -16.5t-36.5 -4.5q-5 1 -12 1q-6 0 -14 1q-5 1 -9 1h-5q-6 0 -8 -1h-5q12 8 28 19t31.5 21t28 17.5t17.5 9.5q19 13 29 23t17.5 16t16 9t25.5 3q21 -1 42.5 -25t47.5 -54q8 -7 14.5 -13
t10.5 -12q3 -8 3 -12q0 -7 -4 -12q-10 -8 -21 -8q-7 0 -16 3q-19 6 -44 23.5t-42 39.5z" />
    <glyph glyph-name="idieresis" unicode="&#xef;" horiz-adv-x="268" 
d="M202 406q6 5 12 8t13 4t19 2q1 -4 1 -13q0 -5 -0.5 -10t-1.5 -10q-3 -15 -11 -40q-12 -36 -27 -69t-22 -48q-2 -6 -7 -20.5t-21 -55.5q-6 -10 -13.5 -27.5t-17 -37.5t-20 -39.5t-22.5 -32.5q-15 -17 -32 -17h-3q-19 1 -21 23q-1 2 -1 7q0 21 7 43q7 28 19.5 57.5
t21.5 47.5q9 22 23 53t29.5 62t31 58t27.5 41q10 9 16 14zM391 586.5q3 -12.5 3 -23.5q0 -5 -2 -14t-4 -14q-5 -13 -17 -28q-11 -12 -33 -12h-4q-7 0 -15.5 4t-10.5 16q-3 10 -3 20q0 5 1 8q2 16 11 28q8 14 25 24t43 21q3 -17 6 -29.5zM219 590.5q3 -12.5 3 -23.5
q0 -5 -2 -14.5t-4 -14.5q-6 -16 -16 -27q-11 -12 -34 -12h-4q-7 0 -15.5 4t-10.5 15q-3 10 -3 21q0 5 1 8q2 15 12 28q8 14 24.5 24t42.5 20q3 -16 6 -28.5z" />
    <glyph glyph-name="ntilde" unicode="&#xf1;" horiz-adv-x="429" 
d="M429 352q-9 -47 -28.5 -99.5t-42.5 -100.5q-15 -34 -28 -60.5t-29 -47t-36 -34.5t-49 -24l-5 12.5t-5 15.5q-3 7 -3 13q0 10 5 20q11 24 31 58.5t48 94.5q6 13 16.5 31t21 37t19 35.5t10.5 26.5q4 12 4 22q0 5 -2 11q-4 10 -17 10q-12 0 -29 -8t-35 -21t-34.5 -29.5
t-27.5 -33.5q-21 -31 -42 -69.5t-49 -87.5q-12 -20 -25.5 -44.5t-24.5 -44.5q-8 -14 -27 -25.5t-36 -22.5q-9 14 -10 19t-1 13v6q0 4 -1 9v5q0 16 10 45q9 23 22 50t25.5 51.5t22 42.5t11.5 23q7 16 17 37.5t21.5 44.5t22.5 45.5t20 40.5q8 15 24 30.5t30 15.5q11 0 15 -13
q5 -15 5 -27q0 -9 -1 -13q-2 -10 -4.5 -19.5t-5.5 -20.5q29 25 61.5 43.5t59.5 26.5q13 3 22.5 4.5t17.5 2.5h4q10 0 18 -3q7 -5 10 -14t6 -24q1 -5 1 -9v-9q0 -19 -3 -38zM338 633q-22 0 -59 -34q-22 -22 -52 -37t-49 -23q20 42 41.5 76t45.5 52l-1 -1q47 41 87 41
q26 0 41 -22t22 -64v1q4 -18 7 -18q6 0 20 8t30 21q25 21 43.5 34t28.5 14l18 -27q-14 -26 -33 -50t-39.5 -42t-41 -29t-37.5 -11q-26 0 -40.5 17.5t-21.5 52.5q-5 41 -10 41z" />
    <glyph glyph-name=".0242" unicode="&#xf2;" horiz-adv-x="535" 
d="M21.5 51q-9.5 18 -11.5 41v10q0 47 35 115q38 74 116 149q40 37 76.5 57.5t67.5 30.5t55.5 12.5t40.5 2.5q22 0 45.5 -12t42.5 -37t31 -62t12 -87q0 -57 -43.5 -105.5t-109.5 -90.5q-122 -74 -232 -74q-56 0 -96 18q-20 14 -29.5 32zM167 267q-24 -27 -42 -53t-29.5 -50
t-12.5 -43v-4q0 -23 19 -35q16 -10 48 -10q45 0 90 10.5t91 39.5q39 26 72 52t50 64q10 21 10 53v5q-1 13 -3 29t-9 29q-10 19 -26 29.5t-36 10.5q-33 0 -75 -15.5t-96 -59.5q-27 -25 -51 -52zM313 706q10 -2 21 -4t21 -4l15 -3q26 -6 58.5 -14.5t63 -18.5t55 -23t34.5 -28
q3 -8 3 -14t-3 -13q-7 -10 -22 -12q-3 -1 -9 -1q-11 0 -24 3q-18 4 -38 11.5t-39 13.5q-19 5 -33.5 8.5t-34.5 10.5q-35 13 -60 36q-8 18 -12 26l-6 12t-3 7t-3 11q6 -2 16 -4z" />
    <glyph glyph-name=".0243" unicode="&#xf3;" horiz-adv-x="535" 
d="M21.5 51q-9.5 18 -11.5 41v10q0 47 35 115q38 74 116 149q40 37 76.5 57.5t67.5 30.5t55.5 12.5t40.5 2.5q22 0 45.5 -12t42.5 -37t31 -62t12 -87q0 -57 -43.5 -105.5t-109.5 -90.5q-122 -74 -232 -74q-56 0 -96 18q-20 14 -29.5 32zM167 267q-24 -27 -42 -53t-29.5 -50
t-12.5 -43v-4q0 -23 19 -35q16 -10 48 -10q45 0 90 10.5t91 39.5q39 26 72 52t50 64q10 21 10 53v5q-1 13 -3 29t-9 29q-10 19 -26 29.5t-36 10.5q-33 0 -75 -15.5t-96 -59.5q-27 -25 -51 -52zM446.5 582.5q-11.5 -3.5 -27.5 -8.5q-16 -6 -32.5 -13.5t-31.5 -11.5
q-9 -4 -21 -4q-4 0 -6 1q-11 1 -19 12q-3 7 -3 14q0 14 12 25q11 13 31.5 23.5t44.5 19.5t48 16.5t42 13.5q4 1 12.5 3t17.5 4t17.5 4t13.5 4q-2 -8 -2.5 -11t-2 -7t-4.5 -12.5t-9 -26.5h-2q-19 -22 -50 -35q-17 -7 -28.5 -10.5z" />
    <glyph glyph-name="ocircumflex" unicode="&#xf4;" horiz-adv-x="535" 
d="M21.5 51q-9.5 18 -11.5 41v10q0 47 35 115q38 74 116 149q40 37 76.5 57.5t67.5 30.5t55.5 12.5t40.5 2.5q22 0 45.5 -12t42.5 -37t31 -62t12 -87q0 -57 -43.5 -105.5t-109.5 -90.5q-122 -74 -232 -74q-56 0 -96 18q-20 14 -29.5 32zM167 267q-24 -27 -42 -53t-29.5 -50
t-12.5 -43v-4q0 -23 19 -35q16 -10 48 -10q45 0 90 10.5t91 39.5q39 26 72 52t50 64q10 21 10 53v5q-1 13 -3 29t-9 29q-10 19 -26 29.5t-36 10.5q-33 0 -75 -15.5t-96 -59.5q-27 -25 -51 -52zM384 590v1q-22 -12 -43.5 -16.5t-36.5 -4.5q-5 1 -12 1q-6 0 -14 1q-5 1 -9 1
h-5q-6 0 -8 -1h-5q12 8 28 19t31.5 21t28 17.5t17.5 9.5q19 13 29 23t17.5 16t16 9t25.5 3q21 -1 42.5 -25t47.5 -54q8 -7 14.5 -13t10.5 -12q3 -8 3 -12q0 -7 -4 -12q-10 -8 -21 -8q-7 0 -16 3q-19 6 -44 23.5t-42 39.5z" />
    <glyph glyph-name=".0245" unicode="&#xf5;" horiz-adv-x="535" 
d="M21.5 51q-9.5 18 -11.5 41v10q0 47 35 115q38 74 116 149q40 37 76.5 57.5t67.5 30.5t55.5 12.5t40.5 2.5q22 0 45.5 -12t42.5 -37t31 -62t12 -87q0 -57 -43.5 -105.5t-109.5 -90.5q-122 -74 -232 -74q-56 0 -96 18q-20 14 -29.5 32zM167 267q-24 -27 -42 -53t-29.5 -50
t-12.5 -43v-4q0 -23 19 -35q16 -10 48 -10q45 0 90 10.5t91 39.5q39 26 72 52t50 64q10 21 10 53v5q-1 13 -3 29t-9 29q-10 19 -26 29.5t-36 10.5q-33 0 -75 -15.5t-96 -59.5q-27 -25 -51 -52zM391 661q-22 0 -59 -34q-22 -22 -52 -37t-49 -23q20 42 41.5 76t45.5 52l-1 -1
q47 41 87 41q26 0 41 -22t22 -64v1q4 -18 7 -18q6 0 20 8t30 21q25 21 43.5 34t28.5 14l18 -27q-14 -26 -33 -50t-39.5 -42t-41 -29t-37.5 -11q-26 0 -40.5 17.5t-21.5 52.5q-5 41 -10 41z" />
    <glyph glyph-name=".0246" unicode="&#xf6;" horiz-adv-x="535" 
d="M21.5 51q-9.5 18 -11.5 41v10q0 47 35 115q38 74 116 149q40 37 76.5 57.5t67.5 30.5t55.5 12.5t40.5 2.5q22 0 45.5 -12t42.5 -37t31 -62t12 -87q0 -57 -43.5 -105.5t-109.5 -90.5q-122 -74 -232 -74q-56 0 -96 18q-20 14 -29.5 32zM167 267q-24 -27 -42 -53t-29.5 -50
t-12.5 -43v-4q0 -23 19 -35q16 -10 48 -10q45 0 90 10.5t91 39.5q39 26 72 52t50 64q10 21 10 53v5q-1 13 -3 29t-9 29q-10 19 -26 29.5t-36 10.5q-33 0 -75 -15.5t-96 -59.5q-27 -25 -51 -52zM555 654.5q3 -12.5 3 -23.5q0 -5 -2 -14t-4 -14q-5 -13 -17 -28
q-11 -12 -33 -12h-4q-7 0 -15.5 4t-10.5 16q-3 10 -3 20q0 5 1 8q2 16 11 28q8 14 25 24t43 21q3 -17 6 -29.5zM383 658.5q3 -12.5 3 -23.5q0 -5 -2 -14.5t-4 -14.5q-6 -16 -16 -27q-11 -12 -34 -12h-4q-7 0 -15.5 4t-10.5 15q-3 10 -3 21q0 5 1 8q2 15 12 28q8 14 24.5 24
t42.5 20q3 -16 6 -28.5z" />
    <glyph glyph-name=".0248" unicode="&#xf8;" horiz-adv-x="631" 
d="M557.5 489.5q24.5 -45.5 24.5 -118.5q0 -57 -43.5 -105.5t-109.5 -90.5q-40 -24 -74.5 -37t-62.5 -18q-63 -100 -104 -117h-5q-26 0 -33 10q-8 8 -8 21q0 4 1 7q2 17 14 38.5t27 43.5q-32 8 -53.5 28t-25.5 58q-1 7 -1 13v27q0 7 1 15q3 43 25.5 95t80.5 107
q60 54 110.5 75t87.5 25q7 18 18.5 42t26 45.5t31 37t34.5 16.5l-4 -114l-15 -38q33 -20 57.5 -65.5zM229.5 190.5q0.5 2.5 2.5 4.5q10 19 26 46t32 55t30 54.5t20 44.5q10 23 18.5 45t17.5 43q-23 -8 -50 -23t-58 -41q-36 -33 -59.5 -67t-32.5 -63q-7 -18 -7 -37
q0 -6 2 -16q4 -23 26 -37q14 -10 30 -13q2 2 2.5 4.5zM434 408q-18 -40 -35.5 -77.5t-33.5 -71t-28 -58.5q11 5 22 10.5t22 10.5q39 26 72 52t50 64q10 21 10 53v5q-1 13 -3 29t-9 29q-14 23 -32 33q-17 -39 -35 -79z" />
    <glyph glyph-name="ugrave" unicode="&#xf9;" horiz-adv-x="501" 
d="M517 434q5 -10 6 -31.5t1 -38.5v-16q-2 -9 -9.5 -29t-16 -41.5t-17 -40t-12.5 -25.5q-17 -30 -28.5 -50t-23 -35t-24.5 -28.5t-33 -30.5q-49 -42 -101 -54t-109 -12q-52 0 -89.5 28t-42.5 90q-1 5 -1 14q0 36 14 84q21 55 54 101q27 36 43.5 56t29.5 31t25.5 16t31.5 10
l3 -12v-8q0 -14 -8 -54q-6 -11 -9.5 -16t-9 -11.5t-15 -18.5t-27.5 -37q-23 -29 -38.5 -61.5t-15.5 -67.5q0 -28 7 -42q13 -24 48 -24q33 0 61.5 5t57.5 18q29 12 56 41.5t52 70t48.5 89t45.5 98.5q4 4 14.5 12t31.5 20zM309 612q-8 18 -12 26l-6 12t-3 7t-3 11q6 -2 16 -4
t21 -4t21 -4l15 -3q26 -6 58.5 -14.5t63 -18.5t55 -23t34.5 -28q3 -8 3 -14t-3 -13q-7 -10 -22 -12q-3 -1 -9 -1q-11 0 -24 3q-18 4 -38 11.5t-39 13.5q-19 5 -33.5 8.5t-34.5 10.5q-35 13 -60 36zM473 406l-2 -4q1 1 1 2t1 2z" />
    <glyph glyph-name=".0250" unicode="&#xfa;" horiz-adv-x="501" 
d="M517 434q5 -10 6 -31.5t1 -38.5v-16q-2 -9 -9.5 -29t-16 -41.5t-17 -40t-12.5 -25.5q-17 -30 -28.5 -50t-23 -35t-24.5 -28.5t-33 -30.5q-49 -42 -101 -54t-109 -12q-52 0 -89.5 28t-42.5 90q-1 5 -1 14q0 36 14 84q21 55 54 101q27 36 43.5 56t29.5 31t25.5 16t31.5 10
l3 -12v-8q0 -14 -8 -54q-6 -11 -9.5 -16t-9 -11.5t-15 -18.5t-27.5 -37q-23 -29 -38.5 -61.5t-15.5 -67.5q0 -28 7 -42q13 -24 48 -24q33 0 61.5 5t57.5 18q29 12 56 41.5t52 70t48.5 89t45.5 98.5q4 4 14.5 12t31.5 20zM515 580q-19 -22 -50 -35q-17 -7 -28.5 -10.5
t-27.5 -8.5q-16 -6 -32.5 -13.5t-31.5 -11.5q-9 -4 -21 -4q-4 0 -6 1q-11 1 -19 12q-3 7 -3 14q0 14 12 25q11 13 31.5 23.5t44.5 19.5t48 16.5t42 13.5q4 1 12.5 3t17.5 4t17.5 4t13.5 4q-2 -8 -2.5 -11t-2 -7t-4.5 -12.5t-9 -26.5h-2zM473 406l-2 -4q1 1 1 2t1 2z" />
    <glyph glyph-name="ucircumflex" unicode="&#xfb;" horiz-adv-x="501" 
d="M517 434q5 -10 6 -31.5t1 -38.5v-16q-2 -9 -9.5 -29t-16 -41.5t-17 -40t-12.5 -25.5q-17 -30 -28.5 -50t-23 -35t-24.5 -28.5t-33 -30.5q-49 -42 -101 -54t-109 -12q-52 0 -89.5 28t-42.5 90q-1 5 -1 14q0 36 14 84q21 55 54 101q27 36 43.5 56t29.5 31t25.5 16t31.5 10
l3 -12v-8q0 -14 -8 -54q-6 -11 -9.5 -16t-9 -11.5t-15 -18.5t-27.5 -37q-23 -29 -38.5 -61.5t-15.5 -67.5q0 -28 7 -42q13 -24 48 -24q33 0 61.5 5t57.5 18q29 12 56 41.5t52 70t48.5 89t45.5 98.5q4 4 14.5 12t31.5 20zM510 548q-19 6 -44 23.5t-42 39.5l-51 -30v1
q-22 -12 -43.5 -16.5t-36.5 -4.5q-5 1 -12 1q-6 0 -14 1q-5 1 -9 1h-5q-6 0 -8 -1h-5q12 8 28 19t31.5 21t28 17.5t17.5 9.5q19 13 29 23t17.5 16t16 9t25.5 3q21 -1 42.5 -25t47.5 -54q8 -7 14.5 -13t10.5 -12q3 -8 3 -12q0 -7 -4 -12q-10 -8 -21 -8q-7 0 -16 3zM473 406
l-2 -4q1 1 1 2t1 2z" />
    <glyph glyph-name=".0252" unicode="&#xfc;" horiz-adv-x="501" 
d="M517 434q5 -10 6 -31.5t1 -38.5v-16q-2 -9 -9.5 -29t-16 -41.5t-17 -40t-12.5 -25.5q-17 -30 -28.5 -50t-23 -35t-24.5 -28.5t-33 -30.5q-49 -42 -101 -54t-109 -12q-52 0 -89.5 28t-42.5 90q-1 5 -1 14q0 36 14 84q21 55 54 101q27 36 43.5 56t29.5 31t25.5 16t31.5 10
l3 -12v-8q0 -14 -8 -54q-6 -11 -9.5 -16t-9 -11.5t-15 -18.5t-27.5 -37q-23 -29 -38.5 -61.5t-15.5 -67.5q0 -28 7 -42q13 -24 48 -24q33 0 61.5 5t57.5 18q29 12 56 41.5t52 70t48.5 89t45.5 98.5q4 4 14.5 12t31.5 20zM462 604q8 14 25 24t43 21q3 -17 6 -29.5t3 -23.5
q0 -5 -2 -14t-4 -14q-5 -13 -17 -28q-11 -12 -33 -12h-4q-7 0 -15.5 4t-10.5 16q-3 10 -3 20q0 5 1 8q2 16 11 28zM291 608q8 14 24.5 24t42.5 20q3 -16 6 -28.5t3 -23.5q0 -5 -2 -14.5t-4 -14.5q-6 -16 -16 -27q-11 -12 -34 -12h-4q-7 0 -15.5 4t-10.5 15q-3 10 -3 21
q0 5 1 8q2 15 12 28zM473 406l-2 -4q1 1 1 2t1 2z" />
    <glyph glyph-name=".0253" unicode="&#xfd;" horiz-adv-x="499" 
d="M238 -99q-24 -43 -48 -84t-48 -76t-47 -57q-24 -27 -57 -34h-5q-12 0 -17 8q-6 11 -7 32q4 22 18.5 50t34 58.5t41 61t38.5 56.5q15 20 32 43.5t33.5 46t30 43t21.5 34.5q-8 -6 -18.5 -14t-19.5 -14q-73 -52 -121 -55h-19q-11 0 -22 3t-22 10t-19 20q-9 13 -9 38v10
q2 11 5.5 30.5t20.5 56.5q8 18 16.5 35t20 35t27 38.5t37.5 44.5q9 10 23 27.5t29 36t29.5 33t23.5 18.5q6 2 18 4h5q5 0 15 -2q8 -3 13 -12v-5q0 -10 -7 -23q-4 -9 -15.5 -24t-28.5 -37.5t-40 -54t-50 -74.5q-18 -21 -31 -45t-19 -43q-4 -12 -4 -23q0 -6 1 -9q1 -9 11 -9
q4 0 6 1q76 28 157 106q19 19 55.5 60.5t87.5 107.5h-1q78 96 145 118l-6 -41q-3 -21 -85 -165q-13 -23 -31.5 -51t-39.5 -60q-26 -38 -54.5 -81t-56.5 -92q-23 -38 -47 -81zM488.5 597.5q-11.5 -3.5 -27.5 -8.5q-16 -6 -32.5 -13.5t-31.5 -11.5q-9 -4 -21 -4q-4 0 -6 1
q-11 1 -19 12q-3 7 -3 14q0 14 12 25q11 13 31.5 23.5t44.5 19.5t48 16.5t42 13.5q4 1 12.5 3t17.5 4t17.5 4t13.5 4q-2 -8 -2.5 -11t-2 -7t-4.5 -12.5t-9 -26.5h-2q-19 -22 -50 -35q-17 -7 -28.5 -10.5z" />
    <glyph glyph-name=".0255" unicode="&#xff;" horiz-adv-x="499" 
d="M238 -99q-24 -43 -48 -84t-48 -76t-47 -57q-24 -27 -57 -34h-5q-12 0 -17 8q-6 11 -7 32q4 22 18.5 50t34 58.5t41 61t38.5 56.5q15 20 32 43.5t33.5 46t30 43t21.5 34.5q-8 -6 -18.5 -14t-19.5 -14q-73 -52 -121 -55h-19q-11 0 -22 3t-22 10t-19 20q-9 13 -9 38v10
q2 11 5.5 30.5t20.5 56.5q8 18 16.5 35t20 35t27 38.5t37.5 44.5q9 10 23 27.5t29 36t29.5 33t23.5 18.5q6 2 18 4h5q5 0 15 -2q8 -3 13 -12v-5q0 -10 -7 -23q-4 -9 -15.5 -24t-28.5 -37.5t-40 -54t-50 -74.5q-18 -21 -31 -45t-19 -43q-4 -12 -4 -23q0 -6 1 -9q1 -9 11 -9
q4 0 6 1q76 28 157 106q19 19 55.5 60.5t87.5 107.5h-1q78 96 145 118l-6 -41q-3 -21 -85 -165q-13 -23 -31.5 -51t-39.5 -60q-26 -38 -54.5 -81t-56.5 -92q-23 -38 -47 -81zM580 648.5q3 -12.5 3 -23.5q0 -5 -2 -14t-4 -14q-5 -13 -17 -28q-11 -12 -33 -12h-4q-7 0 -15.5 4
t-10.5 16q-3 10 -3 20q0 5 1 8q2 16 11 28q8 14 25 24t43 21q3 -17 6 -29.5zM408 652.5q3 -12.5 3 -23.5q0 -5 -2 -14.5t-4 -14.5q-6 -16 -16 -27q-11 -12 -34 -12h-4q-7 0 -15.5 4t-10.5 15q-3 10 -3 21q0 5 1 8q2 15 12 28q8 14 24.5 24t42.5 20q3 -16 6 -28.5z" />
    <glyph glyph-name=".0156" unicode="&#x153;" horiz-adv-x="778" 
d="M464 136.5q-35 -32.5 -83 -61.5q-1 -1 -2 -1q30 -9 65 -9q31 0 69 6t76 17q15 3 26.5 6t24 7.5t30 11t44.5 16.5q31 9 43 9h3q2 -2 2 -3q0 -6 -17 -23q-11 -11 -17.5 -17t-11.5 -10.5t-10.5 -8t-14.5 -9.5q-17 -8 -37.5 -19.5t-43.5 -19.5q-40 -14 -78.5 -20.5
t-76.5 -6.5q-90 0 -133 15q-9 3 -16.5 6t-14.5 8q-37 -15 -72.5 -22t-69.5 -7q-56 0 -96 18q-20 14 -29.5 32t-11.5 41v10q0 47 35 115q38 74 116 149q40 37 76.5 57.5t67.5 30.5t55.5 12.5t40.5 2.5q24 0 49 -14.5t45 -43.5q38 16 76 22.5t78 6.5q34 0 60.5 -10t35.5 -38
q1 -5 1.5 -9.5t0.5 -9.5q0 -13 -4 -28q-9 -29 -32 -52.5t-54.5 -40.5t-68 -28.5t-72.5 -17.5q-19 -37 -54 -69.5zM169 267q-24 -27 -42 -53t-29.5 -50t-12.5 -43v-4q0 -23 19 -35q16 -10 48 -10q25 0 49 2.5t49 9.5q-1 3 -1 9v13q0 128 167 256q5 4 10 7.5t10 7.5
q-20 17 -45 17q-33 0 -75 -15.5t-96 -59.5q-27 -25 -51 -52zM525 345q3 -14 5 -28t3 -31q31 5 62 15.5t54 27.5l18 18q7 6 7 17q0 3 -2 11q0 1 -1 2h1q-8 3 -27 3q-48 -1 -120 -35zM328 119q3 1 5 3q27 19 53 37t45 41q-18 0 -35 1.5t-33 5.5q-11 -8 -21.5 -27.5
t-16.5 -44.5l-1.5 -7.5t-0.5 -3.5v-8q2 2 5 3zM464 313q-16 -10 -23.5 -17t-14.5 -16h38q1 3 1 16q-1 3 -1 8v9z" />
    <glyph glyph-name=".0138" unicode="&#x160;" horiz-adv-x="719" 
d="M608 760v-1q20 14 41 20q18 5 31 5h22q5 0 10 -1q8 -1 13.5 -1.5t7.5 -0.5h5q-12 -9 -27.5 -21t-30.5 -23t-27 -19.5t-17 -11.5q-15 -12 -24.5 -21.5t-16 -16.5t-12.5 -11.5t-13 -6.5q51 -10 95 -35t73 -56l-115 -12q-18 7 -36.5 12.5t-36.5 11.5q-20 4 -45 4
q-24 0 -44 -4q-44 -8 -89 -42q-11 -8 -20.5 -17t-14.5 -21q-2 -5 -3 -9.5t-3 -9.5q-1 -4 -2 -8.5t-2 -11.5q-1 -4 -1 -12q0 -4 0.5 -7t1.5 -7q2 -14 11 -24.5t30 -11.5q31 -1 63.5 -1.5t62.5 -2t55.5 -4.5t43.5 -10q86 -29 86 -105q0 -38 -8 -65t-25.5 -49t-45.5 -42
t-69 -43q-138 -68 -271 -68q-63 0 -124 26q-35 16 -51 42q-15 21 -15 54v8q6 28 26.5 35.5t40.5 9.5q0 -64 33 -85q32 -18 70 -21q6 -1 12 -1h12q14 0 27.5 1.5t27.5 3.5q40 6 81 20.5t79 32.5q32 15 53.5 28.5t34.5 28.5t18.5 34t5.5 45q0 6 -2.5 14t-10 16t-22 15.5
t-38.5 13.5q-17 4 -47 4q-8 0 -17.5 -0.5t-19.5 -1.5t-21 -1h-22q-23 0 -46 4t-41.5 13.5t-32 26.5t-18.5 43q-1 5 -1.5 10.5t-0.5 12.5q0 20 4 40q5 29 19.5 56.5t41 51t66 42t95.5 29.5q12 2 24.5 3t24.5 1q-17 11 -35 32.5t-38 46.5q-15 13 -24 28q-4 7 -4 14q0 6 3 12
q9 9 18 10h6q4 0 7 -0.5t7 -1.5q19 -7 44 -26t44 -43z" />
    <glyph glyph-name=".0154" unicode="&#x161;" horiz-adv-x="549" 
d="M483 547v-1q20 14 41 20q18 5 31 5h22q5 0 10 -1q8 -1 13.5 -1.5t7.5 -0.5h5q-12 -9 -27.5 -21t-30.5 -23t-27 -19.5t-17 -11.5q-15 -12 -24.5 -22t-16.5 -16.5t-13 -11t-14 -6.5q11 -1 21 -1.5t19 -2.5q33 -7 47 -31q9 -15 9 -39q0 -14 -3 -30q-23 11 -38.5 17.5
t-23.5 8.5q-23 5 -46 5q-26 0 -54 -3q-9 -2 -23.5 -5.5t-30 -8.5t-29 -11t-19.5 -12q-4 -4 -4 -8q0 -5 9 -11q77 -24 122 -37.5t69 -20.5t33.5 -11.5t14.5 -10.5q4 -5 7.5 -10.5t6.5 -12.5q4 -8 4 -18q0 -3 -0.5 -6t-1.5 -7q-5 -41 -38 -72.5t-81.5 -53.5t-105.5 -33
t-110 -11q-41 0 -78 8q-28 6 -49 14t-35 17q-28 20 -32 43q-1 4 -1.5 7t-0.5 7q0 16 9 31q11 22 36.5 39t59.5 23q-3 -15 -14 -31t-14 -31v-6q0 -8 4 -15q12 -14 43.5 -21.5t71.5 -7.5t83 6.5t79 18.5t59.5 29.5t24.5 40.5q-1 7 -24.5 14t-54.5 14t-61.5 14t-45.5 14
q-34 14 -52.5 27.5t-26.5 28.5q-8 14 -8 27q0 1 1 2q0 15 4 30q1 19 23.5 35t57 28t76 19.5t81.5 9.5q-19 7 -39.5 31.5t-44.5 53.5q-15 13 -24 28q-4 7 -4 14q0 6 3 12q9 9 18 10h6q4 0 7 -0.5t7 -1.5q19 -7 44 -26t44 -43z" />
    <glyph glyph-name="circumflex" unicode="&#x2c6;" horiz-adv-x="548" 
d="M352 607v1q-23 -20 -49 -28.5t-45 -8.5h-15q-11 0 -25 1t-19 1h-6q15 13 33.5 29t36.5 31.5t32 27.5t20 17q23 21 35.5 36t22 25t20 14.5t30.5 4.5q13 0 26.5 -9.5t28 -25.5t30 -36t32.5 -42q21 -18 31 -35q5 -12 5 -20q0 -9 -3 -16q-12 -12 -21 -13q-3 -1 -9 -1
q-8 0 -17 3q-12 4 -26 12.5t-29 20.5t-29.5 26.5t-26.5 29.5z" />
    <glyph glyph-name=".0152" unicode="&#x2dc;" horiz-adv-x="611" 
d="M357 669q-22 0 -59 -34q-23 -21 -50 -35.5t-53 -22.5q20 42 42 75.5t46 50.5l-1 -1q50 41 88 41q26 0 40.5 -24t22.5 -62q2 -7 2.5 -12t2.5 -5q7 0 19 7.5t32 21.5v-1q24 21 53 35.5t55 16.5q-18 -32 -40 -61t-45 -51.5t-45 -36t-39 -13.5q-49 0 -61 70q-5 41 -10 41z
" />
    <glyph glyph-name="quoteleft" unicode="&#x2018;" horiz-adv-x="291" 
d="M360 607q-9 -12 -19 -26q-17 -26 -31.5 -53.5t-33.5 -39.5q-8 -5 -16 -5q-6 0 -12 3q-20 14 -20 36q0 5 1 8q2 20 13.5 45t27 50.5t32 49.5t30.5 43q3 4 9 11t12.5 15.5t13 16t10.5 12.5q4 -9 5.5 -12.5t3.5 -8t5 -14t10 -30.5l-1 -2q-3 -19 -8 -35.5t-13 -32.5
q-10 -19 -19 -31z" />
    <glyph glyph-name="quoteright" unicode="&#x2019;" horiz-adv-x="291" 
d="M360 607q-9 -12 -19 -26q-17 -26 -31.5 -53.5t-33.5 -39.5q-8 -5 -16 -5q-6 0 -12 3q-20 14 -20 36q0 5 1 8q2 20 13.5 45t27 50.5t32 49.5t30.5 43q3 4 9 11t12.5 15.5t13 16t10.5 12.5q4 -9 5.5 -12.5t3.5 -8t5 -14t10 -30.5l-1 -2q-3 -19 -8 -35.5t-13 -32.5
q-10 -19 -19 -31z" />
    <glyph glyph-name="quotedblleft" unicode="&#x201c;" horiz-adv-x="400" 
d="M246 625.5q-8 -14.5 -15 -27.5q-3 -5 -5 -10t-3.5 -14t-2.5 -23.5t-2 -37.5q3 -24 22 -53q-38 -9 -49 -9q-22 0 -39 11q-14 7 -22 30q-5 13 -5 25q0 7 2 17q5 35 18 69t37 77q55 102 109 111q5 1 13 1t12 -1q13 -2 20 -6l8 -28q-10 -13 -19 -25.5t-19 -24.5
q-11 -13 -21 -25.5t-20 -26.5q-11 -15 -19 -29.5zM348 638q-16 -21 -27 -51l-4 -8t-5 -10.5t-8 -17.5t-13 -29l-11 -33q-19 14 -26 36q-7 15 -7 49v11q0 6 1 13q9 44 45 92q22 28 47 44t58 21q11 0 27.5 -3t22.5 -18v-6q0 -9 -7 -22q-15 -8 -30 -16.5t-30 -18.5v1
q-17 -13 -33 -34z" />
    <glyph glyph-name="quotedblright" unicode="&#x201d;" horiz-adv-x="697" 
d="M668 598.5q-8 -19.5 -26 -34.5l-18 -16t-21 -14.5t-27 -11t-35 -5.5q10 29 17 45t18 37q6 11 11 22t8.5 24.5t6 31t3.5 41.5q-5 12 -11.5 18.5l-12.5 12.5t-10 13.5t-4 21.5q2 10 9 19t31 11h5q20 0 35 -12q16 -15 27 -41q5 -11 8.5 -24.5t4.5 -39.5l-5 -49
q-6 -30 -14 -49.5zM365 409l-8 86l30 91q11 23 17.5 42.5t10.5 33.5q0 5 0.5 10.5t0.5 10.5l1 14q3 16 18 23q2 1 5 3t7 4q2 1 8 1q9 0 20 -4q13 -18 14 -29.5t1 -26.5l-11 -64q-20 -93 -114 -195z" />
    <glyph glyph-name=".0133" unicode="&#x2026;" horiz-adv-x="661" 
d="M243 15.5q-17 -11.5 -32 -13.5q-16 8 -27 16.5t-16 19.5q-2 4 -3 7.5t-2 8.5q-1 3 -1 10v9q0 5 1 10q4 18 8.5 26t13.5 18q8 9 12.5 14t9.5 11q13 -8 21 -10.5t12.5 -3.5t7.5 -1t8 -2q8 -2 12 -12.5t7 -40.5l-7 -38q-8 -17 -25 -28.5zM376 2q-17 8 -27.5 16.5t-15.5 19.5
q-5 8 -6 16q-1 3 -1 12v8q0 4 1 9q5 18 9.5 26t13.5 18q10 11 26 16q10 2 15 2q9 0 14 -1q14 -4 25 -16.5t14 -33.5q0 -5 -4 -12l-18 -48q-18 -22 -46 -32zM563 12.5q-12 -7.5 -26 -12.5q-33 12 -43 34q-8 14 -8 30l1 6q0 3 0.5 6.5t1.5 8.5q4 21 12 32t19 16q8 4 20 4h3
q12 -2 27 -3q6 -1 10.5 -2.5t8.5 -7.5t7 -16.5t5 -29.5l-18 -47q-8 -11 -20 -18.5z" />
    <glyph glyph-name=".0137" unicode="&#x2030;" horiz-adv-x="1032" 
d="M255.5 26.5q-16.5 0.5 -27.5 6t-17 16.5t-7 32v5q14 60 95 132q3 2 12.5 9.5t23.5 18.5q17 14 41 34.5t57 48.5q35 29 61.5 54t29.5 38q-3 3 -9 5t-14 5q-20 8 -44 11.5t-47 3.5q-19 0 -80 -70q-18 -21 -37.5 -39t-37.5 -31.5t-34.5 -21.5t-28.5 -8q-34 0 -46 14
q-12 13 -12 31q0 3 1 5q1 21 13.5 47t29.5 50.5t35 44t31 28.5q16 9 33 20t45 17q7 1 14.5 1.5t15.5 0.5h10q10 -1 18 -6t13 -11q16 -2 33 -4t37.5 -5t46 -7t58.5 -10q14 -3 27.5 -6t24.5 -12q5 -5 8 -12.5t3 -20.5q-3 -11 -16 -29.5t-31.5 -39.5t-40 -43t-41.5 -40
q-17 -15 -34.5 -29.5t-34.5 -30.5q-17 -15 -34.5 -30.5t-34.5 -29.5q-18 -17 -39.5 -33.5t-33.5 -29.5q-12 -12 -12 -20v-1q1 -9 28 -9q29 -5 41 -12q6 -5 6 -10q0 -4 -5 -11l-54 -17q-23 0 -39.5 0.5zM461.5 6q-12.5 4 -25 11.5t-23 18.5t-14.5 25q-2 6 -2 10q0 10 6 25
q13 29 40.5 58t75.5 58q14 8 33 13q6 1 12 1.5t12 0.5h11q38 -5 61 -25q23 -21 23 -57q0 -5 -0.5 -12.5t-2.5 -14.5q-12 -56 -78 -91q-26 -12 -53 -19t-56 -7q-7 1 -19.5 5zM767.5 8q-12.5 4 -25 11.5t-23 18.5t-14.5 25q-2 6 -2 10q0 10 6 25q13 29 40.5 58t75.5 58
q14 8 33 13q6 1 12 1.5t12 0.5h11q38 -5 61 -25q23 -21 23 -57q0 -5 -0.5 -12.5t-2.5 -14.5q-12 -56 -78 -91q-26 -12 -53 -19t-56 -7q-7 1 -19.5 5zM854 162q-17 -9 -36.5 -25t-27.5 -32q-3 -6 -3 -11q0 -4 3 -8q5 -8 23 -11q3 -1 7 -1q9 0 21 5q12 4 27 14q10 8 21 20.5
t13 26.5v2q0 7 -6 15q-9 9 -26 9h-2q-6 0 -14 -4zM548 160q-17 -9 -36.5 -25t-27.5 -32q-3 -6 -3 -11q0 -4 3 -8q5 -8 23 -11q3 -1 7 -1q9 0 21 5q12 4 27 14q10 8 21 20.5t13 26.5v2q0 7 -6 15q-9 9 -26 9h-2q-6 0 -14 -4zM229 377q13 7 22.5 12t16.5 10q29 20 35 49v1
q-7 -4 -15.5 -10.5t-18.5 -16.5q-32 -26 -40 -45z" />
    <glyph glyph-name=".0139" unicode="&#x2039;" horiz-adv-x="748" 
d="M189 211q-38 32 -38 65v2q2 10 9 18.5t17 16.5q13 12 26.5 24t36 27t56.5 35.5t87 49.5q22 12 47.5 25t52.5 25.5t54.5 24.5t51.5 22q10 4 29 11t31 9q4 0 13.5 -3.5t22 -8.5t27.5 -12l30 -14q-35 -20 -78.5 -38t-98.5 -35q-23 -7 -53 -21t-62 -30.5t-62.5 -34
t-54.5 -32.5q-15 -11 -24.5 -18.5t-16.5 -14t-13.5 -13.5t-15.5 -16q25 -41 96 -67q7 -2 44 -12t100 -26q34 -8 56.5 -16.5t31.5 -22.5q5 -8 5 -16q0 -4 -1 -6q-6 -15 -15.5 -21.5t-19.5 -7.5q-4 -1 -11 -1q-8 0 -12 1q-6 1 -12 1h-10q-65 0 -210 63q-80 35 -116 67z" />
    <glyph glyph-name=".0155" unicode="&#x203a;" horiz-adv-x="799" 
d="M712.5 366.5q-14.5 -9.5 -31.5 -18.5q-32 -17 -63 -32.5t-62 -31.5q-58 -29 -115.5 -62t-114.5 -65q-8 -5 -16.5 -8.5t-17.5 -5.5q-18 -5 -32 -5q-2 0 -3 1q-16 0 -26 7q-8 6 -8 17v5q6 29 24 45.5t53 35.5q9 5 19.5 10t21.5 12q12 6 59.5 29t132.5 63h-1q38 17 69.5 34
t51.5 31q-46 10 -85.5 25t-72 32t-58.5 35t-45 34q-20 16 -35.5 30.5t-26.5 28.5q-19 22 -19 39q0 5 1 8q1 5 2 9.5t2.5 12.5t5 21.5t9.5 36.5l43 -54q10 -13 30.5 -29t46.5 -33t55.5 -34t57 -31t50.5 -24t37 -13q37 -12 62 -20.5t41 -16.5t23 -18t7 -25q-6 -30 -46 -58
q-11 -8 -25.5 -17.5z" />
    <glyph glyph-name="Euro" unicode="&#x20ac;" horiz-adv-x="760" 
d="M261.5 250.5q-15.5 0.5 -33.5 0.5h-45q-24 -40 -40 -68t-16 -60q0 -15 6.5 -24.5t18 -14.5t26 -7t30.5 -2q29 0 70.5 3.5t79.5 11.5q52 12 85 12h7q34 -1 40 -12q1 -1 1 -5q0 -8 -20 -22q-12 -8 -32.5 -17t-49.5 -17q-35 -11 -64.5 -16.5t-56 -8t-51.5 -3t-50 -0.5
q-61 0 -95 30q-14 14 -22.5 32t-8.5 39q0 42 16.5 79t36.5 78q-20 3 -20 12q0 1 -8.5 4.5t-9.5 9.5v1q0 6 13 13q14 8 58 17q4 0 5 1q22 31 51 63q-34 3 -58 8t-24 13l-2 5q-2 2 -2 4q0 3 3 6q3 6 18.5 12.5t51.5 12.5q28 5 48.5 8t36.5 5q9 8 17.5 16t18.5 16
q39 34 87 63.5t96.5 52t92.5 37.5t75 20q5 1 9 1h9q11 0 19 -3q32 -13 45 -39t13 -56t-10 -58.5t-24 -45.5v-1q-31 -49 -112 -58q7 15 17 34t20.5 39t21 39.5t18.5 34.5q1 5 1.5 9t0.5 8q0 7 -3 12q-6 7 -23 7q-19 0 -53.5 -12t-73.5 -31t-76.5 -42t-61.5 -44q5 0 9 -0.5
t9 -0.5q8 0 24 -1.5t31.5 -5.5t27.5 -11.5t12 -20.5q0 -14 -19 -27q-20 -5 -43.5 -7.5t-51.5 -3.5h-40q-23 0 -33 1t-16 1q-22 -22 -41 -44l-3 -3q12 -1 23 -1.5t21 -0.5q7 0 10 1h44q21 -1 41 -3.5t42 -9.5q22 -16 27 -31v-4q0 -12 -23 -20q-20 -5 -44 -7.5t-52 -3.5h-41
q-16 0 -31.5 0.5z" />
    <glyph glyph-name=".0153" unicode="&#x2122;" horiz-adv-x="2189" 
d="M636 57.5q7 -0.5 15 -1.5h5q13 0 20 7q1 1 2 5t2 8.5l2 9t1 5.5q4 11 15 35t26 53t32.5 60t36 56t36 41.5t31.5 16.5q7 0 23.5 -2t33.5 -5.5t30 -9t13 -11.5q0 -11 -8.5 -13t-17.5 -2h-10q-11 0 -20.5 0.5t-20.5 7.5q-26 -63 -63.5 -112.5t-88.5 -94.5q-5 -9 -9.5 -20
t-4.5 -22t8 -12.5t17 -1.5q16 0 24 8t12 20t7 25.5t9 25.5t17.5 20t33.5 8q0 -15 -4.5 -27.5t-9.5 -25t-9.5 -25t-4.5 -26.5q4 0 9.5 -0.5t13.5 -1.5h5q10 0 17 7q12 15 17 40t11.5 49t18.5 42t38 18q0 -16 -4.5 -30.5t-10.5 -28.5t-10.5 -28.5t-4.5 -30.5v-3q28 20 54.5 46
t48.5 50q1 0 3.5 0.5t3.5 0.5q11 0 13 -6.5t2 -15.5q0 -12 -3.5 -24t-7.5 -23.5t-7.5 -23.5t-3.5 -25v-14q6 0 13 -0.5t13.5 -2.5t11 -6.5t4.5 -11.5q0 -3 -1 -8t-6 -5h-55q-3 0 -6.5 3.5t-6.5 8t-5.5 9t-2.5 6.5v10q0 10 1.5 22.5t1.5 15.5h-10q-3 -4 -13 -14l-21 -21
t-21 -20.5t-14 -12.5q-2 -2 -6.5 -4.5t-6.5 -2.5h-200l-7 7h-7l-14 -7h-75q-5 0 -6.5 8t-1.5 13v6q0 19 3.5 39t12 36.5t23 27t35.5 10.5q0 -15 -4.5 -27.5t-10 -25t-10 -25t-4.5 -26.5q5 0 12 -0.5zM1860.5 157.5q0.5 -11.5 0.5 -15.5q0 -37 -20 -59t-57 -34v-7
q35 3 66 16.5t54 36t36.5 53t13.5 66.5h-53q-2 0 -4.5 5.5t-2.5 8.5q3 11 14 16t24.5 8t26 6.5t18.5 11.5q10 10 12 23.5t4 25.5t8 20.5t24 8.5v-81h19q4 0 9 1h24q8 0 12 -1q17 -2 29.5 -9.5t12.5 -25.5h-106q-11 0 -19 -16t-14.5 -40.5t-12 -52.5t-11.5 -52.5t-13 -40.5
t-16 -16t-13 6t-5 15q-1 2 -1 10v6q1 3 1 7t1 5q-34 -33 -66.5 -44.5t-79.5 -11.5q-26 0 -47 13t-21 42q0 22 8.5 44.5t23 40.5t34.5 29.5t43 11.5q12 0 23.5 -2t19.5 -13q0 -4 0.5 -15.5zM1103 35q-6 7 -7 11.5t-1 12.5q0 24 10.5 45t27.5 36.5t38.5 25t44.5 9.5
q0 -21 -12.5 -32t-27 -19.5t-27 -19t-12.5 -31.5v-3q23 9 38.5 21t28.5 25.5t26 28t31 28.5l2 1h2q9 0 10 -8.5t1 -14.5q0 -11 -6 -23t-14.5 -24.5t-16.5 -24.5t-12 -23q-1 -2 -4 -11.5t-6.5 -20t-6.5 -19t-4 -9.5q-3 -3 -11.5 -18t-18.5 -33.5t-19 -36t-13 -24.5
q-2 -3 -7.5 -11.5t-12 -18.5t-12.5 -19t-9 -13q-10 -14 -14 -17.5t-16 -3.5q-25 0 -25 28v117q0 19 13 33t32 23.5t40.5 16t38.5 10.5l7 13q-15 -6 -26 -6.5t-26 -0.5h-24zM211.5 182q6.5 6 14 12t15 10.5t15.5 4.5v-36q34 -12 52 -29.5t18 -52.5q0 -71 -72 -71
q-13 0 -22.5 2.5t-18.5 5.5t-18 7t-21 7q-4 -11 -14 -24.5t-20.5 -27t-20.5 -27t-14 -24.5q-2 -2 -7.5 -10t-6.5 -10q-2 -4 -10 -18t-17 -30t-17.5 -30.5t-10.5 -18.5q-4 -7 -9 -8t-13 -1q0 31 12 61t29 57.5t34.5 52t29.5 45.5v3q0 12 -7.5 23.5t-7.5 24.5q0 19 11 33
t26 24.5t31.5 19t28.5 16.5q4 3 10.5 9zM447 243q4 12 8.5 26.5t8.5 26.5t6 15q1 3 5.5 13.5t9.5 22.5t10.5 23.5t8.5 16.5q8 14 21 29.5t31 15.5q0 -15 -2.5 -24.5t-6.5 -18t-9.5 -18.5t-12.5 -26q-2 -5 -10 -26.5t-17.5 -45.5t-17.5 -45.5t-10 -26.5t-7 -15.5t-10.5 -22.5
t-10.5 -23t-7 -15v-7q20 14 43.5 34.5t39.5 34.5h25q0 -15 -4 -28.5t-9 -26t-9 -25.5t-4 -27q0 -12 8 -16t17 -5.5t17 -4.5t8 -14q0 -3 -0.5 -10.5t-7.5 -7.5h-69l-7 7q-10 13 -10 28q0 3 1 4q1 15 3 36q-2 0 -7 -2.5l-7 -3.5q-5 -3 -17 -13t-25.5 -21t-25 -21t-15.5 -14
q-1 0 -3 -0.5t-4 -0.5q-10 0 -12 6t-2 15q0 2 0.5 7t0.5 7q5 10 16.5 34.5t24.5 51.5t24.5 51.5t16.5 34.5zM1574 212q0 -16 -5 -30.5t-10.5 -28.5t-10.5 -28.5t-5 -30.5v-3q28 20 54.5 46t49.5 50l3 1h4q10 0 12 -6.5t2 -15.5q0 -12 -3.5 -24t-7.5 -23.5t-7.5 -23.5
t-3.5 -25q0 -2 0.5 -7t0.5 -7q5 0 12.5 -0.5t14 -2.5t11 -6.5t4.5 -11.5q0 -3 -1 -8t-7 -5h-55q-2 0 -5.5 3.5t-7 8t-6 9t-2.5 6.5q0 3 0.5 10t1 14.5t1 14.5t0.5 9h-9q-4 -4 -13.5 -14t-20.5 -21t-21 -20.5t-14 -12.5q-7 -6 -12 -7t-12 -1q-12 0 -15 5t-3 16v14q3 7 9 24.5
t12 37.5t12 37.5t9 24.5q11 32 44 32zM1086.5 -138.5q3.5 4.5 8 11.5t8.5 13.5t7 11.5q4 7 10 18t12 23l11.5 23l9.5 19l5 11q-31 0 -48 -11.5t-25.5 -30t-10 -43t-1.5 -50.5h9q1 0 4.5 4.5zM274.5 121.5q-16.5 11.5 -34.5 11.5h-6l-5 -1l-35 -55q13 -11 23 -13t24 -2
q6 0 15 1t16.5 4t13 8.5t5.5 14.5q0 20 -16.5 31.5zM1774.5 89q11.5 3 18.5 6l5 2q4 3 10 8t11.5 10.5t9.5 10t4 6.5v22q-14 0 -28.5 -6t-27 -15.5t-20.5 -22.5t-8 -27q1 0 4 0.5t4 0.5q6 2 17.5 5zM731 310q-22 0 -33 7t-11 30q5 0 18 -0.5t27 -3t24.5 -7t10.5 -11.5
q0 -11 -8.5 -13t-17.5 -2h-10zM1393.5 19.5q-5.5 4.5 -8 11.5t-3 15t-0.5 15q14 0 29.5 -7.5t15.5 -24.5q0 -14 -18 -14q-10 0 -15.5 4.5zM153 85.5q9 14.5 14 25.5q-14 -8 -21.5 -16t-7.5 -22q0 -1 0.5 -5t0.5 -5q5 8 14 22.5z" />
    <glyph glyph-name="uniE001" unicode="&#xe001;" horiz-adv-x="0" 
 />
    <glyph glyph-name="uniE003" unicode="&#xe003;" horiz-adv-x="0" 
 />
    <glyph glyph-name="uniE000" unicode="&#xe005;" horiz-adv-x="0" 
 />
    <glyph glyph-name="uniE006" unicode="&#xe006;" horiz-adv-x="0" 
 />
    </font>
</defs>
</svg>
